<svg width="78" height="78" viewBox="0 0 78 78" fill="none" xmlns="http://www.w3.org/2000/svg">
<g clip-path="url(#clip0_607_208)">
<path d="M36.2217 9.96343V1.21875C36.2217 0.545695 36.7674 0 37.4405 0C38.1135 0 38.6592 0.545695 38.6592 1.21875V9.96343C38.6592 10.6365 38.1135 11.1822 37.4405 11.1822C36.7674 11.1822 36.2217 10.6366 36.2217 9.96343ZM28.9898 14.4819C29.2278 14.7201 29.5396 14.8389 29.8516 14.8389C30.1636 14.8389 30.4755 14.7199 30.7135 14.4819C31.1894 14.006 31.1895 13.2344 30.7135 12.7585L24.0167 6.06161C23.541 5.58553 22.7693 5.58568 22.2933 6.06161C21.8173 6.53753 21.8173 7.30915 22.2933 7.78507L28.9898 14.4819ZM17.0869 22.2772H27.8375C28.5106 22.2772 29.0563 21.7315 29.0563 21.0585C29.0563 20.3854 28.5106 19.8397 27.8375 19.8397H17.0869C16.4139 19.8397 15.8682 20.3854 15.8682 21.0585C15.8682 21.7317 16.4139 22.2772 17.0869 22.2772ZM45.1227 14.9582C45.4346 14.9582 45.7466 14.8392 45.9845 14.6012L52.4374 8.14841C52.9133 7.67249 52.9133 6.90087 52.4374 6.42495C51.9614 5.94902 51.1898 5.94902 50.7139 6.42495L44.2611 12.8776C43.7852 13.3535 43.7852 14.1252 44.2611 14.6011C44.499 14.839 44.8109 14.9582 45.1227 14.9582ZM45.7365 21.5722C45.7365 22.2452 46.2822 22.7909 46.9553 22.7909H57.2802C57.9533 22.7909 58.499 22.2452 58.499 21.5722C58.499 20.8991 57.9533 20.3534 57.2802 20.3534H46.9553C46.2821 20.3534 45.7365 20.8991 45.7365 21.5722ZM32.9395 41.9616V20.0644C32.9395 17.5483 34.9865 15.5013 37.5027 15.5013C40.0188 15.5013 42.0658 17.5483 42.0658 20.0644V29.2687C42.7011 28.9328 43.4243 28.7416 44.1915 28.7416C46.3301 28.7416 48.1288 30.2207 48.6208 32.2094C49.2875 31.8277 50.0587 31.6083 50.8804 31.6083C52.7809 31.6083 54.4131 32.7765 55.0984 34.4321C55.811 33.9711 56.6591 33.7022 57.5692 33.7022C60.0853 33.7022 62.1324 35.7493 62.1324 38.2654V54.8797C62.1324 55.0552 62.0944 55.2286 62.0213 55.3879C60.7747 58.1045 60.1091 59.5751 59.7358 60.4034C61.1132 60.7692 62.1324 62.023 62.1324 63.5138V74.7785C62.1324 76.5549 60.6872 78 58.9109 78H36.1137C34.3376 78 32.8924 76.5549 32.8924 74.7785V63.5138C32.8924 62.6759 33.2166 61.9142 33.7428 61.3406C31.6889 58.6446 29.695 56.1355 27.7638 53.7067C25.0865 50.3396 22.5576 47.1591 20.582 44.3393C19.749 43.1505 17.214 39.5323 18.9795 37.2384C21.0285 34.5765 26.7144 36.5691 27.3561 36.805C28.8143 37.3413 30.7887 39.4142 32.9395 41.9616ZM59.6947 63.5138C59.6947 63.0889 59.3358 62.7298 58.9108 62.7298H57.8725C57.8715 62.7298 57.8704 62.73 57.8692 62.73C57.868 62.73 57.8666 62.7298 57.8654 62.7298H36.1137C35.6888 62.7298 35.3299 63.0887 35.3299 63.5138V74.7785C35.3299 75.2034 35.6888 75.5625 36.1137 75.5625H58.9109C59.3358 75.5625 59.6949 75.2036 59.6949 74.7785V63.5138H59.6947ZM32.8425 45.6699C31.3629 43.854 27.8977 39.6013 26.5149 39.0928C23.8891 38.1272 21.3906 38.1024 20.911 38.7253C20.6609 39.0503 20.7305 40.3038 22.5781 42.9408C24.5112 45.7001 27.0179 48.8524 29.6716 52.1898C31.714 54.7584 33.8257 57.4145 36.0124 60.2977C36.0464 60.2966 36.0795 60.2925 36.1136 60.2925H57.1123C57.1611 60.1852 57.222 60.0498 57.3061 59.8626C57.6151 59.1752 58.25 57.7631 59.6947 54.6136V38.2656C59.6947 37.0934 58.7412 36.1399 57.5691 36.1399C56.3971 36.1399 55.4434 37.0934 55.4434 38.2656V43.9675C55.4434 44.6405 54.8977 45.1862 54.2247 45.1862C53.5516 45.1862 53.0059 44.6405 53.0059 43.9675V36.1716C53.0059 34.9996 52.0524 34.0459 50.8803 34.0459C49.7081 34.0459 48.7546 34.9995 48.7546 36.1716V42.1805C48.7546 42.8535 48.2089 43.3992 47.5359 43.3992C46.8628 43.3992 46.3171 42.8535 46.3171 42.1805V33.3049C46.3171 32.1328 45.3636 31.1793 44.1915 31.1793C43.0195 31.1793 42.0658 32.1328 42.0658 33.3049V40.2989C42.0658 40.9719 41.5201 41.5176 40.8471 41.5176C40.174 41.5176 39.6283 40.9719 39.6283 40.2989V20.0646C39.6283 18.8926 38.6748 17.9389 37.5027 17.9389C36.3307 17.9389 35.377 18.8925 35.377 20.0646V45.3552C35.377 45.8704 35.053 46.33 34.5676 46.5031C34.0825 46.6761 33.5406 46.5253 33.2145 46.1263L32.8425 45.6699ZM42.1199 71.6601C42.1199 73.1766 40.8861 74.4105 39.3696 74.4105C37.8532 74.4105 36.6194 73.1766 36.6194 71.6601C36.6194 70.1435 37.8532 68.9098 39.3696 68.9098C40.8861 68.9098 42.1199 70.1435 42.1199 71.6601ZM39.6824 71.6601C39.6824 71.4905 39.5392 71.3473 39.3696 71.3473C39.2001 71.3473 39.0569 71.4905 39.0569 71.6601C39.0569 71.8296 39.2001 71.973 39.3696 71.973C39.5392 71.973 39.6824 71.8296 39.6824 71.6601Z" fill="#273B98"/>
</g>
<defs>
<clipPath id="clip0_607_208">
<rect width="78" height="78" fill="white"/>
</clipPath>
</defs>
</svg>
