<svg width="183" height="154" viewBox="0 0 183 154" fill="none" xmlns="http://www.w3.org/2000/svg">
<g clip-path="url(#clip0_17_37254)">
<path d="M104.562 61.386L95.7946 81.1345L95.5515 81.6696C95.0977 81.7182 94.7088 81.621 94.5791 81.5723L94.7736 81.1345L103.444 61.5805L90.8031 47.977L88.907 47.5717L89.1015 46.6637L91.2893 47.1339L104.562 61.386Z" fill="url(#paint0_linear_17_37254)"/>
<path d="M91.0624 84.9611H99.1654C99.1654 84.9611 99.1492 84.7665 99.0682 84.4747C98.8251 83.5181 97.9338 81.4751 94.7736 81.4751C91.6134 81.4751 91.111 83.5181 91.0461 84.4747C91.0461 84.7665 91.0624 84.9611 91.0624 84.9611Z" fill="url(#paint1_linear_17_37254)"/>
<path d="M82.8135 43.5996L83.3645 45.1561L86.6868 54.5764C88.0319 54.1062 89.1015 53.182 89.7659 52.0308C90.5924 50.604 90.8193 48.8367 90.2359 47.1666C89.1501 44.1184 85.8278 42.5294 82.8135 43.5996Z" fill="url(#paint2_linear_17_37254)"/>
<path d="M96.0052 81.1345V81.5723C95.8593 81.6209 95.7135 81.6534 95.5676 81.6696C95.1138 81.7182 94.7249 81.6209 94.5952 81.5723C94.5628 81.5561 94.5466 81.5561 94.5466 81.5561V81.1345H94.7897H95.8107H96.0052Z" fill="#FFA855"/>
<path d="M91.0624 84.961H99.1654C99.1654 84.961 99.1492 84.7665 99.0682 84.4746H91.0461C91.0461 84.7665 91.0624 84.961 91.0624 84.961Z" fill="#FFA555"/>
<path d="M82.8135 43.5993L83.3645 45.1558C85.3092 46.6799 88.3074 49.3228 89.7659 52.0143C90.5924 50.5875 90.8193 48.8202 90.2359 47.1501C89.1501 44.1181 85.8278 42.5292 82.8135 43.5993Z" fill="#FFA855"/>
<path d="M54.3878 60.2672C54.3878 60.2672 55.7978 58.4837 56.0246 58.2081C56.2515 57.9486 57.1267 57.6892 58.1476 57.4947C59.1686 57.3001 60.611 57.5433 60.7406 57.6892C60.8541 57.8351 61.0323 57.9162 61.081 58.4188C61.1296 58.9215 60.9189 59.3755 60.9189 59.3755C60.9189 59.3755 61.243 59.943 60.9351 60.4942C60.9351 60.4942 61.2106 61.0455 60.7893 61.613C60.7893 61.613 61.0486 62.1643 60.7082 62.5534C60.7082 62.5534 59.8331 62.8128 59.5252 63.0074C59.2173 63.202 57.3698 63.5911 55.5385 63.6722C55.5385 63.6722 53.8206 63.1047 54.3878 60.2672Z" fill="#EEA886"/>
<path d="M13.6132 115.427L5.55871 149.006H3.79224L10.615 115.362L13.6132 115.427Z" fill="#858585"/>
<path d="M22.3969 115.427L14.3424 149.006H12.5759L19.3987 115.362L22.3969 115.427Z" fill="#858585"/>
<path d="M36.6096 115.427L44.6479 149.006H46.4306L39.6078 115.362L36.6096 115.427Z" fill="#858585"/>
<path d="M44.2266 115.751H9.52922C9.52922 115.751 7.11451 115.703 5.49389 108.536C3.6788 100.478 0 73.5789 0 73.5789C0 73.5789 0.97237 71.0819 16.2224 71.39L43.5298 106.834C43.5298 106.834 44.4697 112.427 44.2266 115.751Z" fill="#E2D2CA"/>
<path d="M45.2961 82.1722C45.2961 82.1722 47.0626 81.4102 48.3915 81.7182C49.7204 82.0263 52.8158 83.1937 54.3554 83.3721C55.895 83.5666 57.3535 84.4584 57.3211 84.961C57.2887 85.4637 45.4744 85.8852 45.4258 84.734C45.361 83.5828 45.2961 82.1722 45.2961 82.1722Z" fill="#EEA886"/>
<path d="M54.3878 60.2672C54.3878 60.2672 52.0865 61.7913 52.0379 62.2453C51.9569 63.0074 52.4269 65.407 52.4917 65.3746C52.5565 65.3422 55.976 63.6559 55.976 63.6559L54.3878 60.2672Z" fill="#EEA886"/>
<path d="M54.3393 143.299C54.3393 143.299 57.305 145.066 58.6501 145.731C59.9952 146.396 65.2298 146.59 65.7484 147.077C66.267 147.563 66.0725 149.136 65.1974 149.298C64.3223 149.46 57.9694 150.011 55.8464 149.509C53.7234 149.006 49.7529 149.833 48.8778 149.525C48.0026 149.217 48.5861 144.482 48.9264 143.412C49.2667 142.358 54.3393 143.299 54.3393 143.299Z" fill="#292C47"/>
<path d="M54.2908 141.288L54.3394 143.299C54.3394 143.299 50.3527 144.028 48.9265 143.428L49.0238 141.223L54.2908 141.288Z" fill="#1C1E30"/>
<path d="M61.2916 143.299C61.2916 143.299 64.2574 145.066 65.6025 145.731C66.9476 146.396 72.1822 146.59 72.7008 147.077C73.2194 147.563 73.0249 149.136 72.1498 149.298C71.2746 149.46 64.9218 150.011 62.7988 149.509C60.6758 149.006 56.7053 149.833 55.8302 149.525C54.955 149.217 55.5385 144.482 55.8788 143.412C56.2191 142.342 61.2916 143.299 61.2916 143.299Z" fill="#323657"/>
<path d="M61.2431 141.288L61.2918 143.299C61.2918 143.299 57.305 144.028 55.8789 143.428L55.9761 141.223L61.2431 141.288Z" fill="#1C1E30"/>
<path d="M37.8577 94.5597L33.3362 93.7652L36.3505 86.1771L37.8577 94.5597Z" fill="#24263D"/>
<path d="M24.3093 96.1163C24.3093 96.1163 47.0303 100.948 50.5795 102.456C54.1286 103.964 56.2516 104.58 56.5271 105.342C56.7864 106.104 62.3289 142.164 62.3289 142.164H54.7931C54.7931 142.164 48.9426 114.924 48.2296 113.238C47.5165 111.552 19.415 111.471 17.373 109.428C15.3311 107.385 13.5646 101.791 15.7848 96.781C18.0051 91.7547 24.3093 96.1163 24.3093 96.1163Z" fill="#282B45"/>
<path d="M35.8157 93.5868C35.8157 93.5868 61.8752 100.916 64.0144 104.272C66.1861 107.693 55.3279 142.148 55.3279 142.148H47.8731C47.8731 142.148 55.0524 109.866 54.1611 108.439C53.2698 107.012 14.0022 108.39 21.3112 96.781C28.6202 85.1718 35.8157 93.5868 35.8157 93.5868Z" fill="#282B45"/>
<path d="M33.1091 57.3487C34.0977 56.8461 37.3551 57.9486 38.3275 59.4565C40.5802 62.9587 44.8262 67.2716 44.8262 67.2716L54.2906 59.3106L56.1867 64.0613L44.9558 73.5302C43.9997 74.3409 42.5897 74.2923 41.6822 73.4167C38.7327 70.5468 32.6553 64.5153 32.1854 63.0074C31.5695 61.0293 31.2454 58.3215 33.1091 57.3487Z" fill="#323657"/>
<path d="M29.9166 37.0651C29.9166 37.0651 34.4382 37.8271 34.4868 45.4963C34.5354 53.1655 31.6183 53.8951 27.2102 52.7764C24.5524 52.0954 22.0729 48.3337 23.0452 41.7347C24.0176 35.1194 29.9166 37.0651 29.9166 37.0651Z" fill="#EEA987"/>
<path d="M30.5 55.3868C30.5 55.3868 36.7394 57.6568 37.6632 59.0674C38.5869 60.4942 37.9873 73.2546 37.4525 77.8269C36.9177 82.3993 35.4591 92.2411 35.8157 93.5707L21.3112 96.7648C21.3112 96.7648 16.66 79.8212 16.5303 77.1135C16.4007 74.422 12.9974 61.8238 14.6342 60.8023C16.271 59.7808 23.418 55.7922 23.418 55.7922L30.5 55.3868Z" fill="#EDDAD3"/>
<path d="M21.3273 96.7648L20.6143 94.1544L35.8481 91.1873L35.8156 93.5869L21.3273 96.7648Z" fill="#1F2136"/>
<path d="M28.9119 92.4032L32.5258 91.6573V94.511L28.9119 95.3541V92.4032Z" fill="#4F558A"/>
<path d="M27.2912 84.961C27.2587 85.7069 27.2101 86.4689 27.1615 87.231L27.1453 87.2472C26.6267 95.6622 25.865 104.466 25.865 104.466C24.8116 105.358 11.3767 102.229 11.3767 102.229C11.3767 102.229 13.0297 99.9914 14.6179 93.7652C16.2224 87.5553 14.9745 81.5885 13.3052 71.471C11.6522 61.3697 13.0297 61.4184 13.0297 61.4184L23.4017 55.7759C24.0823 58.354 26.8374 67.7418 27.4856 73.1086C27.7287 75.0867 27.5829 79.7888 27.2912 84.961Z" fill="#323657"/>
<path d="M30.5972 55.403C30.5972 55.403 33.6115 63.2181 34.908 71.1792C36.2207 79.3024 36.1559 94.0084 37.5658 94.3651C38.9758 94.7218 38.5382 94.4786 38.5382 94.4786C38.5382 94.4786 38.2789 85.5934 38.1492 82.6586C37.8575 76.092 39.0892 61.2725 38.522 59.7808C37.9548 58.2729 33.887 56.0029 30.5972 55.403Z" fill="#323657"/>
<path d="M30.3541 54.187C30.3541 54.6572 30.3865 55.0949 30.4999 55.3868C30.4999 55.3868 29.7058 58.4999 23.4016 55.7921C23.4016 55.7921 24.6495 51.155 23.4016 47.2636L30.4999 51.6738C30.4999 51.6738 30.4189 52.371 30.3703 53.1979C30.3541 53.506 30.3379 53.8627 30.3541 54.187Z" fill="#EEA987"/>
<path d="M23.6609 54.5599C23.6609 54.5599 26.1405 56.5866 28.6362 56.8136L26.9508 59.0187L23.4016 55.7921L23.6609 54.5599Z" fill="#D6C5BF"/>
<path d="M28.6362 56.8136C28.6362 56.8136 30.3703 55.403 30.3703 54.5599L30.6134 55.4192L30.5161 58.5809L28.6362 56.8136Z" fill="#D6C5BF"/>
<path d="M33.9357 41.5077C33.9357 41.5077 35.1998 38.8 34.2923 36.8056C33.3685 34.8113 30.9862 35.6382 29.8842 35.8814C28.7984 36.1247 26.724 33.6926 23.0614 36.6435C19.3988 39.5944 20.4846 42.7075 22.1214 46.4043C23.7421 50.1011 23.9527 50.4091 23.9527 50.4091C23.9527 50.4091 23.9527 46.6313 24.3903 45.9665C24.9089 45.1882 26.805 44.7829 26.805 44.7829C26.805 44.7829 25.3627 42.8048 26.7726 42.059C28.1987 41.3131 31.1321 42.6913 33.9357 41.5077Z" fill="#16202E"/>
<path d="M24.9412 44.0046C24.7468 43.4371 23.7906 42.7886 23.3206 43.8587C22.8344 44.9126 24.0823 46.7934 24.763 46.7934C25.4436 46.7772 25.3788 45.3017 24.9412 44.0046Z" fill="#EEA987"/>
<path d="M14.1804 60.8023C16.903 59.6835 19.7229 63.4613 21.2301 67.2392C22.7373 71.017 25.622 77.8755 25.622 77.8755L45.75 81.1345L46.0417 84.961H22.5428C22.5428 84.961 13.597 68.9254 12.9811 66.9311C12.3653 64.9206 12.2357 61.5967 14.1804 60.8023Z" fill="#323657"/>
<path d="M105.291 84.9611H38.9109V87.2472H105.291V84.9611Z" fill="#E2D2CA"/>
<path d="M79.4103 44.9126H77.8059V80.3725H79.4103V44.9126Z" fill="#ABA095"/>
<path d="M81.7277 84.961H93.6879V84.2314H81.7277C81.1119 84.2314 80.6581 84.0855 80.3988 83.7936C80.0909 83.4369 80.1395 82.9667 80.1395 82.9667V82.9505V82.9343V67.45H79.4102V82.9018C79.394 83.0478 79.3616 83.7287 79.8478 84.2638C80.2368 84.7178 80.885 84.961 81.7277 84.961Z" fill="#918880"/>
<path d="M64.7598 83.6802H78.0489V84.9449H64.5815V83.8585C64.5815 83.7613 64.6626 83.6802 64.7598 83.6802Z" fill="#6E6760"/>
<path d="M98.3857 149.392H100.266L100.266 87.2436H98.3857L98.3857 149.392Z" fill="#706865"/>
<path d="M43.9306 149.392H45.8105L45.8105 87.2436H43.9306L43.9306 149.392Z" fill="#706865"/>
<path d="M27.2912 84.961C27.2587 85.7068 27.2101 86.4689 27.1615 87.231L27.1453 87.2472C27.1453 87.2472 24.5361 87.5877 22.3321 86.5986C20.128 85.5933 18.6047 78.0214 18.4912 77.6161C18.7181 78.0539 22.2348 84.961 23.0938 84.961C24.0013 84.961 27.2912 84.961 27.2912 84.961Z" fill="#1F2136"/>
<path d="M30.3705 53.1817C30.3543 53.506 30.3381 53.8627 30.3543 54.187C25.3466 54.2681 25.2817 51.3982 25.2817 51.3982C26.0434 53.4736 30.3705 53.1817 30.3705 53.1817Z" fill="#A77860"/>
<path d="M62.8112 54.5216L57.344 59.8044L57.7943 60.2709L63.2615 54.9882L62.8112 54.5216Z" fill="#EB4747"/>
<path d="M62.8152 54.5113L63.8362 53.9762L63.2527 54.9815L62.8152 54.5113Z" fill="#EEA886"/>
<path d="M60.4653 57.7216C60.4653 57.7216 57.8723 58.2891 57.8885 58.7431C57.9047 59.2133 58.164 59.3592 58.164 59.3592L57.1754 60.1213C57.1754 60.1213 56.754 61.0293 57.7426 61.2238C57.7426 61.2238 57.2726 62.0183 58.2612 62.0832C58.2612 62.0832 58.164 62.7479 58.6016 62.8614C59.0553 62.9749 60.7084 62.5372 60.7084 62.5372C60.7084 62.5372 61.0811 62.2777 60.838 61.613C60.838 61.613 61.2756 61.0779 60.9839 60.478C60.9839 60.478 61.2756 60.0078 60.9677 59.3592C60.9677 59.3592 61.5025 58.2567 60.7408 57.673C60.7408 57.6892 60.5787 57.7054 60.4653 57.7216Z" fill="#D69779"/>
<path d="M56.1057 58.1756C56.1057 58.1756 57.8074 58.7269 58.6015 59.4727C58.7797 59.6511 58.9256 59.8456 58.8446 60.1051C58.7635 60.3645 58.326 60.5753 57.5643 60.3807C56.8188 60.1861 55.7492 60.3158 55.7492 60.3158C55.7492 60.3158 55.0361 59.8618 56.1057 58.1756Z" fill="#EEA886"/>
<path d="M58.2937 116.092C58.2937 116.092 56.7055 106.153 56.6245 105.747C56.5434 105.342 54.9228 103.899 47.1763 101.353C47.1763 101.353 55.7817 103.023 58.0506 104.499C59.7685 105.618 58.2937 116.092 58.2937 116.092Z" fill="#12131F"/>
<path d="M90.7222 84.961C91.5649 84.6043 92.9424 80.5833 93.6069 78.5079C93.8338 77.7621 93.9796 77.2756 93.9796 77.2756H86.2007C86.8651 82.075 88.502 84.961 88.502 84.961H90.7222Z" fill="#9E633A"/>
<path d="M91.3381 74.876C91.3381 74.6003 92.586 73.4329 93.218 72.6547C93.85 71.8926 92.9749 70.4333 92.9749 70.4333C90.1874 71.5845 90.6736 74.8598 90.6736 74.8598C90.6736 74.8598 91.3381 75.1516 91.3381 74.876Z" fill="#97A43C"/>
<path d="M89.7499 75.0057H90.0902C90.0902 75.0057 90.3333 69.347 88.2589 68.585C86.2007 67.8229 86.2007 66.2826 86.2007 66.2826C86.2007 66.2826 85.5687 68.3904 86.5897 69.493C87.5945 70.5955 88.7451 71.8926 88.5506 72.9465C88.3562 74.0004 89.7499 75.0057 89.7499 75.0057Z" fill="#97A43C"/>
<path d="M93.6069 78.5079C93.8338 77.7621 93.9796 77.2756 93.9796 77.2756H86.2007C86.8651 82.075 88.502 84.961 88.502 84.961H89.0043C88.9233 80.4536 91.8728 78.9781 93.6069 78.5079Z" fill="#82522F"/>
<path d="M93.9796 74.876H86.1358L85.6982 77.2756H94.3037L93.9796 74.876Z" fill="#C67B47"/>
<path d="M168.787 49.5985C168.787 49.5985 170.959 50.5875 171.461 49.7768C171.964 48.9661 173.033 48.1068 173.39 47.8636C173.86 47.5231 174.962 45.9503 175.335 46.5502C175.723 47.1502 173.649 49.2255 173.293 49.7444C172.936 50.2632 175.626 49.9552 176.129 50.2957C176.647 50.6362 176.663 55.2895 174.816 55.2733C172.968 55.2571 171.04 53.9762 170.716 54.0411C170.392 54.1059 168.252 53.6195 168.252 53.6195L168.787 49.5985Z" fill="#EEA886"/>
<path d="M175.707 50.1821C175.707 50.1821 181.363 50.6037 181.704 50.9604C182.044 51.3171 181.995 51.6414 181.46 51.6252C180.926 51.609 175.967 51.382 175.967 51.382C175.967 51.382 182.53 53.052 182.87 53.279C183.065 53.4087 183 54.041 182.708 54.0573C182.417 54.0735 175.805 52.8088 175.805 52.8088C175.805 52.8088 181.93 54.3815 182.157 54.6734C182.352 54.9166 182.157 55.4841 181.687 55.403C181.217 55.3219 175.448 54.2032 175.448 54.2032C175.448 54.2032 179.824 55.6462 179.872 56.0191C179.905 56.2461 179.872 56.7812 178.754 56.3759C177.636 55.9705 174.897 55.2895 174.897 55.2895L175.707 50.1821Z" fill="#EEA886"/>
<path d="M116.377 145.196C116.377 145.196 114.869 146.266 114.027 147.028C113.184 147.79 112.05 148.601 111.353 150.53C110.656 152.476 111.758 153.886 113.638 154C115.518 154.113 118.419 152.687 118.694 150.968C118.97 149.249 121.19 149.46 121.482 148.244C121.773 147.028 121.384 145.536 121.384 145.536L116.377 145.196Z" fill="#C4C6D1"/>
<path d="M116.636 143.769L116.376 145.18C116.376 145.18 117.154 146.623 121.4 145.504L121.173 144.11L116.636 143.769Z" fill="#EEA886"/>
<path d="M121.4 145.504C121.4 145.504 120.444 145.634 119.764 145.731C119.083 145.844 117.738 144.969 116.376 145.18L116.798 146.898C116.798 146.915 121.303 146.071 121.4 145.504Z" fill="#C4C6D1"/>
<path d="M143.489 145.196C143.489 145.196 144.996 146.266 145.839 147.028C146.682 147.79 147.816 148.601 148.513 150.53C149.21 152.476 148.108 153.886 146.228 154C144.348 154.113 141.447 152.687 141.172 150.968C140.896 149.249 138.676 149.46 138.384 148.244C138.093 147.028 138.482 145.536 138.482 145.536L143.489 145.196Z" fill="#C4C6D1"/>
<path d="M143.23 143.769L143.489 145.18C143.489 145.18 142.712 146.623 138.466 145.504L138.692 144.11L143.23 143.769Z" fill="#EEA886"/>
<path d="M145.013 66.8338C145.013 66.8338 130.379 63.9478 122.794 66.6717C122.47 66.7852 122.178 66.9149 121.887 67.0446C121.887 67.0446 121.87 67.1743 121.838 67.4175C121.757 67.985 121.595 69.1524 121.384 70.7414C121.352 71.0008 121.319 71.2927 121.271 71.5845C120.185 79.7726 118.58 91.6574 118.273 97.462C117.867 105.083 117.446 106.153 117.446 107.596C117.446 111.455 116.085 143.947 116.085 143.947C116.085 143.947 118.386 145.18 121.919 143.947C121.919 143.947 126.1 111.714 126.829 109.331C127.559 106.947 132.696 85.2204 133.604 85.1069C134.511 85.0097 137.023 108.066 137.218 111.211C137.412 114.341 137.234 143.445 138.271 143.964C139.308 144.482 143.522 144.531 143.83 143.493C143.83 143.493 145.061 113.919 145.061 110.806C145.061 107.693 146.066 83.4693 145.969 82.4316C145.953 82.4154 146.244 74.8111 145.013 66.8338Z" fill="#292C47"/>
<path d="M138.174 25.0181C138.174 25.0181 150.604 27.661 151.641 31.1146C152.678 34.5681 154.526 40.2592 156.778 49.2417C157.119 50.5875 169.954 48.7877 169.954 48.7877C169.954 48.7877 171.024 54.2681 171.056 54.4302C171.137 54.9004 153.732 55.7922 152.468 55.4679C150.653 55.0139 147.606 42.8697 147.606 42.8697C147.606 42.8697 145.953 61.2076 145.953 64.0451C145.953 66.8825 146.147 72.6222 146.147 72.6222C146.147 72.6222 141.545 74.3896 132.599 73.9194C132.599 73.9194 118.37 73.4329 120.801 69.0876C122.632 65.8124 121.514 43.729 121.238 43.5831C120.963 43.4371 116.004 49.6633 116.49 50.8631C116.976 52.063 129.811 56.3597 129.811 56.3597C129.811 56.3597 130.184 57.7378 128.191 60.8833C128.191 60.8833 109.003 55.2733 108.938 54.1059C108.873 52.9385 116.911 30.1093 119.537 28.9257C123.313 27.207 133.215 24.4993 133.215 24.4993L138.174 25.0181Z" fill="#FA6F41"/>
<path d="M138.466 145.504C138.466 145.504 139.422 145.634 140.102 145.731C140.783 145.844 142.128 144.969 143.489 145.18L143.068 146.898C143.068 146.915 138.547 146.071 138.466 145.504Z" fill="#C4C6D1"/>
<path d="M137.068 47.6701L122.468 43.4299L116.088 65.4173L130.688 69.6575L137.068 47.6701Z" fill="#D9C7C1"/>
<path d="M135.646 47.255L121.048 43.0148L114.669 65L129.266 69.2402L135.646 47.255Z" fill="#6DBD7D"/>
<path d="M137.328 41.5448L119.897 36.4819L112.275 62.7489L129.705 67.8118L137.328 41.5448Z" fill="#EDDAD3"/>
<path d="M135.653 41.0754L118.223 36.0125L110.601 62.2795L128.031 67.3424L135.653 41.0754Z" fill="#548AD1"/>
<path d="M129.937 44.8107L120.102 41.9537L119.654 43.4952L129.49 46.3521L129.937 44.8107Z" fill="#609EF0"/>
<path d="M128.912 47.7045L119.075 44.8475L118.628 46.3891L128.464 49.2461L128.912 47.7045Z" fill="#609EF0"/>
<path d="M133.766 55.7111C133.766 55.7111 135.159 55.6786 135.581 55.6138C136.002 55.5489 135.727 56.4569 135.224 56.619C134.738 56.7974 133.766 55.7111 133.766 55.7111Z" fill="#E6A281"/>
<path d="M134.576 62.3426C134.576 62.3426 133.976 62.4885 133.669 62.4236C133.669 62.4236 133.134 62.2615 132.761 62.1804C132.631 62.148 132.534 62.1318 132.469 62.1156C132.178 62.0832 131.513 62.1156 130.832 61.8399C130.152 61.5643 127.818 60.3807 127.818 60.3807L128.483 58.2242L128.985 56.5056C128.985 56.5056 132.923 55.4517 133.588 55.63C133.652 55.6462 133.717 55.6624 133.782 55.6949C134.333 55.9056 134.657 56.2786 134.933 56.4245C135.03 56.4731 136.002 57.0568 136.051 57.3973C136.116 57.8675 135.986 58.208 135.743 58.435C135.743 58.435 135.84 59.3592 135.5 59.8781C135.5 59.8781 135.613 60.7212 135.014 61.2562C135.014 61.2238 135.046 62.0994 134.576 62.3426Z" fill="#EEA886"/>
<path d="M129.779 56.2137C129.779 56.2137 129.811 59.116 128.029 61.2725C128.029 61.2725 114.075 56.457 112.406 55.8084C110.721 55.1436 118.5 34.4871 118.5 34.4871L124.22 36.4327L121.141 42.2535C121.141 42.2535 119.618 45.5125 116.458 50.8631C116.458 50.8631 118.402 52.5656 129.779 56.2137Z" fill="#FA6F41"/>
<path d="M129.082 25.6505C129.082 25.6505 128.936 31.1794 134.641 31.0497C140.54 30.92 139.292 25.2613 139.292 25.2613C139.292 25.2613 134.819 23.3319 129.082 25.6505Z" fill="#EED9CF"/>
<path d="M137.979 20.689C137.979 20.689 137.461 23.494 138.352 25.4072C138.352 25.4072 139.243 29.8823 134.673 30.0769C130.103 30.2714 130.152 25.2613 130.152 25.2613C130.152 25.2613 131.092 24.7101 130.362 20.7214C129.633 16.7166 137.979 20.689 137.979 20.689Z" fill="#EEA886"/>
<path d="M135.192 4.45885C135.192 4.45885 141.042 5.39926 140.151 14.7871C139.26 24.175 134.09 23.3967 133.749 23.3967C133.409 23.3805 128.563 23.5751 128.191 12.1118C128.191 12.0956 128.029 3.63194 135.192 4.45885Z" fill="#EEA886"/>
<path d="M140.248 12.1281C140.248 12.1281 140.896 11.4309 141.123 12.1443C141.366 12.8577 140.281 15.9059 140.216 16.1653C140.216 16.1653 140.102 16.441 139.94 16.295C139.794 16.1329 140.248 12.1281 140.248 12.1281Z" fill="#EEA886"/>
<path d="M128.337 12.0146C128.337 12.0146 127.705 11.3011 127.461 11.9983C127.218 12.6955 128.256 15.9221 128.304 16.0356C128.304 16.0356 128.418 16.3113 128.58 16.1653C128.726 16.0194 128.337 12.0146 128.337 12.0146Z" fill="#EEA886"/>
<path d="M140.248 13.571L139.406 14.7222C139.406 14.7222 139.422 12.2091 139.292 11.8199C139.162 11.4308 139.454 10.0526 139.341 9.76077C139.227 9.46892 135.338 10.539 128.953 9.89048C128.953 9.89048 129.666 12.1604 129.244 12.3226C128.823 12.4847 129.034 15.2735 129.034 15.2735L128.353 14.479C128.353 14.479 127.575 9.72834 127.656 8.93386C127.753 7.87995 127.397 2.9347 136.375 3.79404C137.396 3.89132 138.385 4.26424 139.211 4.9128C140.135 5.62622 141.075 6.76119 140.994 8.30152C140.88 10.2958 140.248 13.571 140.248 13.571Z" fill="#434343"/>
<path d="M131.092 22.132C131.092 22.132 133.507 24.9532 137.331 22.132C137.331 22.132 136.262 24.2723 134.009 24.3209C131.756 24.3695 131.092 22.132 131.092 22.132Z" fill="#A77860"/>
<path d="M125.338 6.27478H125.031V13.9602H125.338V6.27478Z" fill="#F08D29"/>
<path d="M150.685 6.08023L134.106 11.3822L117.543 6.08023L134.106 0L150.685 6.08023Z" fill="#272A45"/>
<path d="M125.193 13.7008C125.176 13.7008 125.176 13.7008 125.193 13.7008C124.447 13.7332 124.528 17.4787 124.528 17.4787H125.176H125.193H125.841C125.841 17.4949 125.922 13.7494 125.193 13.7008Z" fill="#F08D29"/>
<path d="M140.832 9.93917C140.832 9.93917 136.894 7.71786 127.688 9.93917L127.445 7.63679C127.445 7.63679 127.591 7.58814 127.867 7.49086C129.455 6.97201 135.305 5.28576 140.491 7.05308C140.589 7.08551 141.14 7.26387 141.253 7.29629L140.832 9.93917Z" fill="#51578F"/>
</g>
<defs>
<linearGradient id="paint0_linear_17_37254" x1="96.7386" y1="75.8405" x2="96.7386" y2="60.5711" gradientUnits="userSpaceOnUse">
<stop stop-color="#FF9F55"/>
<stop offset="1" stop-color="#FFD255"/>
</linearGradient>
<linearGradient id="paint1_linear_17_37254" x1="99.1771" y1="83.2069" x2="91.0564" y2="83.2069" gradientUnits="userSpaceOnUse">
<stop stop-color="#FF9F55"/>
<stop offset="1" stop-color="#FFD255"/>
</linearGradient>
<linearGradient id="paint2_linear_17_37254" x1="90.5552" y1="48.914" x2="82.8076" y2="48.914" gradientUnits="userSpaceOnUse">
<stop stop-color="#FF9F55"/>
<stop offset="1" stop-color="#FFD255"/>
</linearGradient>
<clipPath id="clip0_17_37254">
<rect width="183" height="154" fill="white"/>
</clipPath>
</defs>
</svg>
