<svg width="370" height="245" viewBox="0 0 370 245" fill="none" xmlns="http://www.w3.org/2000/svg">
<path opacity="0.2" d="M182.737 245C283.195 245 364.633 240.952 364.633 235.959C364.633 230.966 283.195 226.919 182.737 226.919C82.2783 226.919 0.840576 230.966 0.840576 235.959C0.840576 240.952 82.2783 245 182.737 245Z" fill="#8651F5"/>
<path opacity="0.3" d="M71.8403 130.637V122.758L65.6327 122.306C65.1154 119.917 64.1455 117.657 62.8522 115.655L66.926 110.941L61.365 105.387L56.6446 109.456C54.6401 108.164 52.3769 107.196 49.9844 106.679L49.5317 100.48H41.6429L41.1902 106.679C38.7977 107.196 36.5345 108.164 34.53 109.456L29.8096 105.387L24.2486 110.941L28.3223 115.655C27.0291 117.657 26.0592 119.917 25.5418 122.306L19.3342 122.758V130.637L25.5418 131.089C26.0592 133.478 27.0291 135.738 28.3223 137.74L24.2486 142.454L29.8096 148.007L34.53 143.939C36.5345 145.231 38.7977 146.199 41.1902 146.716L41.6429 152.915H49.5317L49.9844 146.716C52.3769 146.199 54.6401 145.231 56.6446 143.939L61.365 148.007L66.926 142.454L62.8522 137.74C64.1455 135.738 65.1154 133.478 65.6327 131.089L71.8403 130.637ZM59.6191 126.697C59.6191 134.447 53.3468 140.71 45.5873 140.71C37.8278 140.71 31.5555 134.447 31.5555 126.697C31.5555 118.948 37.8278 112.685 45.5873 112.685C53.3468 112.685 59.6191 118.948 59.6191 126.697Z" fill="white"/>
<path opacity="0.3" d="M43.906 93.441V90.4059L41.5135 90.2122C41.3195 89.2436 40.9315 88.4041 40.4142 87.6292L41.9661 85.8211L39.7676 83.6255L37.957 85.1753C37.1811 84.6587 36.2758 84.2713 35.3705 84.0775L35.1765 81.6882H32.0727L31.8787 84.0775C30.9088 84.2713 30.0682 84.6587 29.2922 85.1753L27.4817 83.6255L25.2831 85.8211L26.835 87.6292C26.3177 88.4041 25.9298 89.3082 25.7358 90.2122L23.3433 90.4059V93.5056L25.7358 93.6993C25.9298 94.6679 26.3177 95.5074 26.835 96.2823L25.2831 98.0904L27.4817 100.286L29.2922 98.7362C30.0682 99.2528 30.9735 99.6403 31.8787 99.834L32.0727 102.223H35.1765L35.3705 99.834C36.3405 99.6403 37.1811 99.2528 37.957 98.7362L39.7676 100.286L41.9661 98.0904L40.4142 96.2823C40.9315 95.5074 41.3195 94.6034 41.5135 93.6993L43.906 93.441ZM39.121 91.8912C39.121 94.9262 36.6638 97.3801 33.6246 97.3801C30.5855 97.3801 28.1283 94.9262 28.1283 91.8912C28.1283 88.8561 30.5855 86.4023 33.6246 86.4023C36.6638 86.4668 39.121 88.9207 39.121 91.8912Z" fill="white"/>
<path d="M55.5452 191.209C47.3977 184.622 41.578 175.452 38.0216 165.637C34.4651 155.821 33.0425 145.295 32.7192 134.899C32.6546 132.251 32.6546 129.474 34.0771 127.214C35.4997 125.019 38.8622 123.792 40.8667 125.535C42.2893 126.762 42.5479 128.893 42.6126 130.766C43.2592 142.583 43.4532 154.53 44.5525 166.347C45.4578 176.033 48.9496 185.203 56.0625 192.113" fill="url(#paint0_linear_17_37430)"/>
<g opacity="0.4">
<path d="M43.0652 173.579C42.9359 173.579 42.8066 173.515 42.7419 173.321C38.8622 159.244 37.1809 144.714 37.6982 130.12C37.6982 129.926 37.8922 129.797 38.0215 129.797C38.2155 129.797 38.3448 129.926 38.3448 130.12C37.8275 144.65 39.5088 159.114 43.3885 173.127C43.4532 173.321 43.3239 173.45 43.1299 173.515C43.1299 173.579 43.1299 173.579 43.0652 173.579Z" fill="#40AFBF"/>
</g>
<path d="M27.2229 151.624C26.7703 149.686 26.3176 147.749 26.7703 145.812C27.2229 143.875 28.7101 142.066 30.65 141.873C32.5252 141.679 34.2065 143.035 35.1117 144.649C36.017 146.264 36.2757 148.137 36.5343 150.009C38.5389 164.216 42.354 178.164 47.8503 191.467C46.8157 188.948 43.7119 186.624 42.0953 184.364C39.7675 181.135 37.6982 177.648 35.823 174.096C32.0079 166.928 29.1628 159.437 27.2229 151.624Z" fill="url(#paint1_linear_17_37430)"/>
<g opacity="0.5">
<path d="M41.7721 179.585C41.6428 179.585 41.5134 179.52 41.5134 179.391C36.1464 168.736 32.4607 157.436 30.5854 145.683C30.5854 145.489 30.6501 145.36 30.8441 145.295C31.0381 145.295 31.1674 145.36 31.2321 145.554C33.1073 157.242 36.7931 168.543 42.0954 179.068C42.1601 179.197 42.0954 179.391 41.9661 179.52C41.9014 179.585 41.8368 179.585 41.7721 179.585Z" fill="#40AFBF"/>
</g>
<path d="M31.4262 214.779C28.7103 210.065 28.8397 203.994 25.4125 199.797C22.6321 196.375 17.847 194.76 15.5838 190.95C11.7041 184.364 17.5237 175.581 14.6139 168.542C12.3507 162.989 5.30245 160.277 3.62122 154.53C2.52195 150.655 4.46184 146.199 8.08295 144.391C11.6394 142.583 16.4891 143.681 18.8816 146.91C21.8561 150.849 21.4681 157.113 25.6065 159.696C28.3224 161.439 32.1375 160.858 34.6593 162.86C37.7631 165.314 37.2458 170.092 38.6684 173.838C40.285 178.164 44.488 180.876 47.6565 184.17C52.4416 189.207 55.0927 196.31 54.7694 203.284C54.5108 208.773 51.8596 218.072 46.6866 221.042C41.6429 223.819 34.0127 219.105 31.4262 214.779Z" fill="url(#paint2_linear_17_37430)"/>
<path d="M23.1493 211.292C20.3688 209.354 16.295 209.548 14.0965 206.965C12.0919 204.64 12.5446 201.153 11.5746 198.312C10.6693 195.664 8.60014 193.533 6.66026 191.531C4.72038 189.53 2.58651 187.399 1.74589 184.686C0.905279 181.974 1.68123 178.552 4.26774 177.325C7.24222 175.904 10.7987 178.164 12.7386 180.812C14.6784 183.459 16.101 186.753 18.8169 188.625C21.7267 190.563 25.7358 190.692 28.1283 193.275C30.0682 195.341 30.2621 198.506 31.4907 201.089C33.0426 204.317 36.0818 206.578 38.8623 208.838C45.0699 213.875 48.8203 223.432 38.733 226.467C26.9643 230.148 29.6802 215.941 23.1493 211.292Z" fill="url(#paint3_linear_17_37430)"/>
<g opacity="0.5">
<path d="M39.0562 219.88C38.9915 219.88 38.8622 219.815 38.7976 219.751C27.9342 208.063 17.1355 195.987 6.59553 183.976C6.4662 183.847 6.4662 183.653 6.59553 183.524C6.72485 183.395 6.91884 183.395 7.04817 183.524C17.5235 195.6 28.3222 207.611 39.1855 219.299C39.3149 219.428 39.3149 219.622 39.1855 219.751C39.2502 219.88 39.1209 219.88 39.0562 219.88Z" fill="white"/>
<path d="M23.2138 202.574C23.0198 202.574 22.8905 202.445 22.8905 202.251L22.6318 194.825C22.6318 194.631 22.7612 194.502 22.9551 194.502C23.1491 194.502 23.2785 194.631 23.2785 194.825L23.5371 202.251C23.5371 202.38 23.4078 202.574 23.2138 202.574Z" fill="white"/>
<path d="M25.9945 205.609C25.8005 205.609 25.6711 205.48 25.6711 205.286V197.601C25.6711 197.408 25.8005 197.279 25.9945 197.279C26.1884 197.279 26.3178 197.408 26.3178 197.601V205.286C26.3178 205.48 26.1884 205.609 25.9945 205.609Z" fill="white"/>
<path d="M19.916 198.828C19.8514 198.828 19.8514 198.828 19.916 198.828L14.2904 197.924C14.0964 197.924 13.9671 197.731 14.0317 197.537C14.0317 197.343 14.2257 197.214 14.4197 197.279L19.9807 198.183C20.1747 198.183 20.304 198.376 20.2393 198.57C20.1747 198.699 20.0453 198.828 19.916 198.828Z" fill="white"/>
<path d="M12.4797 190.498C12.2857 190.498 12.1564 190.369 12.1564 190.175L12.0271 184.945C12.0271 184.751 12.1564 184.622 12.3504 184.622C12.5444 184.622 12.6737 184.751 12.6737 184.945L12.8031 190.175C12.8031 190.304 12.6737 190.498 12.4797 190.498Z" fill="white"/>
<path d="M35.0471 215.553H34.9825L27.9989 214.133C27.8049 214.068 27.7402 213.939 27.7402 213.745C27.8049 213.552 27.9342 213.487 28.1282 213.487L35.1118 214.908C35.3058 214.972 35.3704 215.101 35.3704 215.295C35.3058 215.424 35.1764 215.553 35.0471 215.553Z" fill="white"/>
</g>
<g opacity="0.4">
<path d="M45.5873 210.129C45.458 210.129 45.3933 210.065 45.3287 209.935L10.9928 149.88C10.9281 149.751 10.9281 149.557 11.1221 149.428C11.2514 149.363 11.4454 149.363 11.5747 149.557L45.9106 209.613C45.9753 209.742 45.9753 209.935 45.7813 210.065C45.7166 210.129 45.652 210.129 45.5873 210.129Z" fill="#40AFBF"/>
<path d="M33.8188 189.594H33.7541L20.7569 186.624C20.563 186.559 20.4983 186.43 20.4983 186.236C20.563 186.042 20.6923 185.978 20.8863 185.978L33.8835 188.884C34.0775 188.948 34.1421 189.078 34.1421 189.271C34.1421 189.465 34.0128 189.594 33.8188 189.594Z" fill="#40AFBF"/>
<path d="M29.0982 181.264C28.9042 181.264 28.7749 181.07 28.7749 180.941L30.0682 166.67C30.0682 166.476 30.2621 166.347 30.3915 166.347C30.5855 166.347 30.7148 166.541 30.7148 166.67L29.4215 180.941C29.4215 181.135 29.2275 181.264 29.0982 181.264Z" fill="#40AFBF"/>
<path d="M25.0245 174.096C24.8305 174.096 24.7012 173.902 24.7012 173.709L25.6711 164.733C25.6711 164.539 25.8651 164.41 26.0591 164.474C26.2531 164.474 26.3824 164.668 26.3177 164.862L25.3478 173.838C25.2831 173.967 25.1538 174.096 25.0245 174.096Z" fill="#40AFBF"/>
<path d="M16.2304 158.727H16.1658L9.82883 156.725C9.63484 156.66 9.57018 156.467 9.63484 156.338C9.69951 156.144 9.8935 156.079 10.0228 156.144L16.3598 158.146C16.5538 158.21 16.6184 158.404 16.5538 158.533C16.4891 158.662 16.3598 158.727 16.2304 158.727Z" fill="#40AFBF"/>
</g>
<path opacity="0.4" d="M304.109 140.839C301.846 140.839 299.97 142.712 299.97 144.972C299.97 147.232 301.846 149.105 304.109 149.105C306.372 149.105 308.247 147.232 308.247 144.972C308.247 142.648 306.372 140.839 304.109 140.839ZM304.109 147.749C302.557 147.749 301.264 146.458 301.264 144.908C301.264 143.358 302.557 142.066 304.109 142.066C305.661 142.066 306.954 143.358 306.954 144.908C306.954 146.458 305.661 147.749 304.109 147.749ZM312.968 151.882L311.157 150.074C310.834 149.751 310.316 149.622 309.928 149.751L309.347 149.17C310.252 148.007 310.834 146.587 310.834 144.972C310.834 141.356 307.859 138.386 304.238 138.386C300.617 138.386 297.643 141.356 297.643 144.972C297.643 148.589 300.617 151.559 304.238 151.559C305.855 151.559 307.277 150.978 308.441 150.074L309.023 150.655C308.894 151.107 309.023 151.559 309.347 151.882L311.157 153.69C311.416 153.948 311.739 154.078 312.062 154.078C312.386 154.078 312.709 153.948 312.968 153.69C313.42 153.238 313.42 152.399 312.968 151.882ZM298.807 144.908C298.807 142.002 301.199 139.613 304.109 139.613C307.019 139.613 309.411 142.002 309.411 144.908C309.411 147.814 307.019 150.203 304.109 150.203C301.199 150.268 298.807 147.878 298.807 144.908Z" fill="#8F50F2"/>
<path d="M280.442 203.93V204.769H339.479C340.643 204.769 341.549 203.865 341.549 202.703V199.926C341.549 198.764 340.643 197.86 339.479 197.86H280.442V198.699H281.024V203.865H280.442V203.93Z" fill="#FFD054"/>
<path d="M281.024 198.764H329.909C330.879 198.764 331.655 199.539 331.655 200.507V202.186C331.655 203.155 330.879 203.93 329.909 203.93H281.024V198.764Z" fill="white"/>
<path d="M276.627 213.487V214.326H346.01C347.174 214.326 348.079 213.422 348.079 212.26V206.836C348.079 205.673 347.174 204.769 346.01 204.769H276.627V205.609H277.209V213.487H276.627Z" fill="#FF647E"/>
<path d="M346.592 205.286H337.41C337.863 205.673 338.121 206.255 338.121 206.9V212.325C338.121 212.97 337.798 213.552 337.345 213.939H346.527C346.98 213.552 347.303 212.97 347.303 212.325V206.9C347.303 206.19 347.045 205.609 346.592 205.286Z" fill="#F35370"/>
<path d="M277.209 205.609H322.99C323.96 205.609 324.736 206.384 324.736 207.352V211.743C324.736 212.712 323.96 213.487 322.99 213.487H277.209V205.609Z" fill="white"/>
<path d="M278.567 235.055V235.959H351.959C353.188 235.959 354.158 234.991 354.158 233.764V227.177C354.158 225.95 353.188 224.981 351.959 224.981H278.567V225.886H279.149V235.055H278.567Z" fill="#BAB7F6"/>
<path d="M352.541 225.498H342.842C343.294 225.886 343.618 226.531 343.618 227.177V233.764C343.618 234.474 343.294 235.055 342.777 235.507H352.476C352.994 235.12 353.317 234.474 353.317 233.764V227.177C353.317 226.467 352.994 225.886 352.541 225.498Z" fill="#A39EE9"/>
<path d="M279.149 225.885H327.581C328.616 225.885 329.392 226.725 329.392 227.694V233.183C329.392 234.216 328.551 234.991 327.581 234.991H279.149V225.885Z" fill="white"/>
<path d="M337.427 202.919H339.82V199.755H337.427V202.919Z" fill="white"/>
<path d="M335.775 202.919H336.422V199.755H335.775V202.919Z" fill="white"/>
<path d="M272.683 224.142V224.982H342.066C343.23 224.982 344.135 224.077 344.135 222.915V216.458C344.135 215.295 343.23 214.391 342.066 214.391H272.683V215.231H273.265V224.142H272.683Z" fill="#E3E9FF"/>
<path d="M273.2 215.23H318.981C319.951 215.23 320.727 216.005 320.727 216.974V222.398C320.727 223.367 319.951 224.142 318.981 224.142H273.2V215.23Z" fill="white"/>
<path d="M333.017 222.623H342.134V217.521H333.017V222.623Z" fill="#BAB7F6"/>
<path d="M56.9032 89.3727L27.5463 231.31C27.029 233.699 28.9042 235.959 31.3614 235.959H122.406L56.9032 89.3727Z" fill="#7733D6"/>
<path d="M60.783 89.3727L31.3615 231.31C30.8442 233.699 32.7194 235.959 35.1766 235.959H126.222L60.783 89.3727Z" fill="url(#paint4_linear_17_37430)"/>
<path opacity="0.4" d="M103.202 184.493L102.167 182.103H41.5781L41.0608 184.493H103.202Z" fill="#381475"/>
<path opacity="0.4" d="M50.1135 140.71L49.6609 143.1H84.7081L83.6735 140.71H50.1135Z" fill="#381475"/>
<path d="M329.262 235.959H119.173C115.294 235.959 110.961 232.795 109.474 228.985L57.4204 93.441C55.9332 89.5664 57.3558 85.1753 61.2355 85.1753H271.26C275.14 85.1753 279.472 88.3395 280.959 92.1495L333.53 228.985C335.082 232.86 333.142 235.959 329.262 235.959Z" fill="url(#paint5_linear_17_37430)"/>
<path d="M332.366 235.959H122.342C118.462 235.959 114.13 232.795 112.642 228.985L60.007 92.1495C58.5198 88.2749 60.4597 85.1753 64.3394 85.1753H274.364C278.244 85.1753 282.576 88.3395 284.063 92.1495L336.634 228.985C338.186 232.86 336.246 235.959 332.366 235.959Z" fill="#361371"/>
<path d="M304.303 160.6C305.337 163.312 303.979 165.507 301.263 165.507C298.548 165.507 295.508 163.312 294.474 160.6C293.439 157.887 294.797 155.692 297.513 155.692C300.229 155.692 303.268 157.887 304.303 160.6Z" fill="#7733D6"/>
<path d="M315.166 227.694H120.402L99.2572 172.675L68.801 93.4409H263.565L282.705 143.293L315.166 227.694Z" fill="url(#paint6_linear_17_37430)"/>
<g opacity="0.2">
<path d="M171.485 136.642H93.9549L80.3757 101.255H157.906L171.485 136.642Z" fill="#D9B4F4"/>
<path d="M274.558 136.642H229.553L215.973 101.255H260.979L274.558 136.642Z" fill="#D9B4F4"/>
<path d="M221.728 136.642H179.31L165.73 101.255H208.085L221.728 136.642Z" fill="#D9B4F4"/>
<path d="M143.875 171.771H107.469L96.5415 143.358H132.947L143.875 171.771Z" fill="#D9B4F4"/>
<path d="M157.583 207.352H121.178L110.25 178.939H146.655L157.583 207.352Z" fill="#D9B4F4"/>
<path d="M228.841 207.223H164.89L140.318 143.358H204.27L228.841 207.223Z" fill="#D9B4F4"/>
<path d="M280.378 151.753H215.78L212.546 143.358H277.144L280.378 151.753Z" fill="#D9B4F4"/>
<path d="M286.132 166.67H221.47L218.237 158.275H282.899L286.132 166.67Z" fill="#D9B4F4"/>
<path d="M291.823 181.587H227.225L223.992 173.127H288.59L291.823 181.587Z" fill="#D9B4F4"/>
<path d="M301.716 207.223H237.053L229.682 188.044H294.345L301.716 207.223Z" fill="#D9B4F4"/>
</g>
<path opacity="0.3" d="M203.17 163.118C201.23 161.245 198.838 159.954 196.51 159.437C195.993 157.694 195.346 155.821 194.635 153.819C194.247 152.851 193.147 152.011 192.178 152.011H159.652C158.682 152.011 158.165 152.786 158.553 153.819C159.329 155.821 160.105 157.629 160.945 159.437C159.006 159.954 157.583 161.245 157.066 163.118C156.419 165.572 157.324 168.607 159.458 171.255L160.816 172.934C162.691 175.194 165.278 176.937 167.929 177.712C168.899 177.971 169.869 178.164 170.774 178.164C171.938 178.164 172.973 177.971 173.813 177.518C178.081 181.135 182.349 183.007 186.164 183.459L187.522 186.882H180.28C179.31 186.882 178.792 187.657 179.18 188.69L182.478 197.214H180.474C179.504 197.214 178.986 197.989 179.374 199.022C179.762 199.991 180.862 200.83 181.832 200.83H185.647H203.688H207.503C208.473 200.83 208.99 200.055 208.602 199.022C208.214 198.054 207.115 197.214 206.145 197.214H204.14L200.842 188.69C200.454 187.721 199.355 186.882 198.385 186.882H191.143L189.785 183.459C193.212 183.007 196.057 181.135 197.545 177.518C198.773 177.971 200.002 178.164 201.101 178.164C202.006 178.164 202.847 178.035 203.623 177.712C205.692 176.937 206.921 175.194 207.05 172.934L207.115 171.255C207.179 168.607 205.757 165.572 203.17 163.118ZM167.67 174.354C166.118 173.902 164.631 172.869 163.532 171.578L162.174 169.899C160.881 168.284 160.363 166.605 160.751 165.12C161.01 164.151 161.721 163.441 162.691 163.118C165.149 167.768 167.864 171.513 170.58 174.419C169.74 174.613 168.77 174.613 167.67 174.354ZM203.235 169.834L203.17 171.513C203.106 172.869 202.394 173.838 201.166 174.29C200.325 174.613 199.355 174.613 198.321 174.354C198.773 171.384 198.579 167.703 197.48 163.054C198.708 163.376 199.937 164.087 200.972 165.055C202.459 166.541 203.3 168.284 203.235 169.834Z" fill="white"/>
<path opacity="0.3" d="M275.349 203.677C277.556 201.01 276.175 196.233 272.266 193.007C268.357 189.781 263.399 189.328 261.192 191.995C258.985 194.661 260.366 199.439 264.275 202.664C268.184 205.89 273.142 206.344 275.349 203.677Z" fill="white"/>
<path d="M266.605 195.535L268.35 200.184C268.544 200.766 268.286 201.218 267.704 201.218C267.122 201.218 266.54 200.766 266.281 200.184L264.535 195.535C264.341 194.954 264.6 194.502 265.182 194.502C265.764 194.566 266.411 195.018 266.605 195.535ZM268.738 194.566C268.156 194.566 267.898 195.018 268.092 195.6L269.838 200.249C270.032 200.83 270.678 201.282 271.26 201.282C271.842 201.282 272.101 200.83 271.907 200.249L270.161 195.6C269.902 195.018 269.256 194.566 268.738 194.566Z" fill="white"/>
<path opacity="0.3" d="M256.194 197.86C257.358 200.895 255.87 203.413 252.767 203.413C249.727 203.413 246.236 200.959 245.072 197.86C243.908 194.825 245.395 192.306 248.499 192.306C251.538 192.306 254.965 194.825 256.194 197.86Z" fill="white"/>
<path d="M251.473 195.729C251.279 195.664 251.021 195.664 250.956 195.858L249.986 197.408L249.534 196.245C249.469 196.052 249.275 195.858 249.016 195.793C248.822 195.729 248.564 195.729 248.499 195.923L247.464 197.602C247.335 197.795 247.464 198.118 247.723 198.312L250.051 199.991C250.18 200.12 250.309 200.12 250.439 200.12C250.503 200.12 250.568 200.12 250.633 200.055C250.762 199.991 250.827 199.797 250.762 199.603L250.309 198.441L252.443 199.991C252.573 200.12 252.702 200.12 252.831 200.12C252.896 200.12 252.961 200.12 253.025 200.055C253.155 199.991 253.219 199.797 253.155 199.603L251.861 196.245C251.861 195.987 251.667 195.793 251.473 195.729Z" fill="white"/>
<path opacity="0.3" d="M280.313 197.86C281.477 200.895 284.969 203.413 288.008 203.413C291.047 203.413 292.599 200.959 291.435 197.86C290.271 194.825 286.779 192.306 283.74 192.306C280.701 192.306 279.149 194.825 280.313 197.86Z" fill="white"/>
<path d="M288.719 197.537L286.391 195.858C286.197 195.729 285.939 195.664 285.809 195.729C285.68 195.793 285.615 195.987 285.68 196.181L286.133 197.343L283.999 195.793C283.805 195.664 283.546 195.6 283.417 195.664C283.288 195.729 283.223 195.923 283.288 196.116L284.581 199.474C284.645 199.668 284.839 199.862 285.098 199.926C285.163 199.926 285.227 199.991 285.292 199.991C285.421 199.991 285.551 199.926 285.615 199.862L286.585 198.312L287.038 199.474C287.103 199.668 287.297 199.862 287.555 199.926C287.62 199.926 287.685 199.991 287.749 199.991C287.879 199.991 288.008 199.926 288.073 199.862L289.107 198.183C289.107 198.054 289.043 197.731 288.719 197.537Z" fill="white"/>
<path opacity="0.3" d="M119.432 153.367L118.333 150.461H118.915C119.561 150.461 119.885 149.945 119.626 149.299C119.367 148.653 118.656 148.137 118.009 148.137H113.612C112.966 148.137 112.642 148.653 112.901 149.299C113.16 149.945 113.871 150.461 114.518 150.461H115.1L116.199 153.367C113.483 154.078 112.254 156.79 113.548 160.019C114.97 163.764 119.238 166.864 122.988 166.864C126.739 166.864 128.679 163.828 127.192 160.019C125.963 156.79 122.73 154.078 119.432 153.367ZM114.065 157.242C114.259 155.757 115.229 154.659 116.781 154.207L117.427 154.013L116.005 150.397H117.427L118.85 154.013L119.626 154.207C121.501 154.594 123.312 155.757 124.67 157.242H114.065Z" fill="white"/>
<path opacity="0.3" d="M260.655 123.921L256.646 122.306C257.422 121.144 257.875 119.142 256.517 115.526C254.512 110.231 250.18 107.906 246.818 107.906C243.455 107.906 240.998 110.295 243.002 115.526C244.36 119.077 246.43 121.144 248.046 122.306L246.753 123.081C246.365 122.823 245.977 122.629 245.524 122.435L243.002 121.402C243.455 120.498 243.714 119.013 242.744 116.559C241.192 112.555 237.959 110.812 235.437 110.812C232.915 110.812 231.04 112.62 232.527 116.559C233.432 119.013 234.79 120.498 236.019 121.402L234.273 122.435C232.915 123.275 232.462 125.018 233.174 126.891C233.368 127.343 233.885 127.731 234.338 127.731H243.39C243.39 128.376 243.584 129.087 243.843 129.797C244.037 130.249 244.554 130.637 245.007 130.637H266.022C266.475 130.637 266.734 130.249 266.54 129.797C265.634 127.279 263.307 124.954 260.655 123.921ZM245.33 128.893C245.201 128.312 245.201 127.795 245.33 127.279C245.395 127.085 245.395 126.956 245.46 126.762C245.46 126.697 245.524 126.633 245.524 126.633C245.589 126.504 245.654 126.439 245.718 126.31C245.783 126.245 245.783 126.181 245.848 126.181C245.912 126.116 245.977 125.987 246.106 125.922C246.171 125.858 246.171 125.858 246.236 125.793C246.365 125.664 246.494 125.6 246.624 125.535C246.624 125.535 246.624 125.535 246.688 125.535L247.27 125.212L247.723 124.954L250.503 123.339C250.762 123.21 250.827 122.887 250.697 122.629C250.568 122.306 250.309 121.983 249.986 121.854C247.787 120.821 245.912 118.625 244.813 115.655C243.132 111.328 245.136 109.779 247.529 109.779C249.986 109.779 253.154 111.328 254.836 115.655C255.935 118.625 255.806 120.821 254.383 121.854C254.189 121.983 254.124 122.306 254.254 122.629C254.383 122.952 254.706 123.21 255.03 123.339L260.526 125.6C262.143 126.245 263.63 127.537 264.47 129.022H245.33V128.893Z" fill="white"/>
<path d="M88.8465 154.207C89.0405 154.659 88.7818 155.046 88.3292 155.046C87.8766 155.046 87.3593 154.659 87.1653 154.207C86.9713 153.755 87.2299 153.367 87.6826 153.367C88.1999 153.367 88.7172 153.755 88.8465 154.207Z" fill="#7733D6"/>
<path d="M93.2435 167.768C92.7908 167.768 92.2735 167.38 92.0796 166.928L88.8464 158.469C88.6524 158.017 88.9111 157.629 89.3637 157.629C89.8164 157.629 90.3337 158.017 90.5276 158.469L93.7608 166.928C93.9548 167.38 93.6961 167.768 93.2435 167.768Z" fill="#7733D6"/>
<path d="M32.7853 95.2202C29.8268 151.911 34.0797 230.946 34.0797 230.946L29.5494 236.024H47.3932L47.2083 106.577C47.2083 105.838 47.8555 105.284 48.5951 105.377C49.1499 105.469 49.5197 105.838 49.6121 106.3L79.5675 236.024H100L91.4942 230.946L63.2954 95.7742L32.7853 95.2202Z" fill="#E119CD"/>
<path d="M33.1551 44.8078C34.4495 43.9768 38.0553 43.3305 41.8459 42.9612C45.6366 42.5918 59.4123 42.9612 62.4633 43.5152C66.254 44.2538 69.0276 45.0848 70.7843 45.8234C73.373 46.9314 75.2221 49.1473 75.7768 51.9172L78.1807 62.7199C74.8523 66.3208 71.8013 70.4756 70.1371 74.9998L68.1031 63.3662L64.5898 102.145L34.1721 95.5895L30.1966 99.929C30.1966 99.929 13.0925 75.7384 13 73.8918C13 72.1376 29.0871 47.67 33.1551 44.8078ZM33.4325 87.0028L35.5589 61.5196L25.5738 74.3535L33.4325 87.0028Z" fill="url(#paint7_linear_17_37430)"/>
<g opacity="0.2">
<path d="M61.9085 99.0979C62.0934 99.0979 62.1859 99.0055 62.2783 98.8209C62.2783 98.6362 62.1859 98.4516 62.001 98.4516L38.2401 93.9274C38.0551 93.9274 37.8702 94.0197 37.8702 94.2043C37.8702 94.389 37.9627 94.5737 38.1476 94.5737L61.9085 99.0979C61.816 99.0979 61.816 99.0979 61.9085 99.0979Z" fill="#323B72"/>
</g>
<path d="M38.9797 91.0653C38.9797 91.0653 34.2646 88.2954 33.0627 89.311C31.8607 90.3266 32.0456 91.9886 31.9532 92.5426C31.8607 93.0965 29.9192 93.7428 29.7342 95.5895C29.5493 97.4361 27.9776 98.4517 28.0701 99.929C28.1625 101.406 30.6588 102.145 31.306 102.33C31.9532 102.514 32.9702 99.2827 32.9702 99.2827C32.9702 99.2827 34.6344 99.4673 34.9117 99.0057C35.2816 98.544 36.391 95.8664 36.391 95.8664C36.391 95.8664 38.425 95.1278 38.7024 94.7585C38.9797 94.3892 39.2571 93.2812 39.2571 93.2812L38.0552 92.5426L38.9797 91.0653Z" fill="#F5BA9A"/>
<path d="M49.8895 40.0066C49.8895 40.0066 48.4102 39.6373 47.6706 40.4682C46.931 41.2069 46.6536 48.8703 47.8555 49.055C48.965 49.2396 52.6631 45.0848 52.6631 45.0848C52.6631 45.0848 56.3614 49.7013 57.5633 49.2396C58.6727 48.778 57.1935 40.1913 54.7896 40.1913C52.3858 40.0989 49.8895 40.0066 49.8895 40.0066Z" fill="#481C95"/>
<path d="M65.2371 20.8942C65.2371 20.8942 65.1446 24.7721 63.6653 26.5264L63.388 20.0632L65.2371 20.8942Z" fill="url(#paint8_linear_17_37430)"/>
<path d="M52.6632 44.4384C51.6462 44.3461 50.7217 44.1615 50.167 43.2382C49.15 41.4839 49.7047 39.268 48.5952 37.606C48.0405 36.775 47.3933 36.1287 46.8385 35.3901C45.914 34.2821 45.5442 32.8048 45.1744 31.4199C43.6026 25.0491 46.0064 11.7535 55.4368 13.0461C64.8672 14.3387 64.22 24.8644 63.2955 29.6656C62.9257 31.5122 62.4634 33.4511 61.4464 35.2054C60.9841 36.0364 60.337 36.8674 59.5049 37.4213C58.5803 38.0676 57.5633 38.16 56.6388 38.714C55.3444 39.4526 55.6218 41.2069 55.5293 42.4072C55.252 43.8845 54.2349 44.6231 52.6632 44.4384Z" fill="#F5BA9A"/>
<path d="M44.4347 25.049C45.6366 25.603 46.1913 28.3729 46.1913 28.3729L47.3933 28.0036L46.6536 22.9254C46.6536 22.9254 49.8895 22.0944 49.5197 17.3856C49.5197 17.3856 51.7386 21.4481 57.0085 20.9865L55.5293 18.2165C55.5293 18.2165 71.0617 30.2195 73.373 20.0632L64.3125 17.0162C64.3125 17.0162 70.7843 18.7705 73.373 13.9693L64.4049 12.769L69.7673 11.3841C69.7673 11.3841 48.3178 5.84427 47.5781 11.7534C47.5781 11.7534 45.5441 9.9068 43.1403 12.5844C41.1987 14.708 43.3252 24.6797 43.3252 24.6797L44.4347 25.049Z" fill="#481C95"/>
<path d="M46.0987 27.6341C45.9138 29.1114 44.6194 30.2194 43.1402 30.0347C41.6609 29.85 40.5515 28.5574 40.7364 27.0801C40.9213 25.6029 42.2157 24.4949 43.6949 24.6796C45.1742 24.8642 46.2836 26.1568 46.0987 27.6341Z" fill="#F5BA9A"/>
<path d="M66.9012 29.4808C66.7162 30.9581 65.4219 32.066 63.9426 31.8814C62.4633 31.6967 61.3539 30.4041 61.5388 28.9268C61.7237 27.4495 63.0181 26.3416 64.4974 26.5262C65.9766 26.6186 66.9936 28.0035 66.9012 29.4808Z" fill="#F5BA9A"/>
<path d="M56.916 31.2351C57.0085 31.2351 57.1934 31.2351 57.2858 31.1428C57.3783 31.0505 57.5632 30.8658 57.5632 30.5888C57.5632 29.9425 57.1934 29.2038 56.8235 28.6499C56.7311 28.3729 56.5462 28.1882 56.5462 28.0036C56.4537 27.7266 56.5462 27.3572 56.5462 27.0803C56.5462 26.8956 56.4538 26.7109 56.2688 26.7109C56.0839 26.7109 55.899 26.8033 55.899 26.9879C55.8065 27.3573 55.8065 27.8189 55.899 28.1882C55.9915 28.3729 56.0839 28.6499 56.2688 28.9269C56.5462 29.3885 56.8236 30.0348 56.916 30.5888C56.7311 30.5888 56.4538 30.4041 56.2688 30.3118C56.0839 30.2195 55.8066 30.1272 55.6216 30.0348C55.4367 29.9425 55.2518 30.0348 55.1594 30.2195C55.0669 30.4042 55.1594 30.5888 55.3443 30.6811C55.5292 30.7735 55.7141 30.8658 55.899 30.9581C56.2688 31.1428 56.6387 31.2351 56.916 31.2351Z" fill="#F08F78"/>
<path d="M55.4368 33.174C55.6217 33.174 55.8066 33.174 56.084 33.0817C56.2689 33.0817 56.3613 32.897 56.3613 32.7124C56.3613 32.5277 56.1765 32.4354 55.9915 32.4354C55.2519 32.5277 54.5123 32.4354 53.8651 32.0661C53.2179 31.6967 52.7556 31.1428 52.4783 30.4041C52.3858 30.2194 52.2009 30.1271 52.016 30.2194C51.8311 30.3118 51.7386 30.4964 51.8311 30.6811C52.2009 31.5121 52.7556 32.2507 53.4953 32.62C54.05 32.9894 54.6971 33.174 55.4368 33.174Z" fill="#F08F78"/>
<path d="M63.0181 30.9582C63.203 30.9582 63.2955 30.8659 63.3879 30.6812L63.9426 27.6343C63.9426 27.4497 63.8502 27.265 63.6653 27.265C63.4804 27.265 63.2954 27.3573 63.2954 27.542L62.7407 30.5889C62.6483 30.7736 62.8332 30.9582 63.0181 30.9582Z" fill="#F08F78"/>
<path d="M63.4805 29.2039H63.573C64.0353 29.1116 64.4975 29.0193 64.9598 29.0193C65.1447 29.0193 65.3296 28.8346 65.3296 28.65C65.3296 28.4653 65.1447 28.2806 64.9598 28.2806C64.4051 28.2806 63.9428 28.373 63.3881 28.4653C63.2032 28.5576 63.1107 28.7423 63.1107 28.9269C63.2032 29.1116 63.2956 29.2039 63.4805 29.2039Z" fill="#F08F78"/>
<path d="M44.8044 28.4653C44.8968 28.4653 45.0818 28.373 45.0818 28.2806C45.4516 27.542 45.1742 26.6187 44.4346 26.157C43.7874 25.6954 42.7704 25.88 42.2156 26.434C42.1232 26.6187 42.1232 26.8034 42.2156 26.8957C42.4006 26.988 42.5855 26.988 42.6779 26.8957C42.9553 26.5264 43.6025 26.434 43.9723 26.711C44.3421 26.988 44.527 27.542 44.3421 28.0036C44.2496 28.1883 44.3421 28.373 44.527 28.4653C44.7119 28.373 44.7119 28.4653 44.8044 28.4653Z" fill="#F08F78"/>
<path d="M53.5877 39.1756C53.865 39.1756 54.2348 39.1756 54.5122 39.0832C54.6971 39.0832 54.8821 38.8986 54.7896 38.7139C54.7896 38.5293 54.6047 38.3446 54.4198 38.4369C53.033 38.6216 51.5537 38.3446 50.2593 37.7906C50.0744 37.6983 49.8895 37.7906 49.797 37.9753C49.7046 38.1599 49.797 38.3446 49.982 38.4369C51.0914 38.9909 52.3858 39.1756 53.5877 39.1756Z" fill="#F08F78"/>
<path d="M55.4367 23.2025C55.5291 23.2025 55.6216 23.2025 55.6216 23.1101C55.8065 23.0178 55.8065 22.7408 55.6216 22.6485C55.0668 22.0022 54.1423 21.5405 53.2178 21.5405C52.2932 21.5405 51.4611 21.9099 50.8139 22.5562C50.7215 22.7408 50.7215 22.9255 50.8139 23.0178C50.9988 23.1101 51.1837 23.1101 51.2762 23.0178C51.7385 22.4638 52.3856 22.1868 53.1253 22.1868C53.8649 22.1868 54.5121 22.5562 54.9744 23.1101C55.2517 23.2025 55.3442 23.2025 55.4367 23.2025Z" fill="#30386F"/>
<path d="M62.0012 24.5873C62.0936 24.5873 62.0936 24.5873 62.1861 24.5873C62.371 24.4949 62.4634 24.3103 62.3709 24.1256C62.0011 23.387 61.2615 22.7407 60.4294 22.556C59.5973 22.3713 58.6728 22.556 57.9331 23.0176C57.7482 23.11 57.7482 23.387 57.8407 23.4793C57.9331 23.664 58.2105 23.6639 58.303 23.5716C58.8577 23.2023 59.5973 23.0176 60.2445 23.2023C60.8917 23.387 61.4464 23.8486 61.7238 24.4026C61.7238 24.4949 61.8163 24.5873 62.0012 24.5873Z" fill="#30386F"/>
<path d="M54.9746 26.3417C54.8822 26.8956 54.4199 27.265 53.9576 27.1726C53.4029 27.0803 53.0331 26.6186 53.1255 26.157C53.218 25.603 53.6803 25.2337 54.1425 25.326C54.6048 25.326 54.9746 25.7877 54.9746 26.3417Z" fill="url(#paint9_linear_17_37430)"/>
<path d="M59.967 27.1726C59.8746 27.7266 59.4123 28.0959 58.9501 28.0036C58.3953 27.9112 58.0255 27.4496 58.1179 26.9879C58.2104 26.434 58.6727 26.0646 59.1349 26.157C59.6897 26.157 60.0595 26.6186 59.967 27.1726Z" fill="url(#paint10_linear_17_37430)"/>
<path d="M70.2297 56.626L87.7036 60.4116C88.9055 60.6886 89.6452 61.8889 89.3678 62.9968L83.4507 87.372C83.1733 88.48 82.0639 89.2186 80.862 88.9417L64.2201 85.2484C63.1106 84.9714 62.371 83.8635 62.5559 82.6632L67.6409 58.1033C67.9183 57.18 69.0277 56.4414 70.2297 56.626Z" fill="#481C95"/>
<path d="M83.4507 73.5225C83.4507 73.5225 88.2583 74.0764 88.6281 75.3691C88.9055 76.6617 87.9809 77.7697 87.7036 78.2313C87.4262 78.693 88.5357 80.1702 87.7036 81.5552C86.8715 82.9402 87.4262 84.4174 86.5941 85.5254C85.762 86.6334 83.6356 85.7101 83.0808 85.5254C82.5261 85.3407 83.5431 82.4785 83.5431 82.4785C83.5431 82.4785 82.2488 81.7399 82.2488 81.2782C82.2488 80.8166 82.8959 78.3236 82.8959 78.3236C82.8959 78.3236 81.7865 76.754 81.7865 76.3847C81.7865 76.0154 82.1563 75.0921 82.1563 75.0921L83.3582 75.1844L83.4507 73.5225Z" fill="#F5BA9A"/>
<path opacity="0.3" d="M232.139 16.7251C231.169 16.7251 230.264 16.8542 229.423 16.9834C227.936 7.36162 219.659 0 209.636 0C198.579 0 189.656 8.97601 189.656 19.9539C189.656 20.7288 189.72 21.4391 189.785 22.214C189.009 22.0849 188.298 22.0203 187.457 22.0203C180.732 22.0203 175.236 27.5092 175.236 34.2251C175.236 40.941 180.732 46.4299 187.457 46.4299H232.139C240.351 46.4299 247.011 39.7786 247.011 31.5775C247.011 23.3764 240.351 16.7251 232.139 16.7251Z" fill="white"/>
<path opacity="0.3" d="M326.87 26.4114C326.418 26.4114 325.965 26.476 325.512 26.5406C324.801 21.762 320.663 18.1458 315.748 18.1458C310.252 18.1458 305.855 22.6015 305.855 28.0258C305.855 28.4133 305.855 28.8007 305.919 29.1236C305.532 29.059 305.144 28.9945 304.756 28.9945C301.393 28.9945 298.677 31.7066 298.677 35.0646C298.677 38.4225 301.393 41.1347 304.756 41.1347H326.935C331.009 41.1347 334.306 37.8413 334.306 33.7731C334.306 29.7048 330.944 26.4114 326.87 26.4114Z" fill="white"/>
<g opacity="0.3">
<path d="M211.124 79.1052C210.93 79.1052 210.8 78.976 210.8 78.7823V77.4908C210.8 77.2971 210.93 77.1679 211.124 77.1679C211.318 77.1679 211.447 77.2971 211.447 77.4908V78.7823C211.447 78.976 211.318 79.1052 211.124 79.1052ZM211.124 74.5849C210.93 74.5849 210.8 74.4557 210.8 74.262V72.9705C210.8 72.7768 210.93 72.6476 211.124 72.6476C211.318 72.6476 211.447 72.7768 211.447 72.9705V74.262C211.447 74.4557 211.318 74.5849 211.124 74.5849ZM211.124 70.0646C210.93 70.0646 210.8 69.9354 210.8 69.7417V68.4502C210.8 68.2565 210.93 68.1273 211.124 68.1273C211.318 68.1273 211.447 68.2565 211.447 68.4502V69.7417C211.447 69.9354 211.318 70.0646 211.124 70.0646ZM211.124 65.5443C210.93 65.5443 210.8 65.4151 210.8 65.2214V63.9299C210.8 63.7362 210.93 63.607 211.124 63.607C211.318 63.607 211.447 63.7362 211.447 63.9299V65.2214C211.447 65.4151 211.318 65.5443 211.124 65.5443ZM211.124 61.024C210.93 61.024 210.8 60.8949 210.8 60.7011V59.4096C210.8 59.2159 210.93 59.0867 211.124 59.0867C211.318 59.0867 211.447 59.2159 211.447 59.4096V60.7011C211.447 60.8949 211.318 61.024 211.124 61.024ZM211.124 56.5037C210.93 56.5037 210.8 56.3746 210.8 56.1808V54.8893C210.8 54.6956 210.93 54.5664 211.124 54.5664C211.318 54.5664 211.447 54.6956 211.447 54.8893V56.1808C211.447 56.3746 211.318 56.5037 211.124 56.5037ZM211.124 51.9834C210.93 51.9834 210.8 51.8543 210.8 51.6605V50.369C210.8 50.1753 210.93 50.0461 211.124 50.0461C211.318 50.0461 211.447 50.1753 211.447 50.369V51.6605C211.447 51.8543 211.318 51.9834 211.124 51.9834Z" fill="white"/>
</g>
<path d="M239.657 190.109H282.141V216.133H239.657V190.109Z" fill="url(#paint11_linear_17_37430)"/>
<path d="M261.19 177L302.315 190.109L261.19 203.218L220 190.109L261.19 177Z" fill="url(#paint12_linear_17_37430)"/>
<path d="M288.219 206.059C288.607 206.059 288.93 205.736 288.93 205.349V194.565C288.93 194.242 288.736 193.983 288.413 193.919L261.384 186.622C260.996 186.493 260.608 186.751 260.543 187.138C260.414 187.526 260.673 187.913 261.061 187.978L287.572 195.146V205.349C287.508 205.736 287.831 206.059 288.219 206.059Z" fill="url(#paint13_linear_17_37430)"/>
<path d="M286.603 212.646H289.771V205.672C289.771 204.832 289.06 204.122 288.219 204.122C287.378 204.122 286.667 204.832 286.667 205.672V212.646H286.603Z" fill="url(#paint14_linear_17_37430)"/>
<g opacity="0.3">
<path d="M291.693 36.0332H290.4C290.206 36.0332 290.077 35.9041 290.077 35.7103C290.077 35.5166 290.206 35.3875 290.4 35.3875H291.693C291.887 35.3875 292.017 35.5166 292.017 35.7103C292.017 35.8395 291.887 36.0332 291.693 36.0332ZM287.167 36.0332H285.874C285.68 36.0332 285.55 35.9041 285.55 35.7103C285.55 35.5166 285.68 35.3875 285.874 35.3875H287.167C287.361 35.3875 287.49 35.5166 287.49 35.7103C287.49 35.8395 287.361 36.0332 287.167 36.0332ZM282.641 36.0332H281.347C281.153 36.0332 281.024 35.9041 281.024 35.7103C281.024 35.5166 281.153 35.3875 281.347 35.3875H282.641C282.835 35.3875 282.964 35.5166 282.964 35.7103C282.964 35.8395 282.835 36.0332 282.641 36.0332ZM278.114 36.0332H276.821C276.627 36.0332 276.498 35.9041 276.498 35.7103C276.498 35.5166 276.627 35.3875 276.821 35.3875H278.114C278.308 35.3875 278.438 35.5166 278.438 35.7103C278.438 35.8395 278.308 36.0332 278.114 36.0332ZM273.588 36.0332H272.295C272.101 36.0332 271.971 35.9041 271.971 35.7103C271.971 35.5166 272.101 35.3875 272.295 35.3875H273.588C273.782 35.3875 273.911 35.5166 273.911 35.7103C273.911 35.8395 273.782 36.0332 273.588 36.0332ZM269.061 36.0332H267.768C267.574 36.0332 267.445 35.9041 267.445 35.7103C267.445 35.5166 267.574 35.3875 267.768 35.3875H269.061C269.255 35.3875 269.385 35.5166 269.385 35.7103C269.385 35.8395 269.255 36.0332 269.061 36.0332ZM264.535 36.0332H263.242C263.048 36.0332 262.919 35.9041 262.919 35.7103C262.919 35.5166 263.048 35.3875 263.242 35.3875H264.535C264.729 35.3875 264.858 35.5166 264.858 35.7103C264.858 35.8395 264.729 36.0332 264.535 36.0332ZM260.009 36.0332H258.715C258.521 36.0332 258.392 35.9041 258.392 35.7103C258.392 35.5166 258.521 35.3875 258.715 35.3875H260.009C260.203 35.3875 260.332 35.5166 260.332 35.7103C260.332 35.8395 260.203 36.0332 260.009 36.0332ZM255.482 36.0332H254.189C253.995 36.0332 253.866 35.9041 253.866 35.7103C253.866 35.5166 253.995 35.3875 254.189 35.3875H255.482C255.676 35.3875 255.806 35.5166 255.806 35.7103C255.806 35.8395 255.676 36.0332 255.482 36.0332Z" fill="white"/>
</g>
<path d="M263.824 226.725H106.112V235.959H263.824V226.725Z" fill="url(#paint15_linear_17_37430)"/>
<path d="M263.824 217.426H106.112V226.661H263.824V217.426Z" fill="#FFF29F"/>
<path d="M263.824 208.192H106.112V217.426H263.824V208.192Z" fill="url(#paint16_linear_17_37430)"/>
<path d="M263.824 208.192C261.237 208.192 259.168 210.258 259.168 212.841C259.168 215.424 261.237 217.491 263.824 217.491C261.237 217.491 259.168 219.557 259.168 222.14C259.168 224.723 261.237 226.79 263.824 226.79C261.237 226.79 259.168 228.856 259.168 231.439C259.168 234.022 261.237 236.089 263.824 236.089L301.264 222.205L263.824 208.192Z" fill="white"/>
<path d="M294.474 224.594C298.483 223.109 301.264 222.076 301.264 222.076L294.474 219.557V224.594Z" fill="url(#paint17_linear_17_37430)"/>
<path d="M106.111 208.192H99.5159V235.959H106.111V208.192Z" fill="white"/>
<path d="M83.027 235.959H99.5807V208.192H83.027C75.3321 208.192 69.1245 214.391 69.1245 222.076C69.0599 229.76 75.3321 235.959 83.027 235.959Z" fill="url(#paint18_linear_17_37430)"/>
<path d="M121.437 49.2066L145.815 25.701L120.855 42.8782L121.437 49.2066Z" fill="#DEC3F7"/>
<path d="M118.462 41.2638L145.814 25.701L110.638 35.9686L118.462 41.2638Z" fill="white"/>
<path d="M120.855 42.8782L129.52 48.69L145.815 25.701L120.855 42.8782Z" fill="white"/>
<path d="M118.462 41.2638L121.437 49.2066L120.855 42.8782L145.814 25.701L118.462 41.2638Z" fill="#E6D1F9"/>
<g opacity="0.3">
<path d="M9.11744 131.799C9.05278 131.799 8.92345 131.734 8.85879 131.67C8.60014 131.347 8.27683 131.024 8.01818 130.701C7.88885 130.572 7.88885 130.378 8.08284 130.249C8.21216 130.12 8.40615 130.12 8.53548 130.314C8.79413 130.637 9.05278 130.959 9.37609 131.282C9.50542 131.411 9.50542 131.605 9.37609 131.734C9.31143 131.799 9.24677 131.799 9.11744 131.799ZM6.33694 128.312C6.20762 128.312 6.14296 128.247 6.07829 128.183C5.81964 127.795 5.56099 127.472 5.367 127.085C5.30234 126.956 5.30234 126.762 5.49633 126.633C5.62566 126.568 5.81964 126.568 5.94897 126.762C6.20762 127.15 6.40161 127.472 6.66026 127.86C6.78958 127.989 6.72492 128.183 6.5956 128.312C6.46627 128.247 6.40161 128.312 6.33694 128.312ZM4.00909 124.373C3.87976 124.373 3.75044 124.308 3.75044 124.179C3.55645 123.792 3.36246 123.404 3.16847 123.017C3.10381 122.823 3.16847 122.694 3.2978 122.565C3.42712 122.5 3.62111 122.565 3.75044 122.694C3.94442 123.081 4.13841 123.469 4.3324 123.856C4.39706 123.985 4.3324 124.179 4.20308 124.308C4.13841 124.373 4.07375 124.373 4.00909 124.373ZM2.26319 120.24C2.13387 120.24 2.00454 120.175 1.93988 120.046C1.81056 119.659 1.68123 119.207 1.5519 118.819C1.48724 118.626 1.61657 118.496 1.74589 118.432C1.93988 118.367 2.06921 118.496 2.13387 118.626C2.26319 119.013 2.39252 119.465 2.52185 119.852C2.58651 120.046 2.52185 120.175 2.32786 120.24C2.32786 120.24 2.32786 120.24 2.26319 120.24ZM1.0346 115.913C0.905278 115.913 0.775952 115.784 0.71129 115.655C0.646627 115.203 0.517302 114.816 0.452639 114.364C0.452639 114.17 0.517302 114.041 0.71129 113.976C0.905278 113.976 1.0346 114.041 1.09927 114.234C1.16393 114.686 1.22859 115.074 1.35792 115.461C1.42258 115.655 1.29325 115.784 1.09927 115.849C1.09927 115.913 1.0346 115.913 1.0346 115.913ZM0.387976 111.458C0.193988 111.458 0.0646627 111.328 0.0646627 111.135C0 110.683 0 110.295 0 109.843C0 109.65 0.129325 109.52 0.323314 109.52C0.517302 109.52 0.646627 109.65 0.646627 109.843C0.646627 110.295 0.71129 110.683 0.71129 111.135C0.71129 111.264 0.581964 111.393 0.387976 111.458ZM0.323314 106.937C0.129325 106.937 0 106.744 0 106.614C0 106.162 0.0646627 105.775 0.129325 105.323C0.129325 105.129 0.323314 105 0.452639 105.065C0.646627 105.065 0.775952 105.258 0.775952 105.388C0.71129 105.84 0.71129 106.227 0.646627 106.679C0.646627 106.808 0.517302 106.937 0.323314 106.937ZM0.905278 102.417H0.840615C0.646627 102.352 0.581964 102.223 0.581964 102.03V101.9C0.646627 101.513 0.775952 101.126 0.840615 100.738C0.905278 100.544 1.0346 100.48 1.22859 100.48C1.42258 100.544 1.48724 100.673 1.48724 100.867C1.42258 101.255 1.29325 101.642 1.22859 102.03V102.159C1.22859 102.352 1.09927 102.417 0.905278 102.417ZM2.13387 98.0905C2.06921 98.0905 2.06921 98.0905 2.00454 98.0905C1.81056 98.0259 1.74589 97.8322 1.81056 97.703C1.93988 97.3156 2.13387 96.8635 2.26319 96.4761C2.32786 96.2823 2.52185 96.2178 2.65117 96.2823C2.84516 96.3469 2.90982 96.5406 2.84516 96.6698C2.71583 97.0573 2.52185 97.4447 2.39252 97.8967C2.39252 97.9613 2.26319 98.0905 2.13387 98.0905ZM3.94442 93.9576C3.87976 93.9576 3.8151 93.9576 3.8151 93.893C3.68577 93.8285 3.62111 93.6347 3.68577 93.441C3.87976 93.0536 4.07375 92.6661 4.3324 92.2787C4.39706 92.1495 4.59105 92.0849 4.78504 92.1495C4.91437 92.2141 4.97903 92.4078 4.91437 92.6015C4.72038 92.989 4.52639 93.3764 4.3324 93.6993C4.13841 93.8931 4.00909 93.9576 3.94442 93.9576ZM6.20762 90.0831C6.14296 90.0831 6.07829 90.0831 6.01363 90.0185C5.88431 89.8894 5.81964 89.6956 5.94897 89.5665C6.20762 89.179 6.46627 88.8561 6.72492 88.5333C6.85425 88.4041 7.04823 88.3395 7.17756 88.4687C7.30689 88.5978 7.37155 88.7916 7.24222 88.9207C6.98357 89.2436 6.72492 89.6311 6.46627 89.9539C6.46627 90.0185 6.33695 90.0831 6.20762 90.0831ZM9.05278 86.5314C8.98812 86.5314 8.92345 86.5314 8.85879 86.4668C8.72946 86.3377 8.72946 86.144 8.85879 86.0148C9.1821 85.6919 9.44075 85.3691 9.76407 85.0462C9.89339 84.917 10.0874 84.917 10.2167 85.0462C10.346 85.1753 10.346 85.3691 10.2167 85.4982C9.89339 85.8211 9.63474 86.144 9.31143 86.4023C9.24677 86.4668 9.11744 86.5314 9.05278 86.5314ZM12.2859 83.3672C12.2213 83.3672 12.0919 83.3026 12.0273 83.2381C11.8979 83.1089 11.8979 82.9152 12.0919 82.786C12.4152 82.5277 12.7386 82.2049 13.1265 81.9466C13.2559 81.8174 13.4498 81.882 13.5792 82.0111C13.7085 82.1403 13.6438 82.334 13.5145 82.4632C13.1912 82.7215 12.8679 82.9798 12.5446 83.3026C12.4152 83.3672 12.3506 83.3672 12.2859 83.3672ZM15.907 80.655C15.7777 80.655 15.713 80.5905 15.6484 80.5259C15.5837 80.3967 15.5837 80.203 15.7777 80.0739C16.1657 79.8156 16.489 79.6218 16.877 79.3635C17.0063 79.299 17.2003 79.2989 17.3296 79.4927C17.3943 79.6218 17.3943 79.8156 17.2003 79.9447C16.8123 80.1384 16.489 80.3967 16.101 80.5905C16.0364 80.655 15.9717 80.655 15.907 80.655ZM19.9161 78.524C19.7868 78.524 19.6575 78.4595 19.5928 78.3303C19.5281 78.1366 19.5928 78.0074 19.7221 77.8783L19.9161 77.8137C20.2394 77.6846 20.5627 77.4908 20.9507 77.3617C21.1447 77.2971 21.274 77.3617 21.4034 77.5554C21.468 77.7491 21.4034 77.8783 21.2094 78.0074C20.8861 78.1366 20.5627 78.2657 20.2394 78.4595L20.0454 78.524C19.9808 78.524 19.9161 78.524 19.9161 78.524ZM24.1192 76.9096C23.9899 76.9096 23.8605 76.8451 23.7959 76.7159C23.7312 76.5222 23.8605 76.393 23.9899 76.3285C24.3778 76.1993 24.8305 76.0702 25.2185 75.941C25.4124 75.8764 25.5418 76.0056 25.6064 76.1347C25.6711 76.3285 25.5418 76.4576 25.4124 76.5222C25.0245 76.6513 24.5718 76.7805 24.1839 76.9096H24.1192ZM28.5163 75.7473C28.3869 75.7473 28.2576 75.6181 28.1929 75.489C28.1283 75.2953 28.2576 75.1661 28.4516 75.1015C28.9042 75.037 29.2922 74.9078 29.7448 74.8432C29.9388 74.7787 30.0682 74.9078 30.1328 75.1015C30.1328 75.2953 30.0682 75.4244 29.8742 75.489C29.4215 75.5536 29.0336 75.6181 28.5809 75.7473C28.5163 75.7473 28.5163 75.7473 28.5163 75.7473ZM32.978 74.9724C32.8487 74.9724 32.6547 74.8432 32.6547 74.7141C32.6547 74.5203 32.784 74.3912 32.9133 74.3266C33.366 74.262 33.7539 74.1975 34.2066 74.1975C34.4006 74.1975 34.5299 74.3266 34.5945 74.4558C34.5945 74.6495 34.4652 74.7787 34.3359 74.8432C33.8833 74.9078 33.4306 74.9078 32.978 74.9724ZM37.4397 74.5204C37.2457 74.5204 37.1164 74.3912 37.1164 74.1975C37.1164 74.0037 37.2457 73.8746 37.4397 73.8746C37.8923 73.81 38.2803 73.81 38.733 73.81C38.9269 73.81 39.0563 73.9392 39.0563 74.1329C39.0563 74.3266 38.9269 74.4558 38.733 74.4558C38.345 74.4558 37.8923 74.5204 37.4397 74.5204ZM41.9661 74.262C41.7721 74.262 41.6428 74.1329 41.6428 73.9392C41.6428 73.7454 41.7721 73.6163 41.9661 73.6163L43.2593 73.5517C43.4533 73.5517 43.5827 73.6809 43.5827 73.8746C43.5827 74.0683 43.4533 74.1975 43.2593 74.1975L41.9661 74.262ZM46.4925 74.0683C46.2985 74.0683 46.1692 73.9392 46.1692 73.7454C46.1692 73.5517 46.2985 73.4226 46.4925 73.4226L47.7857 73.358C47.9797 73.358 48.1091 73.4871 48.1091 73.6809C48.1091 73.8746 47.9797 74.0037 47.7857 74.0037L46.4925 74.0683ZM51.0189 73.81C50.8249 73.81 50.6956 73.6809 50.6956 73.4871C50.6956 73.2934 50.8249 73.1643 51.0189 73.1643C51.4715 73.1643 51.8595 73.0997 52.3121 73.0997C52.5061 73.0997 52.6354 73.2288 52.6354 73.4226C52.6354 73.6163 52.5061 73.7454 52.3121 73.7454C51.9241 73.81 51.4715 73.81 51.0189 73.81ZM55.5453 73.5517C55.3513 73.5517 55.2219 73.4226 55.2219 73.2288C55.2219 73.0351 55.3513 72.906 55.5453 72.906C55.9979 72.8414 56.3859 72.8414 56.8385 72.7768C57.0325 72.7768 57.1618 72.906 57.1618 73.0351C57.1618 73.2288 57.0325 73.358 56.9032 73.358C56.4505 73.4226 55.9979 73.4871 55.5453 73.5517ZM60.0717 73.0351C59.9423 73.0351 59.7483 72.906 59.7483 72.7768C59.7483 72.5831 59.813 72.4539 60.007 72.3894C60.4596 72.3248 60.8476 72.2602 61.3002 72.1956C61.4942 72.1956 61.6236 72.2602 61.6882 72.4539C61.6882 72.6477 61.6236 72.7768 61.4296 72.8414C60.9769 72.906 60.5243 72.9705 60.0717 73.0351ZM64.4687 72.1956C64.3394 72.1956 64.2101 72.0665 64.1454 71.9373C64.0807 71.7436 64.2101 71.6144 64.4041 71.5499C64.792 71.4207 65.2447 71.3561 65.6326 71.227C65.8266 71.1624 65.956 71.2916 66.0206 71.4853C66.0853 71.679 65.956 71.8082 65.762 71.8728C65.374 72.0019 64.9213 72.0665 64.4687 72.1956C64.5334 72.1956 64.5334 72.1956 64.4687 72.1956ZM68.8011 70.9041C68.6718 70.9041 68.5425 70.8395 68.4778 70.7104C68.4131 70.5167 68.4778 70.3875 68.6718 70.3229C69.0598 70.1938 69.4477 70.0001 69.9004 69.8709C70.0944 69.8063 70.2237 69.8709 70.2884 70.0646C70.353 70.2584 70.2884 70.3875 70.0944 70.4521C69.7064 70.5812 69.2538 70.775 68.8658 70.9041C68.9304 70.9041 68.8658 70.9041 68.8011 70.9041ZM73.0042 69.096C72.8749 69.096 72.7455 69.0314 72.7455 68.9023C72.6809 68.7731 72.7455 68.5794 72.8749 68.4502C73.2628 68.2565 73.6508 68.0628 73.9741 67.8691C74.1035 67.8045 74.2974 67.8045 74.4268 67.9982C74.4914 68.1274 74.4914 68.3211 74.2974 68.4502C73.9095 68.644 73.5215 68.9023 73.1335 69.096C73.0688 69.096 73.0042 69.096 73.0042 69.096ZM82.6389 67.2879C82.1863 67.2879 81.7337 67.2233 81.3457 67.2233C81.1517 67.2233 81.0224 67.0296 81.0224 66.9004C81.0224 66.7067 81.2164 66.5775 81.3457 66.5775C81.7983 66.6421 82.1863 66.6421 82.6389 66.6421C82.8329 66.6421 82.9622 66.7713 82.9622 66.965C82.9622 67.1587 82.8329 67.2879 82.6389 67.2879ZM85.8721 67.2233C85.6781 67.2233 85.5488 67.0942 85.5488 66.9004C85.5488 66.7067 85.6781 66.5775 85.8721 66.5775C86.3247 66.513 86.7127 66.513 87.1653 66.4484C87.3593 66.4484 87.4886 66.5775 87.5533 66.7067C87.5533 66.9004 87.424 67.0296 87.2946 67.0942C86.7773 67.0942 86.3247 67.1587 85.8721 67.2233ZM76.8193 66.7713C76.69 66.7713 76.6253 66.7067 76.5606 66.6421C76.4313 66.513 76.496 66.3192 76.6253 66.1901C76.5606 66.1255 76.5606 65.9964 76.6253 65.9318C76.69 65.7381 76.8839 65.6735 77.0133 65.7381C77.0779 65.7381 77.1426 65.8026 77.2073 65.8026C77.3366 65.6735 77.5306 65.5443 77.6599 65.4798C77.7892 65.3506 77.9832 65.4152 78.1125 65.5443C78.2419 65.6735 78.1772 65.8672 78.0479 65.9964L77.9832 66.0609C78.1125 66.0609 78.1772 66.1255 78.3065 66.1255C78.5005 66.1901 78.5652 66.3192 78.5652 66.513C78.5005 66.7067 78.3712 66.7713 78.1772 66.7713C77.9186 66.7067 77.6599 66.6421 77.4013 66.5775C77.2719 66.6421 77.2073 66.7067 77.0779 66.8358C76.9486 66.7067 76.884 66.7713 76.8193 66.7713ZM90.3338 66.513C90.2045 66.513 90.0751 66.3838 90.0105 66.2547C89.9458 66.0609 90.0751 65.9318 90.2691 65.8672C90.4631 65.8026 90.6571 65.8026 90.9158 65.7381C91.1097 65.6735 91.3684 65.6089 91.5624 65.6089C91.7564 65.5443 91.8857 65.6735 91.9504 65.8672C92.015 66.0609 91.8857 66.1901 91.6917 66.2547C91.4977 66.3192 91.2391 66.3838 91.0451 66.3838C90.8511 66.4484 90.6571 66.4484 90.3985 66.513H90.3338ZM94.7309 65.3506C94.6015 65.3506 94.4722 65.286 94.4075 65.1569C94.3429 64.9632 94.4722 64.834 94.6015 64.7694C94.9895 64.6403 95.4421 64.5111 95.8301 64.382C96.0241 64.3174 96.1534 64.382 96.2181 64.5757C96.2828 64.7694 96.2181 64.8986 96.0241 64.9632C95.6361 65.0923 95.1835 65.2215 94.7955 65.3506H94.7309ZM73.9741 64.9632C73.9095 64.9632 73.8448 64.9632 73.7801 64.8986C73.3922 64.7049 73.0042 64.4466 72.6809 64.1882C72.5516 64.0591 72.4869 63.8654 72.6162 63.7362C72.7455 63.6071 72.9395 63.5425 73.0689 63.6716C73.3922 63.9299 73.7801 64.1237 74.1681 64.382C74.2974 64.4465 74.3621 64.6403 74.2974 64.834C74.1681 64.9632 74.1035 64.9632 73.9741 64.9632ZM98.9339 63.8008C98.8046 63.8008 98.6753 63.7362 98.6106 63.6071C98.546 63.4133 98.6106 63.2842 98.8046 63.155C99.1926 62.9613 99.5806 62.8322 99.9685 62.6384C100.163 62.5739 100.292 62.6384 100.421 62.7676C100.486 62.9613 100.421 63.0905 100.292 63.2196C99.9039 63.4133 99.5159 63.5425 99.1279 63.7362C99.0633 63.8008 98.9986 63.8008 98.9339 63.8008ZM80.1817 63.7362C80.1171 63.7362 80.0524 63.7362 79.9878 63.6716C79.8584 63.5425 79.8584 63.3488 79.9878 63.2196C80.2464 62.8967 80.5697 62.5739 80.8284 62.251C80.9577 62.1218 81.1517 62.0573 81.281 62.1864C81.4103 62.3156 81.475 62.5093 81.3457 62.6384C81.087 62.9613 80.8284 63.3488 80.5051 63.6716C80.3111 63.6716 80.2464 63.7362 80.1817 63.7362ZM70.4177 62.1864C70.353 62.1864 70.2237 62.1218 70.159 62.0573C69.8357 61.7344 69.5771 61.4115 69.3184 61.024C69.1891 60.8949 69.2538 60.7012 69.3831 60.572C69.5124 60.4429 69.7064 60.5074 69.8357 60.6366C70.0944 60.9595 70.353 61.2823 70.6763 61.6052C70.8057 61.7344 70.8057 61.9281 70.6763 62.0573C70.6117 62.1218 70.547 62.1864 70.4177 62.1864ZM103.008 61.8635C102.878 61.8635 102.749 61.7989 102.749 61.6698C102.684 61.5406 102.749 61.3469 102.878 61.2178C103.266 61.024 103.654 60.8303 103.978 60.572C104.107 60.5074 104.301 60.5074 104.43 60.7012C104.495 60.8303 104.495 61.024 104.301 61.1532C103.913 61.3469 103.525 61.6052 103.137 61.7989C103.137 61.8635 103.072 61.8635 103.008 61.8635ZM82.7036 59.9908C82.6389 59.9908 82.6389 59.9908 82.5743 59.9263C82.4449 59.8617 82.3156 59.668 82.4449 59.4742C82.6389 59.0868 82.7683 58.6993 82.9622 58.3119C83.0269 58.1181 83.2209 58.0536 83.3502 58.1181C83.5442 58.1827 83.6089 58.3764 83.5442 58.5056C83.4149 58.893 83.2209 59.3451 83.0269 59.7325C82.8976 59.9263 82.8329 59.9908 82.7036 59.9908ZM106.887 59.5388C106.758 59.5388 106.693 59.4742 106.629 59.4096C106.499 59.2805 106.564 59.0868 106.693 58.9576C107.081 58.6993 107.405 58.5056 107.728 58.2473C107.857 58.1181 108.051 58.1827 108.181 58.3119C108.31 58.441 108.245 58.6347 108.116 58.7639C107.793 59.0222 107.405 59.2805 107.017 59.4742C107.017 59.4742 106.952 59.5388 106.887 59.5388ZM67.9605 58.3764C67.8312 58.3764 67.7018 58.3119 67.6372 58.1827C67.4432 57.7953 67.3139 57.3432 67.1845 56.9558C67.1199 56.762 67.2492 56.6329 67.3785 56.5683C67.5725 56.5037 67.7019 56.6329 67.7665 56.762C67.8958 57.1495 68.0252 57.537 68.1545 57.9244C68.2191 58.1181 68.1545 58.2473 67.9605 58.3764C68.0898 58.3764 68.0252 58.3764 67.9605 58.3764ZM110.573 56.8266C110.509 56.8266 110.379 56.762 110.315 56.6975C110.185 56.5683 110.25 56.3746 110.379 56.2454C110.703 55.9871 111.026 55.7288 111.349 55.406C111.478 55.2768 111.672 55.2768 111.802 55.4705C111.931 55.5997 111.931 55.7934 111.737 55.9226C111.414 56.1809 111.091 56.5037 110.767 56.762C110.703 56.8266 110.638 56.8266 110.573 56.8266ZM83.9322 55.6643C83.7382 55.6643 83.6089 55.4705 83.6089 55.3414C83.6089 55.0185 83.6735 54.7602 83.6735 54.4373C83.6735 54.3082 83.6735 54.2436 83.6735 54.1144C83.6735 53.9207 83.8029 53.7916 83.9968 53.7916C84.1908 53.7916 84.3202 53.9207 84.3202 54.1144C84.3202 54.2436 84.3202 54.3728 84.3202 54.4373C84.3202 54.7602 84.3202 55.0831 84.2555 55.406C84.2555 55.5351 84.1262 55.6643 83.9322 55.6643ZM67.1845 53.9853C66.9906 53.9853 66.8612 53.8561 66.8612 53.6624C66.8612 53.2104 66.9259 52.7584 66.9906 52.3063C67.0552 52.1126 67.1845 52.048 67.3785 52.048C67.5725 52.1126 67.6372 52.2418 67.6372 52.4355C67.5725 52.8229 67.5079 53.275 67.5079 53.6624C67.5079 53.8561 67.3139 53.9853 67.1845 53.9853ZM113.936 53.8561C113.871 53.8561 113.742 53.7916 113.677 53.7916C113.548 53.6624 113.548 53.4687 113.677 53.3395C114 53.0167 114.259 52.7584 114.582 52.4355C114.712 52.3063 114.906 52.3063 115.035 52.4355C115.164 52.5646 115.164 52.7584 115.035 52.8875C114.712 53.2104 114.453 53.5333 114.13 53.7916C114.13 53.7916 114 53.8561 113.936 53.8561ZM83.4149 51.2085C83.2856 51.2085 83.1562 51.144 83.0916 51.0148C82.9622 50.6274 82.7683 50.2399 82.5743 49.8525C82.5096 49.7233 82.5743 49.5296 82.7036 49.4004C82.8329 49.3358 83.0269 49.4004 83.1562 49.5296C83.3502 49.917 83.5442 50.3691 83.6735 50.7565C83.7382 50.9502 83.6735 51.0794 83.4796 51.144C83.4796 51.2085 83.4149 51.2085 83.4149 51.2085ZM68.4778 49.7233C68.4131 49.7233 68.3485 49.7233 68.2838 49.6587C68.1545 49.5942 68.0898 49.4004 68.1545 49.2067C68.3485 48.8192 68.6071 48.4318 68.9304 48.1089C69.0598 47.9798 69.2538 47.9152 69.3831 48.0443C69.5124 48.1735 69.5771 48.3672 69.4477 48.4964C69.1891 48.8192 68.9304 49.2067 68.7365 49.5296C68.6718 49.6587 68.6071 49.7233 68.4778 49.7233ZM81.0224 47.3986C80.9577 47.3986 80.8284 47.3986 80.7637 47.334C80.4404 47.0111 80.1171 46.7528 79.7938 46.5591C79.6645 46.4299 79.5998 46.2362 79.7291 46.1071C79.8584 45.9779 80.0524 45.9133 80.1817 46.0425C80.5051 46.3008 80.893 46.6237 81.2164 46.882C81.3457 47.0111 81.3457 47.2049 81.2164 47.334C81.1517 47.3986 81.087 47.3986 81.0224 47.3986ZM71.5169 46.4299C71.3876 46.4299 71.323 46.3654 71.2583 46.3008C71.129 46.1716 71.1936 45.9779 71.323 45.8488C71.7109 45.5905 72.0989 45.3967 72.4869 45.203C72.6162 45.1384 72.8102 45.203 72.9395 45.3322C73.0042 45.5259 72.9395 45.655 72.8102 45.7842C72.4222 45.9779 72.0989 46.1716 71.7109 46.3654C71.6463 46.4299 71.5816 46.4299 71.5169 46.4299ZM77.0779 45.2676C76.8839 45.2676 76.8193 45.203 76.69 45.203C76.3666 45.1384 76.108 45.1384 75.7847 45.1384C75.5907 45.1384 75.4614 45.0093 75.4614 44.8156C75.4614 44.6218 75.5907 44.4927 75.7847 44.4927C76.108 44.4927 76.4313 44.4927 76.7546 44.5573C76.8839 44.5573 77.0133 44.6218 77.1426 44.6218C77.3366 44.6864 77.4013 44.8156 77.4013 45.0093C77.4013 45.1384 77.2719 45.2676 77.0779 45.2676Z" fill="white"/>
</g>
<path opacity="0.4" d="M225.156 64.7694C225.156 65.8027 224.509 66.6421 223.668 67.0296V73.7455C223.668 74.2621 223.216 74.7141 222.698 74.7141C222.181 74.7141 221.728 74.2621 221.728 73.7455V67.0296C220.823 66.6421 220.241 65.8027 220.241 64.7694C220.241 63.7362 220.888 62.8968 221.728 62.5093V60.3783C221.728 59.8617 222.181 59.4097 222.698 59.4097C223.216 59.4097 223.668 59.8617 223.668 60.3783V62.5093C224.574 62.8968 225.156 63.7362 225.156 64.7694ZM228.906 67.7399V60.3137C228.906 59.7971 228.453 59.3451 227.936 59.3451C227.419 59.3451 226.966 59.7971 226.966 60.3137V67.7399C226.061 68.1274 225.479 68.9669 225.479 70.0001C225.479 71.0333 226.126 71.8728 226.966 72.2602V73.6809C226.966 74.1975 227.419 74.6495 227.936 74.6495C228.453 74.6495 228.906 74.1975 228.906 73.6809V72.3248C229.811 71.9373 230.393 71.0979 230.393 70.0646C230.458 69.0314 229.811 68.1274 228.906 67.7399ZM235.696 67.3525C235.696 66.3193 235.049 65.4798 234.208 65.0923V60.3137C234.208 59.7971 233.756 59.3451 233.238 59.3451C232.721 59.3451 232.268 59.7971 232.268 60.3137V65.0923C231.363 65.4798 230.781 66.3193 230.781 67.3525C230.781 68.3857 231.428 69.2252 232.268 69.6126V73.7455C232.268 74.2621 232.721 74.7141 233.238 74.7141C233.756 74.7141 234.208 74.2621 234.208 73.7455V69.6126C235.049 69.2897 235.696 68.3857 235.696 67.3525Z" fill="#8F50F2"/>
<path opacity="0.4" d="M47.4624 44.1052H41.5134C41.4488 44.1052 41.4488 44.1052 41.3841 44.1052C41.3841 44.1052 41.3841 44.1052 41.3195 44.1052C41.2548 44.1052 41.2548 44.1698 41.1901 44.1698L37.957 47.3986C37.8923 47.4632 37.8923 47.4632 37.8923 47.5277C37.8923 47.5277 37.8923 47.5277 37.8923 47.5923C37.8923 47.6569 37.8923 47.6569 37.8923 47.7215V57.6661C37.8923 57.9244 38.0863 58.1181 38.345 58.1181H47.5271C47.7857 58.1181 47.9797 57.9244 47.9797 57.6661V44.5573C47.9797 44.2989 47.7857 44.1052 47.4624 44.1052ZM41.0608 45.7196V47.334H39.4442L41.0608 45.7196ZM47.0098 57.2787H38.7976V48.3026H41.5781C41.8368 48.3026 42.0307 48.1089 42.0307 47.8506V45.0739H47.0098V57.2787Z" fill="#8F50F2"/>
<path opacity="0.4" d="M17.9116 226.015C17.9116 226.273 17.7176 226.467 17.459 226.467H15.6484H14.0965H12.0273H10.4754H8.4062H6.85429H5.1084C4.84975 226.467 4.65576 226.273 4.65576 226.015V215.683C4.65576 215.424 4.84975 215.231 5.1084 215.231C5.36705 215.231 5.56104 215.424 5.56104 215.683V225.627H6.46632V220.332C6.46632 220.074 6.66031 219.88 6.91896 219.88H8.47086C8.72951 219.88 8.9235 220.074 8.9235 220.332V225.627H10.0874V222.463C10.0874 222.205 10.2814 222.011 10.5401 222.011H12.092C12.3506 222.011 12.5446 222.205 12.5446 222.463V225.627H13.7085V219.299C13.7085 219.041 13.9025 218.847 14.1612 218.847H15.7131C15.9717 218.847 16.1657 219.041 16.1657 219.299V225.627H17.459C17.7176 225.563 17.9116 225.757 17.9116 226.015Z" fill="#8F50F2"/>
<g opacity="0.3">
<path d="M316.136 98.4779C315.942 98.4779 315.812 98.3488 315.812 98.1551V96.8635C315.812 96.6698 315.942 96.5407 316.136 96.5407C316.33 96.5407 316.459 96.6698 316.459 96.8635V98.1551C316.459 98.3488 316.33 98.4779 316.136 98.4779ZM316.136 93.9576C315.942 93.9576 315.812 93.8285 315.812 93.6348V92.3432C315.812 92.1495 315.942 92.0204 316.136 92.0204C316.33 92.0204 316.459 92.1495 316.459 92.3432V93.6348C316.459 93.8285 316.33 93.9576 316.136 93.9576ZM316.136 89.4373C315.942 89.4373 315.812 89.3082 315.812 89.1145V87.823C315.812 87.6292 315.942 87.5001 316.136 87.5001C316.33 87.5001 316.459 87.6292 316.459 87.823V89.1145C316.459 89.3082 316.33 89.4373 316.136 89.4373ZM316.136 84.917C315.942 84.917 315.812 84.7879 315.812 84.5942V83.3027C315.812 83.1089 315.942 82.9798 316.136 82.9798C316.33 82.9798 316.459 83.1089 316.459 83.3027V84.5942C316.459 84.7879 316.33 84.917 316.136 84.917ZM316.136 80.3968C315.942 80.3968 315.812 80.2676 315.812 80.0739V78.7824C315.812 78.5886 315.942 78.4595 316.136 78.4595C316.33 78.4595 316.459 78.5886 316.459 78.7824V80.0739C316.459 80.2676 316.33 80.3968 316.136 80.3968ZM316.136 75.8765C315.942 75.8765 315.812 75.7473 315.812 75.5536V74.2621C315.812 74.0683 315.942 73.9392 316.136 73.9392C316.33 73.9392 316.459 74.0683 316.459 74.2621V75.5536C316.459 75.7473 316.33 75.8765 316.136 75.8765ZM316.136 71.3562C315.942 71.3562 315.812 71.227 315.812 71.0333V69.7418C315.812 69.548 315.942 69.4189 316.136 69.4189C316.33 69.4189 316.459 69.548 316.459 69.7418V71.0333C316.459 71.227 316.33 71.3562 316.136 71.3562ZM316.136 66.8359C315.942 66.8359 315.812 66.7067 315.812 66.513V65.2215C315.812 65.0277 315.942 64.8986 316.136 64.8986C316.33 64.8986 316.459 65.0277 316.459 65.2215V66.513C316.459 66.7067 316.33 66.8359 316.136 66.8359ZM316.136 62.3156C315.942 62.3156 315.812 62.1864 315.812 61.9927V60.7012C315.812 60.5075 315.942 60.3783 316.136 60.3783C316.33 60.3783 316.459 60.5075 316.459 60.7012V61.9927C316.459 62.1864 316.33 62.3156 316.136 62.3156ZM316.136 57.7953C315.942 57.7953 315.812 57.6661 315.812 57.4724V56.1809C315.812 55.9872 315.942 55.858 316.136 55.858C316.33 55.858 316.459 55.9872 316.459 56.1809V57.4724C316.459 57.6661 316.33 57.7953 316.136 57.7953ZM316.136 53.275C315.942 53.275 315.812 53.1458 315.812 52.9521V51.6606C315.812 51.4669 315.942 51.3377 316.136 51.3377C316.33 51.3377 316.459 51.4669 316.459 51.6606V52.9521C316.459 53.1458 316.33 53.275 316.136 53.275ZM316.136 48.7547C315.942 48.7547 315.812 48.6255 315.812 48.4318V47.1403C315.812 46.9466 315.942 46.8174 316.136 46.8174C316.33 46.8174 316.459 46.9466 316.459 47.1403V48.4318C316.459 48.6255 316.33 48.7547 316.136 48.7547ZM316.136 44.2344C315.942 44.2344 315.812 44.1052 315.812 43.9115V42.62C315.812 42.4263 315.942 42.2971 316.136 42.2971C316.33 42.2971 316.459 42.4263 316.459 42.62V43.9115C316.459 44.1052 316.33 44.2344 316.136 44.2344Z" fill="white"/>
</g>
<path d="M186.229 67.4816H118.203C114 67.4816 110.638 70.9041 110.638 75.0369V108.1C110.638 112.297 114.065 115.655 118.203 115.655H122.019C123.829 115.655 125.316 117.14 125.316 118.948V123.017C125.316 124.437 126.998 125.148 128.032 124.114L135.533 116.624C136.115 116.042 136.956 115.655 137.861 115.655H186.229C190.432 115.655 193.794 112.232 193.794 108.1V75.0369C193.794 70.8395 190.367 67.4816 186.229 67.4816Z" fill="white"/>
<path d="M165.019 80.9133H122.795C122.148 80.9133 121.566 80.3967 121.566 79.6864C121.566 79.0407 122.083 78.4595 122.795 78.4595H165.019C165.666 78.4595 166.248 78.9761 166.248 79.6864C166.248 80.3322 165.666 80.9133 165.019 80.9133Z" fill="#E6D1F9"/>
<path d="M147.625 89.3081H122.795C122.148 89.3081 121.566 88.7915 121.566 88.0812C121.566 87.4354 122.083 86.8542 122.795 86.8542H147.625C148.272 86.8542 148.854 87.3708 148.854 88.0812C148.854 88.7915 148.336 89.3081 147.625 89.3081Z" fill="#E6D1F9"/>
<path d="M167.088 97.7676H122.795C122.148 97.7676 121.566 97.251 121.566 96.5407C121.566 95.8949 122.083 95.3137 122.795 95.3137H167.088C167.735 95.3137 168.317 95.8303 168.317 96.5407C168.252 97.251 167.735 97.7676 167.088 97.7676Z" fill="#E6D1F9"/>
<path d="M127.903 106.227H122.795C122.148 106.227 121.566 105.71 121.566 105C121.566 104.354 122.083 103.773 122.795 103.773H127.903C128.549 103.773 129.131 104.29 129.131 105C129.131 105.71 128.549 106.227 127.903 106.227Z" fill="#E6D1F9"/>
<path d="M155.902 89.3081H152.798C152.151 89.3081 151.569 88.7915 151.569 88.0812C151.569 87.4354 152.087 86.8542 152.798 86.8542H155.902C156.548 86.8542 157.13 87.3708 157.13 88.0812C157.13 88.7915 156.613 89.3081 155.902 89.3081Z" fill="#E6D1F9"/>
<path d="M181.638 89.3081H161.334C160.687 89.3081 160.105 88.7915 160.105 88.0812C160.105 87.4354 160.622 86.8542 161.334 86.8542H181.638C182.284 86.8542 182.866 87.3708 182.866 88.0812C182.802 88.7915 182.284 89.3081 181.638 89.3081Z" fill="#E6D1F9"/>
<path d="M181.638 80.9133H170.322C169.675 80.9133 169.093 80.3967 169.093 79.6864C169.093 79.0407 169.61 78.4595 170.322 78.4595H181.638C182.284 78.4595 182.866 78.9761 182.866 79.6864C182.802 80.3322 182.284 80.9133 181.638 80.9133Z" fill="#E6D1F9"/>
<path d="M138.12 106.227H133.011C132.365 106.227 131.783 105.71 131.783 105C131.783 104.354 132.3 103.773 133.011 103.773H138.12C138.766 103.773 139.348 104.29 139.348 105C139.348 105.71 138.766 106.227 138.12 106.227Z" fill="#E6D1F9"/>
<defs>
<linearGradient id="paint0_linear_17_37430" x1="44.2867" y1="161.219" x2="42.5903" y2="129.187" gradientUnits="userSpaceOnUse">
<stop stop-color="#2975AA"/>
<stop offset="1" stop-color="#7FFFC5"/>
</linearGradient>
<linearGradient id="paint1_linear_17_37430" x1="38.333" y1="175.662" x2="32.5163" y2="146.539" gradientUnits="userSpaceOnUse">
<stop offset="0.00388622" stop-color="#1A2350"/>
<stop offset="1" stop-color="#2B449A"/>
</linearGradient>
<linearGradient id="paint2_linear_17_37430" x1="42.9383" y1="206.016" x2="7.36013" y2="145.584" gradientUnits="userSpaceOnUse">
<stop stop-color="#278FBD"/>
<stop offset="1" stop-color="#7FFFC5"/>
</linearGradient>
<linearGradient id="paint3_linear_17_37430" x1="38.2711" y1="225.911" x2="3.74519" y2="170.225" gradientUnits="userSpaceOnUse">
<stop offset="0.00388622" stop-color="#F1C06B"/>
<stop offset="1" stop-color="#7FFFC5"/>
</linearGradient>
<linearGradient id="paint4_linear_17_37430" x1="-57.1098" y1="214.765" x2="75.8563" y2="168.652" gradientUnits="userSpaceOnUse">
<stop stop-color="#401784"/>
<stop offset="0.4137" stop-color="#4F1EA3"/>
<stop offset="0.5732" stop-color="#4B1C9B"/>
<stop offset="0.8206" stop-color="#401785"/>
<stop offset="1" stop-color="#361371"/>
</linearGradient>
<linearGradient id="paint5_linear_17_37430" x1="56.824" y1="160.571" x2="334.077" y2="160.571" gradientUnits="userSpaceOnUse">
<stop stop-color="#401784"/>
<stop offset="0.4137" stop-color="#4F1EA3"/>
<stop offset="0.5732" stop-color="#4B1C9B"/>
<stop offset="0.8206" stop-color="#401785"/>
<stop offset="1" stop-color="#361371"/>
</linearGradient>
<linearGradient id="paint6_linear_17_37430" x1="191.999" y1="217.2" x2="191.999" y2="80.2448" gradientUnits="userSpaceOnUse">
<stop stop-color="#F3CFF7"/>
<stop offset="0.2017" stop-color="#ECC8F6"/>
<stop offset="0.5024" stop-color="#D9B3F4"/>
<stop offset="0.8633" stop-color="#B992F1"/>
<stop offset="1" stop-color="#AB84EF"/>
</linearGradient>
<linearGradient id="paint7_linear_17_37430" x1="72.1511" y1="112.39" x2="40.7068" y2="55.7142" gradientUnits="userSpaceOnUse">
<stop stop-color="#FFCE3D"/>
<stop offset="1" stop-color="#FFEF55"/>
</linearGradient>
<linearGradient id="paint8_linear_17_37430" x1="65.2232" y1="23.2981" x2="63.3602" y2="23.2981" gradientUnits="userSpaceOnUse">
<stop stop-color="#293267"/>
<stop offset="0.999" stop-color="#3B467E"/>
</linearGradient>
<linearGradient id="paint9_linear_17_37430" x1="54.9511" y1="26.2226" x2="53.0462" y2="26.2226" gradientUnits="userSpaceOnUse">
<stop stop-color="#293267"/>
<stop offset="0.999" stop-color="#3B467E"/>
</linearGradient>
<linearGradient id="paint10_linear_17_37430" x1="60.0086" y1="27.0406" x2="58.1037" y2="27.0406" gradientUnits="userSpaceOnUse">
<stop stop-color="#293267"/>
<stop offset="0.999" stop-color="#3B467E"/>
</linearGradient>
<linearGradient id="paint11_linear_17_37430" x1="260.926" y1="200.955" x2="260.926" y2="217.021" gradientUnits="userSpaceOnUse">
<stop stop-color="#481C95"/>
<stop offset="1" stop-color="#7733D6"/>
</linearGradient>
<linearGradient id="paint12_linear_17_37430" x1="261.169" y1="173.397" x2="261.169" y2="197.618" gradientUnits="userSpaceOnUse">
<stop stop-color="#481C95"/>
<stop offset="1" stop-color="#7733D6"/>
</linearGradient>
<linearGradient id="paint13_linear_17_37430" x1="269.932" y1="186.612" x2="286.775" y2="201.945" gradientUnits="userSpaceOnUse">
<stop stop-color="#FFCE3D"/>
<stop offset="1" stop-color="#FFEF89"/>
</linearGradient>
<linearGradient id="paint14_linear_17_37430" x1="267.118" y1="189.704" x2="283.961" y2="205.037" gradientUnits="userSpaceOnUse">
<stop stop-color="#FFCE3D"/>
<stop offset="1" stop-color="#FFEF89"/>
</linearGradient>
<linearGradient id="paint15_linear_17_37430" x1="106.115" y1="231.349" x2="263.848" y2="231.349" gradientUnits="userSpaceOnUse">
<stop stop-color="#FFCE3D"/>
<stop offset="1" stop-color="#FFEF55"/>
</linearGradient>
<linearGradient id="paint16_linear_17_37430" x1="106.115" y1="212.817" x2="263.848" y2="212.817" gradientUnits="userSpaceOnUse">
<stop stop-color="#FFCE3D"/>
<stop offset="1" stop-color="#FFEF55"/>
</linearGradient>
<linearGradient id="paint17_linear_17_37430" x1="294.425" y1="227.73" x2="299.932" y2="216.701" gradientUnits="userSpaceOnUse">
<stop stop-color="#481C95"/>
<stop offset="1" stop-color="#7733D6"/>
</linearGradient>
<linearGradient id="paint18_linear_17_37430" x1="69.0893" y1="222.072" x2="99.5395" y2="222.072" gradientUnits="userSpaceOnUse">
<stop stop-color="#481C95"/>
<stop offset="1" stop-color="#7733D6"/>
</linearGradient>
</defs>
</svg>
