<svg width="65" height="65" viewBox="0 0 65 65" fill="none" xmlns="http://www.w3.org/2000/svg">
<g clip-path="url(#clip0_607_199)">
<path d="M32.0467 26.0132C31.4138 26.0132 30.7951 26.2009 30.2689 26.5525C29.7426 26.9041 29.3325 27.4039 29.0903 27.9886C28.8481 28.5733 28.7847 29.2167 28.9082 29.8375C29.0316 30.4582 29.3364 31.0284 29.7839 31.4759C30.2315 31.9235 30.8017 32.2282 31.4224 32.3517C32.0431 32.4752 32.6865 32.4118 33.2713 32.1696C33.856 31.9274 34.3558 31.5172 34.7074 30.991C35.059 30.4648 35.2467 29.8461 35.2467 29.2132C35.2467 28.3645 34.9095 27.5506 34.3094 26.9504C33.7093 26.3503 32.8954 26.0132 32.0467 26.0132ZM32.0467 30.2799C31.8357 30.2799 31.6295 30.2173 31.4541 30.1001C31.2787 29.9829 31.1419 29.8163 31.0612 29.6214C30.9805 29.4265 30.9594 29.212 31.0005 29.0051C31.0417 28.7982 31.1433 28.6081 31.2924 28.4589C31.4416 28.3098 31.6317 28.2082 31.8386 28.167C32.0455 28.1259 32.26 28.147 32.4549 28.2277C32.6498 28.3084 32.8164 28.4452 32.9336 28.6206C33.0508 28.796 33.1133 29.0022 33.1133 29.2132C33.1133 29.4961 33.001 29.7674 32.8009 29.9674C32.6009 30.1675 32.3296 30.2799 32.0467 30.2799Z" fill="#273B98"/>
<path d="M32.0471 23.8796C32.8939 23.8749 33.7086 23.5545 34.3318 22.9811C34.9549 22.4076 35.3418 21.6223 35.4167 20.7788L36.0407 13.2897C36.0868 12.7368 36.0177 12.1804 35.8377 11.6556C35.6578 11.1309 35.3709 10.6491 34.9953 10.2409C34.6197 9.83261 34.1634 9.50672 33.6554 9.28381C33.1474 9.0609 32.5986 8.9458 32.0439 8.9458C31.4891 8.9458 30.9404 9.0609 30.4323 9.28381C29.9243 9.50672 29.4681 9.83261 29.0924 10.2409C28.7168 10.6491 28.43 11.1309 28.25 11.6556C28.0701 12.1804 28.001 12.7368 28.0471 13.2897L28.6711 20.7788C28.746 21.6234 29.1338 22.4096 29.7583 22.9832C30.3829 23.5568 31.1991 23.8765 32.0471 23.8796ZM30.6604 11.6854C30.9254 11.3973 31.2738 11.1992 31.657 11.1188C32.0401 11.0384 32.4388 11.0797 32.7973 11.2369C33.1558 11.3941 33.4562 11.6594 33.6566 11.9957C33.8569 12.332 33.9472 12.7225 33.9148 13.1126L33.2908 20.6017C33.2625 20.9128 33.1195 21.2022 32.8896 21.4138C32.6598 21.6253 32.3594 21.7438 32.0471 21.7462C31.7345 21.7441 31.4339 21.6257 31.2038 21.4141C30.9737 21.2026 30.8306 20.913 30.8023 20.6017L30.1783 13.1126C30.1547 12.8543 30.1855 12.5938 30.2685 12.3481C30.3515 12.1023 30.485 11.8766 30.6604 11.6854Z" fill="#273B98"/>
<path d="M15.0868 64.1999C15.4393 64.3765 15.8344 64.4501 16.2268 64.4124C16.6193 64.3747 16.9931 64.2271 17.3055 63.9865L29.2105 54.8132H53.3801C55.077 54.8115 56.7039 54.1367 57.9038 52.9368C59.1036 51.737 59.7785 50.1101 59.7801 48.4132V22.8132C59.7785 21.1163 59.1036 19.4895 57.9038 18.2896C56.7039 17.0897 55.077 16.4149 53.3801 16.4132H45.5583L37.2457 3.27508C36.6907 2.3985 35.923 1.6765 35.014 1.17621C34.1051 0.675916 33.0844 0.413574 32.0468 0.413574C31.0093 0.413574 29.9886 0.675916 29.0796 1.17621C28.1707 1.6765 27.4029 2.3985 26.8479 3.27508L18.5353 16.4132H10.7135C9.01661 16.4149 7.38973 17.0897 6.18986 18.2896C4.99 19.4895 4.31517 21.1163 4.31348 22.8132V48.4132C4.31517 50.1101 4.99 51.737 6.18986 52.9368C7.38973 54.1367 9.01661 54.8115 10.7135 54.8132H13.9135V62.3119C13.9117 62.7051 14.0209 63.0908 14.2284 63.4247C14.436 63.7587 14.7335 64.0274 15.0868 64.1999ZM28.6495 4.41428C29.0126 3.84198 29.5144 3.37069 30.1083 3.04414C30.7022 2.71759 31.369 2.54637 32.0468 2.54637C32.7246 2.54637 33.3914 2.71759 33.9853 3.04414C34.5792 3.37069 35.081 3.84198 35.4441 4.41428L50.6185 28.4004C51.0017 29.007 51.215 29.7054 51.2361 30.4225C51.2571 31.1397 51.0852 31.8494 50.7383 32.4774C50.3914 33.1054 49.8821 33.6288 49.2638 33.9928C48.6455 34.3567 47.9408 34.548 47.2233 34.5465H16.8703C16.1528 34.5478 15.4481 34.3563 14.8298 33.9922C14.2116 33.6281 13.7024 33.1047 13.3555 32.4766C13.0086 31.8485 12.8367 31.1388 12.8577 30.4216C12.8788 29.7044 13.092 29.006 13.4751 28.3993L28.6495 4.41428ZM10.7135 52.6799C9.58189 52.6799 8.49664 52.2304 7.69649 51.4302C6.89633 50.63 6.44681 49.5448 6.44681 48.4132V22.8132C6.44681 21.6816 6.89633 20.5964 7.69649 19.7962C8.49664 18.9961 9.58189 18.5465 10.7135 18.5465H17.1849L11.6735 27.2591C11.0864 28.1883 10.7595 29.2581 10.7268 30.3568C10.6942 31.4554 10.957 32.5427 11.488 33.5052C12.0189 34.4676 12.7984 35.2699 13.7451 35.8283C14.6918 36.3868 15.7711 36.6808 16.8703 36.6799H47.2233C48.3225 36.6811 49.4018 36.3872 50.3486 35.8289C51.2954 35.2706 52.0749 34.4684 52.6059 33.506C53.1368 32.5436 53.3997 31.4563 53.367 30.3577C53.3343 29.259 53.0073 28.1893 52.4201 27.2601L46.9076 18.5465H53.3801C54.5117 18.5465 55.597 18.9961 56.3971 19.7962C57.1973 20.5964 57.6468 21.6816 57.6468 22.8132V48.4132C57.6468 49.5448 57.1973 50.63 56.3971 51.4302C55.597 52.2304 54.5117 52.6799 53.3801 52.6799H29.2105C28.7393 52.6799 28.2814 52.8359 27.9081 53.1236L16.0468 62.3119V54.8132C16.0468 54.2474 15.822 53.7048 15.422 53.3047C15.0219 52.9046 14.4793 52.6799 13.9135 52.6799H10.7135Z" fill="#273B98"/>
<path d="M12.8469 42.0132H16.0469C16.3298 42.0132 16.6011 41.9008 16.8012 41.7008C17.0012 41.5008 17.1136 41.2294 17.1136 40.9465C17.1136 40.6637 17.0012 40.3923 16.8012 40.1923C16.6011 39.9923 16.3298 39.8799 16.0469 39.8799H12.8469C12.564 39.8799 12.2927 39.9923 12.0927 40.1923C11.8927 40.3923 11.7803 40.6637 11.7803 40.9465C11.7803 41.2294 11.8927 41.5008 12.0927 41.7008C12.2927 41.9008 12.564 42.0132 12.8469 42.0132Z" fill="#273B98"/>
<path d="M41.6465 45.2129H38.4465C38.1637 45.2129 37.8923 45.3253 37.6923 45.5253C37.4923 45.7253 37.3799 45.9967 37.3799 46.2796C37.3799 46.5625 37.4923 46.8338 37.6923 47.0338C37.8923 47.2338 38.1637 47.3462 38.4465 47.3462H41.6465C41.9294 47.3462 42.2008 47.2338 42.4008 47.0338C42.6008 46.8338 42.7132 46.5625 42.7132 46.2796C42.7132 45.9967 42.6008 45.7253 42.4008 45.5253C42.2008 45.3253 41.9294 45.2129 41.6465 45.2129Z" fill="#273B98"/>
<path d="M20.3137 42.0132H45.9137C46.1966 42.0132 46.4679 41.9008 46.668 41.7008C46.868 41.5008 46.9804 41.2294 46.9804 40.9465C46.9804 40.6637 46.868 40.3923 46.668 40.1923C46.4679 39.9923 46.1966 39.8799 45.9137 39.8799H20.3137C20.0308 39.8799 19.7595 39.9923 19.5595 40.1923C19.3595 40.3923 19.2471 40.6637 19.2471 40.9465C19.2471 41.2294 19.3595 41.5008 19.5595 41.7008C19.7595 41.9008 20.0308 42.0132 20.3137 42.0132Z" fill="#273B98"/>
<path d="M35.2469 46.2796C35.2469 45.9967 35.1346 45.7253 34.9345 45.5253C34.7345 45.3253 34.4632 45.2129 34.1803 45.2129H12.8469C12.564 45.2129 12.2927 45.3253 12.0927 45.5253C11.8927 45.7253 11.7803 45.9967 11.7803 46.2796C11.7803 46.5625 11.8927 46.8338 12.0927 47.0338C12.2927 47.2338 12.564 47.3462 12.8469 47.3462H34.1803C34.4632 47.3462 34.7345 47.2338 34.9345 47.0338C35.1346 46.8338 35.2469 46.5625 35.2469 46.2796Z" fill="#273B98"/>
<path d="M50.1799 42.0132H51.2466C51.5295 42.0132 51.8008 41.9008 52.0009 41.7008C52.2009 41.5008 52.3133 41.2294 52.3133 40.9465C52.3133 40.6637 52.2009 40.3923 52.0009 40.1923C51.8008 39.9923 51.5295 39.8799 51.2466 39.8799H50.1799C49.8971 39.8799 49.6257 39.9923 49.4257 40.1923C49.2257 40.3923 49.1133 40.6637 49.1133 40.9465C49.1133 41.2294 49.2257 41.5008 49.4257 41.7008C49.6257 41.9008 49.8971 42.0132 50.1799 42.0132Z" fill="#273B98"/>
</g>
<defs>
<clipPath id="clip0_607_199">
<rect width="64" height="64" fill="white" transform="translate(0.046875 0.413086)"/>
</clipPath>
</defs>
</svg>
