<svg width="37" height="47" viewBox="0 0 37 47" fill="none" xmlns="http://www.w3.org/2000/svg">
<path d="M30.8651 47H20.9243C20.2775 47 19.753 46.4756 19.753 45.8287V33.8997C19.753 33.2528 20.2775 32.7284 20.9243 32.7284H21.8138C22.4606 32.7284 22.9851 33.2528 22.9851 33.8997C22.9851 34.4494 22.6065 34.9106 22.0956 35.0368V44.6574H29.7798C29.954 44.2293 30.3744 43.9276 30.8651 43.9276C31.512 43.9276 32.0364 44.452 32.0364 45.0989V45.8287C32.0364 46.4756 31.512 47 30.8651 47ZM35.6061 42.5191H25.6653C25.0185 42.5191 24.494 41.9946 24.494 41.3478V29.4187C24.494 28.7719 25.0185 28.2474 25.6653 28.2474H35.6061C36.2529 28.2474 36.7774 28.7719 36.7774 29.4187V41.3478C36.7774 41.9946 36.2529 42.5191 35.6061 42.5191ZM26.8366 40.1765H34.4348V30.59H26.8366V40.1765ZM1.39357 40.3876C1.24701 40.3876 1.09781 40.36 0.953598 40.3014C0.354188 40.0582 0.0654628 39.375 0.308653 38.7756L4.34596 28.8258C5.59325 25.7526 6.90978 23.5765 8.48928 21.9775C10.5812 19.8596 13.1674 18.7859 16.1761 18.7859H21.5312C25.6409 18.7859 28.8319 20.7011 31.2869 24.6412C31.6291 25.1902 31.4613 25.9126 30.9123 26.2548C30.3631 26.5971 29.6407 26.429 29.2987 25.88C27.9222 23.671 26.3378 22.2664 24.4303 21.5954L19.7996 27.941C19.5791 28.243 19.2276 28.4218 18.8535 28.4218C18.4794 28.4218 18.1279 28.243 17.9074 27.941L13.2734 21.591C10.4746 22.5707 8.36673 25.1479 6.51652 29.7067L2.47921 39.6564C2.29473 40.1116 1.85637 40.3876 1.39357 40.3876ZM15.8399 21.1337L18.8538 25.2636L21.8675 21.1339C21.7563 21.1302 21.6445 21.1284 21.5314 21.1284H16.1763C16.0633 21.1284 15.9512 21.1301 15.8399 21.1337ZM31.1029 38.5679H30.1685C29.5216 38.5679 28.9972 38.0434 28.9972 37.3966C28.9972 36.7497 29.5216 36.2253 30.1685 36.2253H31.1029C31.7497 36.2253 32.2742 36.7497 32.2742 37.3966C32.2742 38.0434 31.7497 38.5679 31.1029 38.5679ZM31.5702 34.5412H29.701C29.0542 34.5412 28.5297 34.0168 28.5297 33.37C28.5297 32.7231 29.0542 32.1987 29.701 32.1987H31.5702C32.2171 32.1987 32.7415 32.7231 32.7415 33.37C32.7415 34.0168 32.2171 34.5412 31.5702 34.5412ZM18.9406 15.5204C14.6617 15.5204 11.1806 12.0393 11.1806 7.7603C11.1806 4.23528 13.5427 1.2517 16.7674 0.309686C16.7826 0.304708 16.798 0.300022 16.8137 0.295484C17.3343 0.147315 17.8697 0.0544896 18.4118 0.0178866C18.4141 0.0170081 18.4169 0.0174474 18.4195 0.017301C18.4222 0.0171545 18.4251 0.0171545 18.4276 0.0167153C18.4301 0.0164225 18.4324 0.0162761 18.4349 0.0162761C18.5267 0.0104196 18.6194 0.00602723 18.7121 0.00324541C18.7162 0.00368464 18.7235 0.00295258 18.729 0.00280617C18.7321 0.00265976 18.7347 0.00236693 18.7383 0.00251335C18.7409 0.00251335 18.7435 0.00236693 18.7462 0.00236693C18.7495 0.00222052 18.7528 0.00207411 18.756 0.00207411C18.7586 0.00207411 18.7615 0.0019277 18.7642 0.0019277C18.7677 0.0019277 18.7712 0.00178129 18.7749 0.00163487C18.7774 0.00148846 18.78 0.00134205 18.7826 0.00148846C18.7851 0.00134205 18.7873 0.00134205 18.7898 0.00134205C18.794 0.00134205 18.7983 0.00119564 18.8025 0.00104923H18.8028C18.8052 0.000902814 18.8068 0.000756402 18.8094 0.00104923C18.8175 0.000902814 18.8257 0.000756402 18.8339 0.00060999H18.8342C18.8425 0.000463578 18.8507 0.000463578 18.8589 0.000317166C18.8651 0.000317166 18.8712 0.000170754 18.8774 0.000170754H18.8776C18.8798 0.000170754 18.8813 -0.000268482 18.8842 2.43417e-05C18.8907 2.43417e-05 18.8973 0.000170754 18.9033 2.43417e-05C18.9058 2.43417e-05 18.9082 2.43417e-05 18.9106 -0.00012207C18.914 -0.00012207 18.9182 0.000170754 18.9216 -0.00012207C18.9242 2.43417e-05 18.9268 2.43417e-05 18.9295 -0.00012207C18.9324 -0.00012207 18.9359 -0.00012207 18.9393 -0.00012207C18.9397 -0.00012207 18.94 -0.00012207 18.94 -0.00012207C18.9422 -0.00012207 18.9438 -0.00012207 18.9457 -0.00012207C18.9479 2.43417e-05 18.9501 2.43417e-05 18.9517 -0.00012207C18.9541 -0.00012207 18.9555 -0.00012207 18.9579 -0.00012207C18.9599 -0.00012207 18.962 -0.00012207 18.964 -0.00012207C18.9661 -0.00012207 18.9684 -0.00012207 18.9705 -0.00012207C18.9728 -0.00012207 18.9752 2.43417e-05 18.9774 2.43417e-05C22.9435 0.0190579 26.2266 2.9779 26.6545 6.91067C26.6849 7.18973 26.7006 7.47333 26.7006 7.7603C26.7006 12.0393 23.2195 15.5204 18.9406 15.5204ZM16.269 3.04832C14.6307 3.98111 13.5232 5.74377 13.5232 7.7603C13.5232 10.7475 15.9535 13.1778 18.9406 13.1778C21.6762 13.1778 23.9447 11.1395 24.3075 8.50188C24.1026 8.51798 23.8968 8.52618 23.6904 8.52618C20.2072 8.52618 17.2441 6.25723 16.269 3.04832ZM18.509 2.3596C19.1891 4.5997 21.258 6.18359 23.6905 6.18359C23.8338 6.18359 23.9769 6.17802 24.119 6.1669C23.4407 3.96632 21.3953 2.35945 18.9791 2.34276C18.9771 2.34276 18.9744 2.34291 18.9722 2.34276C18.9694 2.34276 18.9677 2.34247 18.9645 2.34262C18.9617 2.34262 18.9596 2.34247 18.9566 2.34262C18.9538 2.34262 18.9514 2.34247 18.9485 2.34262C18.9456 2.34262 18.9475 2.34306 18.9399 2.34262C18.9375 2.34262 18.9355 2.34276 18.933 2.34262C18.9323 2.34262 18.9315 2.34262 18.9308 2.34262C18.7888 2.34291 18.6482 2.34862 18.509 2.3596Z" fill="white"/>
</svg>
