<svg width="52" height="52" viewBox="0 0 52 52" fill="none" xmlns="http://www.w3.org/2000/svg">
<path d="M45.148 30.4846C46.7188 25.6222 46.608 20.3728 44.8334 15.581C43.0588 10.7893 39.7236 6.734 35.3646 4.06778C31.0056 1.40156 25.8762 0.279505 20.8021 0.882195C15.728 1.48488 11.0042 3.77727 7.39101 7.39041C3.77781 11.0035 1.48536 15.7273 0.8826 20.8014C0.279836 25.8755 1.40182 31.0049 4.06798 35.3639C6.73414 39.723 10.7894 43.0583 15.5811 44.8329C20.3728 46.6076 25.6223 46.7185 30.4846 45.1477C31.2499 46.7186 32.3795 48.084 33.7792 49.13C35.179 50.1761 36.8084 50.8725 38.5318 51.1614C40.2552 51.4502 42.0227 51.3231 43.687 50.7905C45.3513 50.258 46.8643 49.3355 48.0999 48.0999C49.3356 46.8643 50.2581 45.3513 50.7906 43.687C51.3232 42.0227 51.4503 40.2552 51.1615 38.5318C50.8727 36.8084 50.1763 35.179 49.1303 33.7792C48.0842 32.3794 46.7189 31.2499 45.148 30.4846ZM23.4687 44.5624C11.8377 44.5624 2.37499 35.0998 2.37499 23.4687C2.37499 11.8376 11.8377 2.37494 23.4687 2.37494C35.0998 2.37494 44.5625 11.8376 44.5625 23.4687C44.5651 25.6376 44.2326 27.794 43.5767 29.8614C43.0356 29.6943 42.4823 29.5698 41.9218 29.4889C42.5556 27.5452 42.8774 25.5132 42.875 23.4687C42.875 12.768 34.1694 4.06244 23.4687 4.06244C12.7681 4.06244 4.0625 12.768 4.0625 23.4687C4.0625 34.1693 12.7681 42.8749 23.4687 42.8749C25.5133 42.8777 27.5453 42.5563 29.4891 41.9226C29.57 42.4826 29.6944 43.0355 29.8613 43.5762C27.794 44.2322 25.6377 44.5649 23.4687 44.5624ZM29.3771 40.1782C27.7467 40.7552 26.0402 41.0887 24.3125 41.1677V40.3437C24.3125 40.1199 24.2236 39.9053 24.0654 39.7471C23.9071 39.5888 23.6925 39.4999 23.4687 39.4999C23.245 39.4999 23.0304 39.5888 22.8721 39.7471C22.7139 39.9053 22.625 40.1199 22.625 40.3437V41.1669C18.5127 40.9737 14.5974 39.3492 11.5563 36.5743L12.133 35.9976C12.2121 35.9195 12.275 35.8264 12.318 35.7238C12.361 35.6213 12.3834 35.5112 12.3837 35.4C12.384 35.2887 12.3624 35.1785 12.3199 35.0757C12.2775 34.9729 12.2152 34.8794 12.1365 34.8008C12.0579 34.7221 11.9645 34.6598 11.8616 34.6174C11.7588 34.575 11.6486 34.5533 11.5374 34.5537C11.4261 34.554 11.316 34.5764 11.2135 34.6194C11.1109 34.6624 11.0179 34.7253 10.9397 34.8045L10.3631 35.3812C7.58827 32.3401 5.96374 28.4247 5.77056 24.3124H6.59375C6.81752 24.3124 7.03213 24.2235 7.19037 24.0653C7.3486 23.9071 7.4375 23.6925 7.4375 23.4687C7.4375 23.2449 7.3486 23.0303 7.19037 22.8721C7.03213 22.7138 6.81752 22.6249 6.59375 22.6249H5.77056C5.96378 18.5127 7.58831 14.5973 10.3631 11.5562L11.0592 12.2523C11.1372 12.3321 11.2303 12.3956 11.333 12.4392C11.4357 12.4828 11.5461 12.5055 11.6577 12.5062C11.7693 12.5068 11.8799 12.4853 11.9831 12.4429C12.0864 12.4005 12.1802 12.338 12.2591 12.2591C12.338 12.1802 12.4005 12.0864 12.4429 11.9832C12.4853 11.88 12.5069 11.7694 12.5062 11.6578C12.5056 11.5462 12.4829 11.4358 12.4393 11.3331C12.3958 11.2303 12.3322 11.1373 12.2525 11.0592L11.5564 10.3631C14.5974 7.58828 18.5128 5.96371 22.625 5.77051V6.59369C22.625 6.81747 22.7139 7.03208 22.8721 7.19031C23.0304 7.34854 23.245 7.43744 23.4687 7.43744C23.6925 7.43744 23.9071 7.34854 24.0654 7.19031C24.2236 7.03208 24.3125 6.81747 24.3125 6.59369V5.77051C28.4247 5.96368 32.3401 7.58821 35.3812 10.363L34.8045 10.9397C34.6479 11.0983 34.5604 11.3124 34.561 11.5353C34.5617 11.7582 34.6506 11.9718 34.8082 12.1293C34.9658 12.2869 35.1794 12.3758 35.4023 12.3764C35.6251 12.3771 35.8392 12.2896 35.9978 12.1329L36.5744 11.5562C39.3492 14.5973 40.9738 18.5127 41.1669 22.6249H40.3437C40.12 22.6249 39.9054 22.7138 39.7471 22.8721C39.5889 23.0303 39.5 23.2449 39.5 23.4687C39.5 23.6925 39.5889 23.9071 39.7471 24.0653C39.9054 24.2235 40.12 24.3124 40.3437 24.3124H41.1677C41.0883 26.0401 40.7547 27.7466 40.1776 29.377C37.3275 29.4234 34.6071 30.5763 32.5916 32.592C30.5761 34.6076 29.4233 37.3281 29.3771 40.1782ZM40.3437 49.6249C38.5081 49.6249 36.7137 49.0806 35.1874 48.0608C33.6611 47.0409 32.4715 45.5914 31.769 43.8955C31.0665 42.1995 30.8827 40.3334 31.2408 38.533C31.599 36.7326 32.4829 35.0789 33.7809 33.7809C35.0789 32.4828 36.7327 31.5989 38.5331 31.2408C40.3335 30.8827 42.1996 31.0665 43.8955 31.7689C45.5915 32.4714 47.041 33.661 48.0608 35.1873C49.0807 36.7136 49.625 38.508 49.625 40.3437C49.6222 42.8044 48.6435 45.1635 46.9035 46.9034C45.1635 48.6434 42.8044 49.6221 40.3437 49.6249Z" fill="white"/>
</svg>
