<svg width="67" height="67" viewBox="0 0 67 67" fill="none" xmlns="http://www.w3.org/2000/svg">
<g clip-path="url(#clip0_27_40980)">
<path d="M27.1713 49.5141L39.642 46.0846L52.0813 42.6453L51.3005 35.1367L38.8504 38.5553L26.3797 41.9847L27.1713 49.5141Z" fill="url(#paint0_linear_27_40980)"/>
<path d="M30.2212 14.5619L46.9325 30.0598L63.6232 45.5684L62.8316 38.0391L46.1517 22.5511L29.4404 7.05322L30.2212 14.5619Z" fill="url(#paint1_linear_27_40980)"/>
<path d="M23.613 28.7299L17.7963 50.4272L18.5879 57.9565L24.4045 36.2592L30.2212 14.5618L29.4404 7.05312L23.613 28.7299Z" fill="url(#paint2_linear_27_40980)"/>
<path d="M24.4046 36.2591L30.2213 14.5618L46.9326 30.0596L63.6232 45.5683L41.0953 51.7678L18.5879 57.9565L24.4046 36.2591ZM52.0811 42.6453L42.8348 34.0741L33.5885 25.5028L30.3955 37.5134L27.1711 49.5141L39.6418 46.0846L52.0811 42.6453Z" fill="url(#paint3_linear_27_40980)"/>
</g>
<defs>
<linearGradient id="paint0_linear_27_40980" x1="44.6159" y1="48.8318" x2="33.8528" y2="35.8096" gradientUnits="userSpaceOnUse">
<stop stop-color="#F250FE"/>
<stop offset="1" stop-color="#722FBA"/>
</linearGradient>
<linearGradient id="paint1_linear_27_40980" x1="62.9201" y1="46.1525" x2="30.1285" y2="6.47784" gradientUnits="userSpaceOnUse">
<stop stop-color="#F250FE"/>
<stop offset="1" stop-color="#722FBA"/>
</linearGradient>
<linearGradient id="paint2_linear_27_40980" x1="34.2986" y1="44.962" x2="13.7081" y2="20.0494" gradientUnits="userSpaceOnUse">
<stop stop-color="#FF62FF"/>
<stop offset="1" stop-color="#A2B5FA"/>
</linearGradient>
<linearGradient id="paint3_linear_27_40980" x1="49.5448" y1="19.2237" x2="35.9616" y2="71.366" gradientUnits="userSpaceOnUse">
<stop stop-color="#CF65B0"/>
<stop offset="0.9946" stop-color="#FEFFB7"/>
</linearGradient>
<clipPath id="clip0_27_40980">
<rect width="49.9799" height="48.4341" fill="white" transform="translate(23.1943 66.749) rotate(-117.65)"/>
</clipPath>
</defs>
</svg>
