<svg width="342" height="374" viewBox="0 0 342 374" fill="none" xmlns="http://www.w3.org/2000/svg">
<g clip-path="url(#clip0_17_37156)">
<path d="M342 284.048C341.159 289.846 306.286 314.261 299.403 319.067C293.897 322.958 289.079 324.789 280.743 327.918C261.777 332.877 142.857 368.278 142.857 368.278C142.551 367.057 142.398 365.989 141.71 364.692C137.274 366.447 132.685 367.591 129.779 368.507C125.344 369.88 90.2413 371.024 83.0526 372.398C75.8639 373.771 61.4864 375.984 55.6743 370.49C49.8621 364.997 59.2686 353.095 67.2986 350.043C75.3285 346.991 104.619 346.152 109.896 345.618C115.172 345.084 122.055 343.1 125.42 344.245C126.491 344.626 131.079 343.253 136.968 341.193C136.815 339.057 136.815 337.683 136.815 337.683L168.017 328.681L162.205 273.519C162.205 273.519 175.818 222.477 230.039 261.388C230.039 261.388 242.122 264.974 246.329 266.042C246.634 266.118 247.093 266.118 247.705 266.118C255.964 265.508 291.526 254.75 304.45 254.75C318.292 254.75 322.728 253.911 327.699 256.429C332.593 258.87 342.841 278.249 342 284.048Z" fill="#996239"/>
<path d="M286.402 370.414C280.59 375.907 266.212 373.695 259.024 372.322C251.835 370.948 216.656 369.804 212.297 368.43C207.861 367.057 199.602 365.15 193.79 361.259C193.331 360.953 192.26 360.496 190.654 359.885L181.859 366.218L59.6511 327.46C52.3094 325.476 46.4972 322.424 42.6734 319.067C36.3259 313.574 0.917618 289.846 0.0763841 284.048C-0.76485 278.249 9.48291 258.947 14.4538 256.429C19.4248 253.911 23.8604 254.75 37.7025 254.75C51.5446 254.75 91.618 267.186 95.8242 266.042C97.736 265.508 101.636 263.524 105.307 261.541C109.743 259.099 113.872 256.658 113.872 256.658C173.294 230.183 179.871 273.519 179.871 273.519L176.353 327.002C176.353 327.002 181.324 329.443 187.748 332.495L217.191 340.812L213.368 343.558C215.05 344.092 216.197 344.321 216.656 344.169C219.944 343.1 226.904 345.008 232.181 345.542C237.457 346.076 266.748 346.915 274.778 349.967C282.808 353.019 292.214 364.921 286.402 370.414Z" fill="#996239"/>
<path d="M105.231 261.541C109.36 261.846 137.045 277.792 143.621 281.683C133.603 276.495 95.7476 266.042 95.7476 266.042C97.6595 265.584 101.56 263.601 105.231 261.541Z" fill="#5478B3"/>
<path d="M247.629 266.118C247.629 266.118 199.908 277.639 191.189 282.522C191.572 282.217 216.35 263.448 229.351 261.007C229.351 261.007 242.122 265.05 246.252 266.118C246.558 266.118 247.017 266.195 247.629 266.118Z" fill="#D88A51"/>
<path d="M286.402 370.414C280.59 375.907 266.212 373.695 259.024 372.321C251.835 370.948 216.656 369.804 212.297 368.43C210.997 368.049 209.467 367.591 207.708 367.057C203.349 365.76 197.919 364.005 193.79 361.259C193.331 360.953 192.26 360.496 190.654 359.885L212.756 343.94L213.368 343.482C215.05 344.016 216.197 344.245 216.656 344.092C219.945 343.024 226.904 344.931 232.181 345.466C237.458 346 266.748 346.839 274.778 349.891C282.808 353.019 292.214 364.921 286.402 370.414Z" fill="#EEA886"/>
<path d="M286.402 370.414C280.59 375.907 266.212 373.695 259.024 372.321C251.835 370.948 216.656 369.804 212.297 368.43C210.997 368.049 209.467 367.591 207.708 367.057C207.708 367.057 217.344 357.52 212.832 343.94L213.444 343.482C215.126 344.016 216.274 344.245 216.732 344.092C220.021 343.024 226.98 344.931 232.257 345.466C237.534 346 266.824 346.839 274.854 349.891C282.808 353.019 292.214 364.921 286.402 370.414Z" fill="#C5CDDB"/>
<path d="M117.39 273.748C117.467 273.9 117.467 273.977 117.314 274.053C116.778 274.511 116.855 274.282 117.39 273.748Z" fill="#E55353"/>
<path d="M277.301 209.202C276.843 208.286 251.606 168.689 244.799 150.683C237.993 132.678 221.551 124.361 213.826 121.767C211.073 120.852 206.102 119.25 200.978 117.571C191.648 114.519 181.401 111.315 181.401 111.315H149.128C149.128 111.315 137.962 115.053 126.109 119.173C115.173 122.988 103.625 127.184 99.7245 129.092C91.618 133.135 77.9289 162.051 75.1757 165.332C72.4226 168.613 51.1623 207.981 48.0268 223.088C45.656 234.837 115.479 269.246 117.39 273.672C119.608 271.23 129.779 261.464 129.779 261.464C129.779 261.464 126.491 259.404 121.902 256.429C140.639 257.268 186.372 255.666 192.949 255.971C194.249 256.047 195.702 255.971 197.155 255.895C199.22 257.344 212.297 268.941 212.297 268.941C212.297 268.941 244.57 255.59 259.406 240.636C280.513 219.426 279.596 213.932 277.301 209.202ZM93.7594 235.371C86.8765 227.055 77.317 222.096 79.6878 218.434C82.0586 214.772 102.401 179.828 102.401 179.828C102.401 179.828 112.878 202.793 115.861 214.772C118.843 226.75 118.614 232.243 117.314 235.905C116.167 239.262 115.326 241.475 114.331 251.47C106.072 245.824 96.9713 239.186 93.7594 235.371ZM236.463 231.404C233.787 234.456 223.004 241.246 213.368 246.892C212.603 240.254 211.532 229.725 211.379 225.911C211.226 220.188 213.597 203.861 216.58 197.605C219.562 191.349 221.551 174.259 221.551 174.259C221.551 174.259 246.023 207.371 249.847 210.88C253.747 214.39 245.64 221.028 236.463 231.404Z" fill="#E55353"/>
<path d="M131.921 313.04C131.921 313.04 93.3005 289.922 76.3993 286.337C60.4923 282.903 54.6802 276.952 54.6802 276.952C54.6802 276.952 80.0702 276.952 96.8948 288.931C108.366 297.018 131.921 313.04 131.921 313.04Z" fill="#694327"/>
<path d="M166.258 329.138C166.258 329.138 233.481 293.966 260.935 286.26C276.613 281.911 282.731 276.876 282.731 276.876C282.731 276.876 241.205 280.92 215.891 296.102C203.808 303.427 166.258 329.138 166.258 329.138Z" fill="#694327"/>
<path d="M141.71 364.692C137.274 366.447 132.685 367.591 129.779 368.507C125.344 369.88 90.2413 371.024 83.0526 372.398C75.8639 373.771 61.4864 375.984 55.6743 370.49C49.8621 364.997 59.2686 353.095 67.2986 350.043C75.3285 346.991 104.619 346.152 109.896 345.618C115.172 345.084 122.055 343.1 125.42 344.245C126.491 344.626 131.079 343.253 136.968 341.193C137.045 344.626 141.71 364.692 141.71 364.692Z" fill="#EEA886"/>
<path d="M166.258 361.335L232.333 341.803L219.256 337.836C219.256 337.836 166.488 356.91 166.258 361.335Z" fill="#996239"/>
<path d="M166.258 361.335L197.155 351.951L175.741 364.31L166.258 361.335Z" fill="#694327"/>
<path d="M144.998 282.522C144.922 282.522 144.463 282.217 143.622 281.683C144.157 281.988 144.616 282.217 144.998 282.522Z" fill="#525252"/>
<path d="M129.779 368.507C125.344 369.88 90.2413 371.024 83.0526 372.398C75.8639 373.771 61.4864 375.984 55.6743 370.49C49.8621 364.997 59.2686 353.095 67.2986 350.043C75.3285 346.991 104.619 346.152 109.896 345.618C115.172 345.084 122.055 343.1 125.42 344.245C125.344 344.169 116.473 357.673 129.779 368.507Z" fill="#C5CDDB"/>
<path d="M107.984 276.952L97.8125 219.197L229.427 216.145L220.939 272.985C220.939 272.985 178.953 288.32 164.652 297.247C164.652 297.247 128.632 282.522 107.984 276.952Z" fill="#525252"/>
<path d="M181.706 111.468V111.391C180.1 107.882 180.865 90.7915 180.865 90.7915C180.865 90.7915 148.745 82.6279 149.663 88.8841C150.581 95.1403 146.91 112.154 146.91 112.154L130.391 117.8C130.391 117.8 147.981 164.874 168.17 158.771C188.36 152.667 196.007 116.045 196.007 116.045L181.706 111.468Z" fill="#EEA886"/>
<path d="M163.811 21.8205C163.811 21.8205 197.766 13.8858 194.248 55.8482C190.654 98.4974 182.93 103.457 172.07 104.22C158.458 105.135 144.539 99.2603 136.815 66.2244C129.32 34.7907 143.01 21.8205 163.811 21.8205Z" fill="#EEA886"/>
<path d="M139.186 75.2272C139.186 75.2272 137.503 68.6658 139.874 67.0636C142.933 65.0037 144.692 68.5133 144.692 68.5133L147.981 68.3607C147.981 68.3607 142.857 56.8401 153.181 55.7719C163.505 54.7038 185.224 55.3905 191.189 51.8046C191.189 51.8046 192.719 59.5867 192.642 61.4941C192.642 63.3252 193.56 61.723 193.56 61.723C193.56 61.723 199.143 31.6626 181.63 19.2264C164.117 6.71399 142.245 16.4035 137.58 27.5426C132.915 38.6818 130.697 49.9735 139.186 75.2272Z" fill="#292C47"/>
<path d="M133.45 52.6438L98.2715 37.2321L167.023 0L225.298 29.6026L194.402 46.0824L133.45 52.6438Z" fill="#292929"/>
<path d="M134.138 55.4667C134.138 55.4667 167.635 44.938 194.478 49.5157L194.248 42.0388C194.248 42.0388 169.088 36.0114 132.532 47.2269L134.138 55.4667Z" fill="#525252"/>
<path d="M124.389 40.588L122.707 40.591L122.781 81.4853L124.463 81.4823L124.389 40.588Z" fill="#292929"/>
<path d="M123.661 80.7968C123.585 80.7968 123.661 80.7205 123.661 80.7968C123.585 80.7205 123.585 80.7968 123.661 80.7968C119.685 80.9494 120.22 100.939 120.22 100.939H123.661H123.738H127.179C127.103 100.863 127.485 80.9494 123.661 80.7968Z" fill="#292929"/>
<path d="M146.834 112.078C146.834 112.078 149.204 132.372 167.176 129.55C185.148 126.727 181.63 111.391 181.63 111.391C181.63 111.391 200.749 117.495 208.167 120.013C208.167 120.013 193.025 183.643 155.475 175.403C117.926 167.163 130.009 117.876 130.009 117.876L146.834 112.078Z" fill="#E55353"/>
<path d="M178.571 102.846C178.571 102.846 165.417 108.721 152.416 98.1159C152.416 98.1159 157.311 109.102 166.641 109.789C175.818 110.476 178.571 102.846 178.571 102.846Z" fill="#A77860"/>
<path d="M185.989 73.3199C181.477 73.3199 177.806 69.3525 177.806 64.4696C177.806 59.5867 181.477 55.6193 185.989 55.6193C190.501 55.6193 194.172 59.5867 194.172 64.4696C194.172 69.3525 190.501 73.3199 185.989 73.3199ZM185.989 56.9927C182.242 56.9927 179.183 60.3497 179.183 64.4696C179.183 68.5896 182.242 71.9466 185.989 71.9466C189.736 71.9466 192.795 68.5896 192.795 64.4696C192.795 60.3497 189.736 56.9927 185.989 56.9927Z" fill="#292929"/>
<path d="M162.741 75.3035C158.228 75.3035 154.558 71.3362 154.558 66.4533C154.558 61.5704 158.228 57.603 162.741 57.603C167.253 57.603 170.923 61.5704 170.923 66.4533C170.923 71.2599 167.253 75.3035 162.741 75.3035ZM162.741 58.9C158.993 58.9 155.934 62.257 155.934 66.377C155.934 70.4969 158.993 73.8539 162.741 73.8539C166.488 73.8539 169.547 70.4969 169.547 66.377C169.547 62.257 166.488 58.9 162.741 58.9Z" fill="#292929"/>
<path d="M170.312 65.9955L170.006 64.6985C175.741 63.4015 178.494 63.8592 178.647 63.8592L178.418 65.2326C178.418 65.2326 175.741 64.7748 170.312 65.9955Z" fill="#292929"/>
<path d="M138.359 60.7463L137.973 62.0647L155.08 67.0404L155.465 65.722L138.359 60.7463Z" fill="#292929"/>
<path d="M142.551 59.8919C142.551 59.8919 139.186 56.5349 138.192 59.5104C137.274 62.4859 142.551 76.3717 144.31 76.6769C146.145 76.982 146.528 63.9355 142.551 59.8919Z" fill="#EEA886"/>
</g>
<defs>
<clipPath id="clip0_17_37156">
<rect width="342" height="374" fill="white"/>
</clipPath>
</defs>
</svg>
