<svg width="112" height="98" viewBox="0 0 112 98" fill="none" xmlns="http://www.w3.org/2000/svg">
<g clip-path="url(#clip0_27_40955)">
<path d="M0.685547 49H55.9999L83.6532 0.792999H28.3388L0.685547 49Z" stroke="black" stroke-miterlimit="10"/>
<path d="M0.685547 49H55.9999L83.6532 97.207H28.3388L0.685547 49Z" stroke="black" stroke-miterlimit="10"/>
<path d="M72.3682 20.4596H39.624L23.2559 49L39.624 77.5325H72.3682L88.7442 49L72.3682 20.4596Z" fill="url(#paint0_radial_27_40955)"/>
<path d="M83.6532 0.792999H28.3388L0.685547 49L28.3388 97.207H83.6532L111.314 49L83.6532 0.792999Z" stroke="black" stroke-miterlimit="10"/>
<path d="M28.3388 0.792999L55.9999 49L28.3388 97.207L0.685547 49L28.3388 0.792999Z" stroke="black" stroke-miterlimit="10"/>
<path d="M56 49H111.314L83.6533 97.207H28.3389L56 49Z" stroke="black" stroke-miterlimit="10"/>
</g>
<defs>
<radialGradient id="paint0_radial_27_40955" cx="0" cy="0" r="1" gradientUnits="userSpaceOnUse" gradientTransform="translate(56 48.996) rotate(96.179) scale(48.03 55.1201)">
<stop stop-color="#7733D6"/>
<stop offset="1" stop-color="#3502FF"/>
</radialGradient>
<clipPath id="clip0_27_40955">
<rect width="112" height="98" fill="white"/>
</clipPath>
</defs>
</svg>
