<svg width="303" height="90" viewBox="0 0 303 90" fill="none" xmlns="http://www.w3.org/2000/svg">
<g clip-path="url(#clip0_17_37125)">
<path d="M67.9712 50.3723L53.3895 54.3004L52.8154 67.9332L124.231 83.8767L169.239 73.0167L169.469 59.9615" stroke="#D2DDFF" stroke-width="2" stroke-miterlimit="10" stroke-linecap="round" stroke-linejoin="round"/>
<path d="M63.1489 58.113L124.002 71.0526L169.469 59.9615L156.839 53.9538" stroke="#D2DDFF" stroke-width="2" stroke-miterlimit="10" stroke-linecap="round" stroke-linejoin="round"/>
<path d="M53.0451 65.0449C53.0451 65.0449 48.9117 61.81 50.5192 53.0295C52.0118 44.8267 62.3452 47.3684 62.3452 47.3684C81.0603 55.2246 103.564 60.3081 126.183 60.8857C132.842 61.0013 170.847 54.3004 163.613 41.5918C158.906 33.389 144.783 25.6483 127.561 16.1746C117.801 10.8601 114.242 8.89602 85.4233 2.65725C62.0008 -2.42619 29.1633 7.16303 19.1743 14.9037C11.8261 20.4493 7.57789 26.9191 6.77417 36.8549C6.65936 38.0103 1.49263 43.3248 1.26299 46.5597C0.229648 62.5032 6.77417 78.1001 6.77417 78.1001C6.77417 78.1001 44.2043 81.4506 54.997 82.3748C54.997 82.3748 101.383 88.8447 111.027 88.8447C120.672 88.8447 153.05 82.0282 159.135 75.7895" stroke="#D2DDFF" stroke-width="2" stroke-miterlimit="10" stroke-linecap="round" stroke-linejoin="round"/>
<path d="M28.8188 19.9872C28.8188 19.9872 56.7192 21.9512 74.4009 36.3928C74.4009 36.3928 109.764 16.2901 126.642 17.0988" stroke="#D2DDFF" stroke-width="2" stroke-miterlimit="10" stroke-linecap="round" stroke-linejoin="round"/>
<path d="M41.219 40.2054C41.219 40.2054 31.23 49.5635 36.3967 66.5468L7.2334 60.1925" stroke="#D2DDFF" stroke-width="2" stroke-miterlimit="10" stroke-linecap="round" stroke-linejoin="round"/>
<path d="M78.1899 27.2657C78.1899 27.2657 90.8197 13.7484 115.161 12.9397" stroke="#D2DDFF" stroke-width="2" stroke-miterlimit="10" stroke-linecap="round" stroke-linejoin="round"/>
<path d="M164.646 44.7112C164.646 44.7112 169.354 39.8588 171.421 41.4762C173.373 43.0937 164.646 44.7112 164.646 44.7112Z" stroke="#D2DDFF" stroke-width="2" stroke-miterlimit="10" stroke-linecap="round" stroke-linejoin="round"/>
<path d="M124.002 71.0526L123.427 79.602" stroke="#D2DDFF" stroke-width="2" stroke-miterlimit="10" stroke-linecap="round" stroke-linejoin="round"/>
<path d="M136.517 74.8652L168.436 66.8934" stroke="#D2DDFF" stroke-width="2" stroke-miterlimit="10" stroke-linecap="round" stroke-linejoin="round"/>
<path d="M53.1599 62.5032L93.9197 71.2837" stroke="#D2DDFF" stroke-width="2" stroke-miterlimit="10" stroke-linecap="round" stroke-linejoin="round"/>
<path d="M99.7754 73.2477L112.979 75.7895" stroke="#D2DDFF" stroke-width="2" stroke-miterlimit="10" stroke-linecap="round" stroke-linejoin="round"/>
<path d="M8.03711 36.5083C8.03711 36.5083 15.3853 32.8113 34.5597 38.1258" stroke="#D2DDFF" stroke-width="2" stroke-miterlimit="10" stroke-linecap="round" stroke-linejoin="round"/>
<path d="M89.6714 47.0218C89.6714 47.0218 109.994 51.9897 130.316 51.9897C135.024 51.9897 151.328 47.715 155.002 45.751C167.172 39.3967 142.142 24.8395 142.142 24.8395" stroke="#D2DDFF" stroke-width="2" stroke-miterlimit="10" stroke-linecap="round" stroke-linejoin="round"/>
<path d="M215.855 77.4069H185.313V8.43388L195.647 1.84851H215.855V77.4069Z" stroke="#D2DDFF" stroke-width="2" stroke-miterlimit="10" stroke-linecap="round" stroke-linejoin="round"/>
<path d="M195.647 1.84851V77.0603" stroke="#D2DDFF" stroke-width="2" stroke-miterlimit="10" stroke-linecap="round" stroke-linejoin="round"/>
<path d="M208.047 13.1707H200.24V72.6701H208.047V13.1707Z" fill="#D0DFFF"/>
<path d="M211.032 10.2824H203.225V69.7818H211.032V10.2824Z" stroke="#D2DDFF" stroke-width="2" stroke-miterlimit="10" stroke-linecap="round" stroke-linejoin="round"/>
<path d="M253.17 77.4069H215.625V8.43388L225.958 1.84851H253.17V77.4069Z" stroke="#D2DDFF" stroke-width="2" stroke-miterlimit="10" stroke-linecap="round" stroke-linejoin="round"/>
<path d="M225.958 1.84851V77.0603" stroke="#D2DDFF" stroke-width="2" stroke-miterlimit="10" stroke-linecap="round" stroke-linejoin="round"/>
<path d="M245.477 13.1707H230.666V72.6701H245.477V13.1707Z" fill="#D0DFFF"/>
<path d="M248.462 10.2824H233.651V69.7818H248.462V10.2824Z" stroke="#D2DDFF" stroke-width="2" stroke-miterlimit="10" stroke-linecap="round" stroke-linejoin="round"/>
<path d="M263.503 23.1066L270.507 19.294L292.552 66.5469L285.203 71.0526L263.503 23.1066Z" fill="#D0DFFF"/>
<path d="M253.973 18.2542L255.122 14.6727L284.285 77.0603H264.766L254.318 55.5713L253.973 18.2542Z" stroke="#D2DDFF" stroke-width="2" stroke-miterlimit="10" stroke-linecap="round" stroke-linejoin="round"/>
<path d="M284.285 77.0603L255.122 14.6727L272.574 6.23877L301.852 67.5866L284.285 77.0603Z" stroke="#D2DDFF" stroke-width="2" stroke-miterlimit="10" stroke-linecap="round" stroke-linejoin="round"/>
<path d="M264.651 20.4493L271.655 16.6367L293.7 63.7741L286.352 68.2798L264.651 20.4493Z" stroke="#D2DDFF" stroke-width="2" stroke-miterlimit="10" stroke-linecap="round" stroke-linejoin="round"/>
</g>
<defs>
<clipPath id="clip0_17_37125">
<rect width="303" height="90" fill="white"/>
</clipPath>
</defs>
</svg>
