<svg width="118" height="115" viewBox="0 0 118 115" fill="none" xmlns="http://www.w3.org/2000/svg">
<path d="M42.2737 45.1593L41.0028 32.2101C32.4867 28.3594 25.113 25.6169 25.113 25.6169C22.8961 40.5458 25.2741 52.8022 30.0495 62.779L44.2951 67.3522L33.766 69.4057C49.5699 93.8509 79.5894 102.043 79.5894 102.043C79.5894 102.043 71.1947 57.3027 65.9852 48.0911C63.963 44.5371 57.4186 40.3638 50.1428 36.595C47.1275 40.3285 42.2737 45.1593 42.2737 45.1593Z" fill="#02CCC0"/>
<path d="M25.122 25.602C25.122 25.602 54.1099 81.5909 79.6046 102.052C79.6046 102.052 71.2099 57.3119 66.0005 48.1003C63.9782 44.5463 57.4338 40.373 50.158 36.6043C47.1517 40.3226 42.2979 45.1534 42.2979 45.1534L41.027 32.2042C32.4807 28.3355 25.122 25.602 25.122 25.602Z" fill="#06BFAD"/>
<path d="M64.235 24.3402C60.1083 32.5287 58.1834 40.5927 57.7835 48.2938C60.7371 50.314 64.2178 52.7904 64.2178 52.7904L57.7379 53.6069C58.7293 82.9426 80.2394 105.6 80.2394 105.6C89.5637 87.8337 91.3443 73.1571 89.4663 61.4023C87.1378 60.8788 83.656 60.1612 83.656 60.1612L88.7194 57.6646C87.3819 52.062 85.218 47.1963 82.7104 43.0471C80.0825 44.3713 77.0779 45.7786 77.0779 45.7786L80.1498 39.1939C72.8639 29.1378 64.235 24.3402 64.235 24.3402Z" fill="#02CCC0"/>
<path d="M89.4511 61.3933C87.1227 60.8698 83.6409 60.1523 83.6409 60.1523L88.7043 57.6556C87.3668 52.053 85.2029 47.1873 82.6953 43.0381C80.0674 44.3623 77.0627 45.7696 77.0627 45.7696L80.1347 39.1849C72.8398 29.1439 64.226 24.3553 64.226 24.3553C63.0074 58.7212 80.2243 105.591 80.2243 105.591C89.5576 87.8095 91.3532 73.142 89.4511 61.3933Z" fill="#06BFAD"/>
</svg>
