<svg width="85" height="64" viewBox="0 0 85 64" fill="none" xmlns="http://www.w3.org/2000/svg">
<path d="M20.8462 17.4529L7.82831 17.2242C3.30724 9.0265 0 1.91946 0 1.91946C14.7067 -1.47574 27.1088 -0.0860054 37.4351 3.88972L43.1349 17.7344L44.3487 7.07381C69.9622 20.9009 80.5172 50.1559 80.5172 50.1559C80.5172 50.1559 35.2538 45.3358 25.6487 40.8675C21.9368 39.1435 17.275 32.9512 12.9299 25.9849C16.4131 22.6776 20.8462 17.4529 20.8462 17.4529Z" fill="#FF5B7E"/>
<path d="M0 1.90186C0 1.90186 58.123 26.3543 80.5348 50.1383C80.5348 50.1383 35.2714 45.3182 25.6663 40.8499C21.9544 39.1259 17.2926 32.9336 12.9475 25.9673C16.4131 22.6601 20.8462 17.4353 20.8462 17.4353L7.82831 17.2066C3.32483 9.02649 0 1.90186 0 1.90186Z" fill="#E03268"/>
<path d="M1.84717 40.9908C9.67547 36.2234 17.5741 33.6726 25.2089 32.6523C27.4431 35.4318 30.205 38.7038 30.205 38.7038L30.4865 32.1773C59.7942 30.8403 84.0884 50.4903 84.0884 50.4903C67.1124 61.186 52.6168 64.1414 40.76 63.1915C40.0563 60.9045 39.0536 57.5094 39.0536 57.5094L36.9602 62.7517C31.2781 61.8545 26.2468 60.0953 21.9193 57.914C23.0276 55.1872 24.2062 52.0911 24.2062 52.0911L17.8908 55.6798C7.31818 49.2061 1.84717 40.9908 1.84717 40.9908Z" fill="#FF5B7E"/>
<path d="M40.7776 63.1913C40.0739 60.9044 39.0712 57.5092 39.0712 57.5092L36.9778 62.7515C31.2957 61.8543 26.2644 60.0952 21.9369 57.9138C23.0452 55.1871 24.2238 52.091 24.2238 52.091L17.9084 55.6797C7.31817 49.2059 1.86475 40.9906 1.86475 40.9906C36.0278 37.0501 84.1059 50.4901 84.1059 50.4901C67.1299 61.2035 52.6344 64.1589 40.7776 63.1913Z" fill="#E03268"/>
</svg>
