<svg width="123" height="380" viewBox="0 0 123 380" fill="none" xmlns="http://www.w3.org/2000/svg">
<path d="M79.729 196.833L103.017 198.72L95.5081 217.546L83.7554 216.603L78.8584 232.309C77.6614 231.765 76.7908 231.366 76.6095 231.221C76.2467 230.967 74.9409 223.205 73.8164 215.841L79.729 196.833Z" fill="#DAEEF7"/>
<path d="M93.0049 370.04V378.238C93.0049 378.927 93.549 379.471 94.2382 379.471H113.391C114.769 379.471 115.313 377.658 114.152 376.896L103.415 370.04C103.379 370.04 99.1714 373.124 93.0049 370.04Z" fill="#E03268"/>
<path d="M55.3893 22.1029C55.0991 22.2117 54.8089 21.9578 54.8815 21.6676C55.3531 19.3824 56.8402 12.2002 56.2599 11.9463C55.6069 11.6561 54.156 18.0402 53.4668 18.1128C52.8139 18.1853 54.3737 11.9825 53.6482 11.8012C52.8864 11.5835 51.6531 17.2785 51.2904 17.3148C50.9276 17.351 51.5806 11.7649 51.1816 11.3659C50.8189 10.9669 49.4404 16.8432 49.0052 16.9883C48.6062 17.1334 48.2071 12.7443 47.8081 12.7443C47.4454 12.7443 47.1915 12.6717 45.2327 22.7558C45.2327 22.7558 45.1239 26.4557 44.4709 27.3263L45.9219 30.3008L50.4561 30.4459C50.4561 30.4459 60.2863 21.5588 60.2138 21.0147C60.1412 20.5431 59.7059 20.4343 55.3893 22.1029Z" fill="#FFC0BB"/>
<path d="M101.929 24.3517C102.11 24.5694 102.509 24.4968 102.582 24.2066C103.198 21.9576 105.157 14.8843 105.774 14.9205C106.499 14.9568 104.903 21.3047 105.447 21.6675C105.992 22.0302 107.406 15.7911 108.168 15.9725C108.93 16.1176 107.442 21.7763 107.769 21.9576C108.059 22.139 110.054 16.8793 110.562 16.6979C111.07 16.5166 109.619 22.3929 109.909 22.7194C110.199 23.0459 112.557 19.3097 112.884 19.491C113.21 19.6724 113.464 19.7087 110.598 29.5751C110.598 29.5751 109.002 32.9123 109.184 34.0005L106.536 35.9956L102.437 34.0731C102.437 34.0731 97.7574 21.7037 98.0476 21.2322C98.4104 20.7969 98.8456 20.8694 101.929 24.3517Z" fill="#FFC0BB"/>
<path d="M65.9818 105.278L66.0543 122.581L49.2959 119.969L52.089 100.562L65.9818 105.278Z" fill="#FFC0BB"/>
<path opacity="0.6" d="M50.7827 109.486L52.0886 100.527L66.0177 106.911V110.321C62.6805 111.155 56.3689 111.88 50.7827 109.486Z" fill="#FC8D84"/>
<path d="M35.6566 369.134V378.13C35.6566 378.855 35.04 379.472 34.3145 379.472H13.2395C11.716 379.472 11.1356 377.477 12.4052 376.642L24.2304 369.097C24.2304 369.134 28.8734 372.507 35.6566 369.134Z" fill="#E03268"/>
<path d="M16.4318 216.167C16.468 214.245 11.4623 219.903 11.5711 218.38C13.5299 186.423 75.9933 213.229 75.9933 213.229L91.2282 224.401L108.458 372.543C108.458 372.543 99.0997 375.264 92.9694 373.051L54.8457 246.093L50.1663 244.279C50.1301 244.279 29.2727 229.734 16.4318 216.167Z" fill="#07085B"/>
<path d="M11.426 220.846C11.426 221.245 11.3896 221.644 11.3896 222.08C11.3896 221.681 11.3897 221.245 11.426 220.846Z" fill="#06BFAD"/>
<path d="M11.3534 222.262C11.3534 222.697 11.3171 223.133 11.3171 223.604C11.3534 223.133 11.3534 222.697 11.3534 222.262Z" fill="#06BFAD"/>
<path d="M11.5347 218.38C11.4984 218.743 11.4984 219.069 11.4622 219.468C11.4984 219.069 11.5347 218.743 11.5347 218.38Z" fill="#06BFAD"/>
<path d="M11.5351 211.126C24.4123 224.692 50.1304 244.316 50.1304 244.316L35.6209 372.58C35.6209 372.58 25.2829 374.539 19.4065 371.347C19.4065 371.347 10.7008 249.249 11.5351 211.126Z" fill="#07085B"/>
<path d="M99.8974 373.886C98.8092 373.922 97.721 373.922 96.6328 373.813C97.721 373.922 98.8092 373.958 99.8974 373.886Z" fill="#06BFAD"/>
<path d="M91.228 224.402L93.6946 245.549C87.2016 248.052 71.35 250.773 59.4159 224.656C55.6435 216.422 54.7003 210.509 55.3895 206.229C66.8157 209.276 75.993 213.23 75.993 213.23L91.228 224.402Z" fill="#050645"/>
<path d="M33.9155 138.106C34.641 138.106 45.4505 113.585 45.4505 113.585C54.7003 120.078 67.251 115.58 67.251 115.58C67.251 115.58 117.78 208.078 83.9007 222.479C50.021 236.916 18.0276 219.359 18.0276 219.359C18.0276 219.359 10.8091 200.606 10.8091 199.88C10.8091 199.155 33.19 138.106 33.9155 138.106Z" fill="#DAEEF7"/>
<path d="M99.7884 34.2551C99.7884 34.2551 101.965 78.1463 97.866 86.1628C84.227 112.86 67.2872 115.545 67.2872 115.545C67.2872 115.545 61.4471 208.877 66.2715 231.221C66.2715 231.221 82.2682 236.155 105.81 225.091C105.81 225.091 87.7818 152.725 88.7249 143.584C88.7249 143.584 117.563 117.866 118.542 87.5774C119.521 57.2889 111.577 30.3738 111.577 30.3738L99.7884 34.2551Z" fill="#55769F"/>
<path d="M22.0181 227.884C22.0181 227.884 23.8318 193.134 31.7395 160.197C39.6835 127.261 45.451 113.549 45.451 113.549C34.8228 101.833 36.5639 91.2408 37.507 77.493C38.5952 61.6414 54.0841 29.9019 54.0841 29.9019L43.6373 23.0461C-6.49302 83.2605 21.2927 131.214 21.2927 131.214C21.2927 131.214 2.53916 197.559 0 217.764C0 217.8 9.97526 223.567 22.0181 227.884Z" fill="#55769F"/>
<path d="M88.2177 143.512C87.6011 143.076 86.9119 142.423 86.1864 141.589C84.0462 139.014 82.958 136.148 82.1963 132.92C82.6678 134.298 83.9012 138.288 86.4766 141.335C87.6374 142.677 88.254 143.113 88.8344 143.475C88.7618 143.548 88.6893 143.62 88.6893 143.62C88.6893 143.693 88.6893 143.729 88.6893 143.802C88.0364 143.947 86.8394 143.983 84.8806 142.895C83.6473 142.242 82.7041 141.444 81.6885 140.61C82.3414 141.081 83.7198 142.061 85.0256 142.677C85.8962 143.149 87.2384 143.584 88.2177 143.512Z" fill="white"/>
<path d="M21.6556 131.033C22.5262 130.489 23.2517 129.691 23.9409 128.929C26.081 126.427 27.2417 123.488 28.2211 120.514C27.4594 123.742 26.3712 126.608 24.231 129.183C23.5418 130.018 22.8164 130.671 22.1997 131.106C22.6713 131.142 23.2516 131.033 23.6144 130.924C24.231 130.779 24.8477 130.525 25.4281 130.235C26.6251 129.655 27.8221 128.821 28.7652 128.168C27.8584 128.929 26.8428 129.8 25.5732 130.453C24.9928 130.779 24.3761 131.033 23.7232 131.215C23.0703 131.396 22.4173 131.505 21.6556 131.324L21.2566 131.215L21.6556 131.033Z" fill="white"/>
<path d="M41.9319 70.0209L40.9163 81.8824L42.7662 83.0794L46.2485 68.6062L41.9319 70.0209Z" fill="#07085B"/>
<path d="M44.4353 80.6485C44.9432 83.3328 43.6373 85.8357 41.4609 86.271C39.3207 86.67 37.1443 84.8563 36.6365 82.1358C36.1287 79.4515 37.4345 76.9486 39.6109 76.5134C41.7511 76.1143 43.9275 77.9643 44.4353 80.6485Z" fill="#F99893"/>
<path d="M41.3514 91.6035C40.8073 88.1575 40.8799 84.6752 41.1701 81.6282C41.2426 80.9753 41.2788 80.3223 41.2788 79.6694C41.3514 77.0577 41.8955 74.3734 43.0563 71.7255C46.7562 63.2011 55.7884 58.0503 65.0019 59.1748C77.4075 60.6983 85.6053 72.3784 83.2113 84.3125C84.6622 83.8409 86.1495 83.986 87.3102 84.8203C89.5592 86.4163 89.7406 89.9712 87.7818 92.7642C85.7868 95.5573 82.377 96.5367 80.128 94.9407C79.8015 94.723 79.5476 94.4691 79.33 94.1789C76.2467 104.118 66.3803 110.321 56.405 108.144C48.8238 106.548 42.5847 100.309 41.3514 91.6035Z" fill="#FFC0BB"/>
<path d="M64.313 82.1361C63.8415 83.3694 64.712 84.6753 66.0541 84.6753C66.7796 84.6753 67.4688 84.2037 67.7227 83.5145C68.2306 82.2812 67.3237 80.9753 65.9816 80.9753C65.2561 80.9753 64.567 81.4469 64.313 82.1361Z" fill="#333333"/>
<path d="M48.606 79.7775C48.1344 81.0108 49.005 82.3166 50.3471 82.3166C51.0726 82.3166 51.7618 81.8451 52.0157 81.1559C52.4873 79.9226 51.6167 78.6167 50.2746 78.6167C49.5491 78.653 48.8599 79.0883 48.606 79.7775Z" fill="#333333"/>
<path d="M61.8458 95.0491C60.8664 95.5207 59.7782 95.8834 58.8713 96.0647C57.8557 96.2461 56.8037 96.3187 55.788 96.1736C54.7724 96.0285 53.793 95.6657 52.8861 95.1579C51.9793 94.6138 51.1813 93.9246 50.4558 93.1628C51.1813 94.2148 51.8705 94.7952 52.7048 95.4118C53.6116 95.9922 54.5547 96.3912 55.7155 96.5363C56.8037 96.6814 57.8919 96.6089 58.9076 96.3187C59.9958 96.0648 60.9752 95.6658 61.8458 95.0491Z" fill="#F99893"/>
<path d="M62.8254 78.4002C63.8048 78.2188 64.7117 78.11 65.5823 78.11C66.4528 78.11 67.3234 78.1825 68.1577 78.4002C68.9557 78.6178 69.79 78.9443 70.5155 79.4158C71.5311 79.9962 72.2566 80.6854 72.7644 81.0481C72.4379 80.2139 71.8938 79.1982 71.1321 78.5815C70.4066 77.8561 69.4636 77.3845 68.4842 77.0943C67.4685 76.8404 66.4165 76.8041 65.4371 77.058C64.4577 77.2757 63.5509 77.711 62.8254 78.4002Z" fill="#07085B"/>
<path d="M55.4619 77.1663C54.9903 76.2957 54.2648 75.6065 53.3943 75.0624C52.5237 74.5183 51.5443 74.1919 50.4924 74.1193C49.4767 74.0468 48.3885 74.2281 47.4816 74.6634C46.5748 74.9899 45.7405 75.7879 45.1602 76.4771C45.8131 76.2957 46.6474 75.8967 47.8081 75.6791C48.6787 75.4615 49.513 75.4252 50.3835 75.4614C51.2178 75.4977 52.0884 75.6791 52.9227 76.0055C53.7933 76.332 54.6276 76.6947 55.4619 77.1663Z" fill="#07085B"/>
<path d="M58.6906 79.5244C57.82 80.3224 57.022 81.2293 56.2965 82.1361C55.5348 83.043 54.8456 84.0224 54.2289 85.038C53.8662 85.6547 53.4309 86.489 53.3221 87.1782C53.2495 87.5772 53.2858 87.9399 53.9387 88.5928C54.374 89.0281 54.8456 89.4271 55.3171 89.7536C55.825 90.0801 56.3328 90.4065 56.8769 90.6242C55.9701 89.8624 55.0632 89.1007 54.374 88.1938C54.2652 88.0487 54.0475 87.7585 53.975 87.5772C53.9387 87.4321 54.0113 87.1419 54.0838 86.9243C54.2652 86.4164 54.5554 85.9086 54.8456 85.4008C55.4259 84.4214 56.0789 83.442 56.7318 82.4626C57.3847 81.4832 58.0377 80.5038 58.6906 79.5244Z" fill="#F99893"/>
<path d="M44.1086 57.3608C44.1086 57.3608 37.8696 56.1638 45.5596 52.3913C53.2496 48.6188 72.0394 46.4424 81.8696 54.8579C81.8696 54.8579 85.1705 50.6139 88.145 52.4639C91.1194 54.3138 85.0617 56.3814 85.0617 56.3814C85.0617 56.3814 89.1969 57.1794 90.0312 59.5009C90.6116 61.2058 88.0724 60.698 86.7302 60.3352C88.9792 61.2784 95.6173 67.5174 87.0205 84.6386C85.497 83.9132 75.6305 69.839 75.6305 69.839C75.6305 69.839 55.7888 76.3682 59.4162 70.9635C59.4162 70.9635 36.3098 76.7672 41.896 66.2841C41.8597 66.3204 33.3716 65.0508 44.1086 57.3608Z" fill="#07085B"/>
<path d="M86.9842 84.6746C86.9842 84.6746 85.4969 83.5139 83.2117 84.3845C80.9264 85.2188 79.4755 90.3696 79.4755 90.3696C79.4755 90.3696 72.0031 96.4999 75.6305 69.8024C79.2216 43.5765 84.191 74.1553 84.191 74.1553L86.9842 84.6746Z" fill="#07085B"/>
<path d="M35.7293 1.75379L32.501 1.42734C33.0814 1.10088 33.7343 0.95577 34.4598 1.02832L115.532 9.00854C119.776 9.44382 122.895 12.8173 122.532 16.5898L122.097 20.9063C121.734 24.6788 117.998 27.363 113.754 26.964L33.5892 19.0564L35.7293 1.75379Z" fill="#E03268"/>
<path d="M115.314 20.2166L115.749 15.9C116.112 12.1276 112.993 8.75413 108.749 8.31885L110.49 8.50022C114.734 8.9355 117.853 12.3089 117.491 16.0814L117.055 20.398C116.693 24.1705 112.956 26.8547 108.712 26.4557L107.008 26.2743C111.252 26.6734 114.951 23.9891 115.314 20.2166Z" fill="#FEB546"/>
<path d="M96.343 18.3668L96.7784 14.0502C97.1411 10.2777 94.0216 6.90428 89.7775 6.46899L91.5187 6.65036C95.7627 7.04937 98.8822 10.4591 98.5195 14.2316L98.0842 18.5482C97.7214 22.3206 93.9853 25.0049 89.7412 24.6059L88.0364 24.4245C92.2441 24.8235 95.9803 22.103 96.343 18.3668Z" fill="#FEB546"/>
<path d="M81.8334 5.70705C85.896 6.10607 88.9067 9.33444 88.544 12.9255L88.0725 17.8225C87.7098 21.4136 84.155 24.0253 80.0923 23.6263L29.6355 18.6568L29.7443 17.5686L29.962 17.6048L42.9117 17.7862L46.3939 9.00796C46.3939 9.00796 41.896 3.53062 41.5696 3.38553C41.2431 3.24043 31.5217 1.86205 31.5217 1.86205L31.3041 1.82576L31.4129 0.737549L81.8334 5.70705Z" fill="#FF5B7E"/>
<path d="M33.7342 9.9881C34.242 4.7284 31.4127 1.86279 31.4127 1.86279L80.6362 6.6872C84.3724 7.04993 87.1292 10.0244 86.8027 13.3253L86.44 17.0978C86.1135 20.3987 82.8488 22.7927 79.1126 22.43L29.8892 17.6056C29.8892 17.5693 33.0813 16.6262 33.7342 9.9881Z" fill="#DAEEF7"/>
<path d="M86.8386 13.3253L86.4758 17.0978C86.4396 17.6056 86.2945 18.0771 86.1494 18.5124C84.8436 14.74 82.0142 10.9675 76.0653 9.26262C62.1725 5.27251 31.4849 1.86279 31.4849 1.86279L80.7084 6.68719C84.4083 7.04993 87.165 10.0244 86.8386 13.3253Z" fill="#DAEEF7"/>
</svg>
