<svg width="46" height="46" viewBox="0 0 46 46" fill="none" xmlns="http://www.w3.org/2000/svg">
<g clip-path="url(#clip0_17_37662)">
<path d="M36.3572 15.8693C35.5519 15.8693 34.8108 16.1474 34.2231 16.6115C33.9931 14.9308 32.5489 13.6313 30.8061 13.6313C29.8818 13.6313 29.0413 13.9966 28.4213 14.5906C27.8902 13.3677 26.6709 12.5104 25.2549 12.5104C24.4646 12.5104 23.7361 12.7782 23.1537 13.2269V6.58589C23.1537 4.68363 21.6062 3.13599 19.7038 3.13599C17.8015 3.13599 16.2539 4.68363 16.2539 6.58589V17.7424C16.2539 18.1148 16.5558 18.4167 16.9282 18.4167C17.3007 18.4167 17.6026 18.1148 17.6026 17.7424V6.58589C17.6026 5.42729 18.5452 4.48466 19.7038 4.48466C20.8624 4.48466 21.805 5.42729 21.805 6.58589V21.7099C21.805 22.0823 22.107 22.3842 22.4794 22.3842C22.8518 22.3842 23.1537 22.0823 23.1537 21.7099V15.9602C23.1537 14.8016 24.0963 13.859 25.2549 13.859C26.4135 13.859 27.3562 14.8015 27.3562 15.9602V21.7099C27.3562 22.0823 27.6581 22.3842 28.0305 22.3842C28.4029 22.3842 28.7048 22.0823 28.7048 21.7099V17.0812C28.7048 15.9226 29.6474 14.98 30.8061 14.98C31.9647 14.98 32.9073 15.9226 32.9073 17.0812V21.7099C32.9073 22.0823 33.2092 22.3842 33.5816 22.3842C33.954 22.3842 34.256 22.0823 34.256 21.7099V19.3191C34.256 18.1605 35.1986 17.2179 36.3572 17.2179C37.5158 17.2179 38.4584 18.1604 38.4584 19.3191V29.2545L38.4552 32.1197C38.4226 34.4748 37.971 36.7782 37.1127 38.9661L36.8977 39.5141C36.7541 39.8802 36.6813 40.2652 36.6813 40.6586V45.3257C36.6813 45.6981 36.9832 46.0001 37.3557 46.0001C37.7281 46.0001 38.03 45.6981 38.03 45.3257V40.6586C38.03 40.4345 38.0714 40.2153 38.1533 40.0067L38.3682 39.4586C39.286 37.1192 39.769 34.6562 39.8038 32.1298L39.807 29.2552V19.3191C39.8071 17.4169 38.2594 15.8693 36.3572 15.8693Z" fill="white"/>
<path d="M19.854 39.1137C17.9527 38.6964 16.3004 37.5816 15.2016 35.975L7.94117 25.3594C7.27969 24.3922 7.46059 23.0982 8.36204 22.3495C9.2875 21.5807 10.6506 21.6724 11.4649 22.5581L15.7335 27.2001C16.036 27.5291 16.5006 27.6368 16.917 27.4744C17.3334 27.312 17.6025 26.9183 17.6025 26.4714V20.616C17.6025 20.2436 17.3006 19.9417 16.9282 19.9417C16.5558 19.9417 16.2538 20.2436 16.2538 20.616V25.7735L12.4577 21.6451C11.1566 20.2303 8.9791 20.0837 7.50024 21.312C6.06004 22.5081 5.77098 24.5754 6.82788 26.1207L14.0882 36.7362C15.3378 38.5633 17.1952 39.8498 19.3377 40.378V45.3254C19.3377 45.6978 19.6396 45.9998 20.012 45.9998C20.3844 45.9998 20.6864 45.6978 20.6864 45.3254V40.1487C20.6865 39.6549 20.3363 39.2196 19.854 39.1137Z" fill="white"/>
<path d="M25.9011 7.50621C25.9011 8.4973 25.6712 9.44506 25.2178 10.3231C25.047 10.6541 25.1766 11.0609 25.5076 11.2317C25.6066 11.2828 25.7122 11.3069 25.8164 11.3069C26.0606 11.3069 26.2964 11.1739 26.4161 10.9419C26.9693 9.87061 27.2498 8.71471 27.2498 7.50621C27.2498 5.86272 26.7278 4.30159 25.7402 2.99167C25.516 2.69433 25.0932 2.63499 24.7957 2.85914C24.4984 3.08338 24.4391 3.50614 24.6632 3.80357C25.4731 4.87774 25.9011 6.15808 25.9011 7.50621Z" fill="white"/>
<path d="M13.671 11.307C13.7752 11.307 13.8809 11.2827 13.9799 11.2316C14.3107 11.0608 14.4405 10.654 14.2695 10.3231C13.8161 9.4451 13.5862 8.49734 13.5862 7.50616C13.5862 4.11093 16.3485 1.34867 19.7437 1.34867C20.7764 1.34867 21.7984 1.60968 22.699 2.10348C23.0255 2.28258 23.4355 2.16291 23.6145 1.83635C23.7936 1.50979 23.674 1.09998 23.3474 0.920872C22.2486 0.318466 21.0025 0 19.7437 0C15.6047 0 12.2375 3.36727 12.2375 7.50616C12.2375 8.71475 12.5181 9.87065 13.0713 10.9419C13.1911 11.1739 13.4268 11.307 13.671 11.307Z" fill="white"/>
<path d="M9.89432 12.8537C9.99133 12.8537 10.0899 12.8326 10.1833 12.7882C10.5197 12.6284 10.6627 12.2261 10.5028 11.8897C9.84918 10.5145 9.51786 9.03973 9.51786 7.5062C9.51786 5.97267 9.84927 4.49786 10.5028 3.12275C10.6627 2.7864 10.5197 2.38413 10.1833 2.22418C9.84676 2.06423 9.44467 2.20737 9.28472 2.54372C8.54448 4.10117 8.16919 5.77073 8.16919 7.50611C8.16919 9.24149 8.54448 10.9111 9.28472 12.4685C9.40026 12.7115 9.64212 12.8537 9.89432 12.8537Z" fill="white"/>
<path d="M29.304 12.7882C29.3974 12.8326 29.496 12.8536 29.593 12.8536C29.8452 12.8536 30.0871 12.7115 30.2025 12.4685C30.9427 10.911 31.318 9.24145 31.318 7.50616C31.318 5.77087 30.9427 4.10131 30.2025 2.54377C30.0426 2.20733 29.6404 2.06428 29.304 2.22414C28.9677 2.384 28.8245 2.78626 28.9844 3.12262C29.6379 4.49782 29.9694 5.97263 29.9694 7.50607C29.9694 9.03951 29.6379 10.5143 28.9844 11.8895C28.8245 12.2261 28.9677 12.6283 29.304 12.7882Z" fill="white"/>
</g>
<defs>
<clipPath id="clip0_17_37662">
<rect width="46" height="46" fill="white"/>
</clipPath>
</defs>
</svg>
