<svg width="54" height="54" viewBox="0 0 54 54" fill="none" xmlns="http://www.w3.org/2000/svg">
<path d="M35.9318 25.3125L35.6847 25.5596C35.5264 25.7179 35.4375 25.9325 35.4375 26.1563C35.4375 26.3801 35.5264 26.5947 35.6847 26.7529C35.8429 26.9112 36.0575 27.0001 36.2813 27.0001C36.5051 27.0001 36.7197 26.9112 36.878 26.7529L38.5655 25.0654C38.6438 24.9871 38.706 24.8941 38.7484 24.7917C38.7908 24.6893 38.8126 24.5796 38.8126 24.4688C38.8126 24.358 38.7908 24.2483 38.7484 24.1459C38.706 24.0435 38.6438 23.9505 38.5655 23.8721L36.878 22.1846C36.7197 22.0264 36.5051 21.9375 36.2813 21.9375C36.0575 21.9375 35.8429 22.0264 35.6847 22.1846C35.5264 22.3429 35.4375 22.5575 35.4375 22.7813C35.4375 23.0051 35.5264 23.2197 35.6847 23.3779L35.9318 23.625H26.8549C26.7283 23.2697 26.5242 22.9469 26.2575 22.6801C25.9907 22.4134 25.6679 22.2093 25.3126 22.0827V16.3808L25.5597 16.6279C25.7179 16.7862 25.9325 16.8751 26.1563 16.8751C26.3801 16.8751 26.5947 16.7862 26.753 16.6279C26.9112 16.4697 27.0001 16.2551 27.0001 16.0313C27.0001 15.8075 26.9112 15.5929 26.753 15.4346L25.0655 13.7471C24.9871 13.6688 24.8941 13.6066 24.7917 13.5642C24.6893 13.5218 24.5796 13.5 24.4688 13.5C24.358 13.5 24.2483 13.5218 24.1459 13.5642C24.0435 13.6066 23.9505 13.6688 23.8722 13.7471L22.1847 15.4346C22.0264 15.5929 21.9375 15.8075 21.9375 16.0313C21.9375 16.2551 22.0264 16.4697 22.1847 16.6279C22.3429 16.7862 22.5575 16.8751 22.7813 16.8751C23.0051 16.8751 23.2197 16.7862 23.378 16.6279L23.6251 16.3808V22.0827C23.2219 22.2251 22.8613 22.4674 22.5771 22.7869C22.2928 23.1064 22.0942 23.4927 21.9996 23.9098C21.9051 24.3269 21.9178 24.7611 22.0365 25.1719C22.1552 25.5827 22.376 25.9568 22.6784 26.2592C22.9808 26.5616 23.3549 26.7824 23.7657 26.9011C24.1765 27.0198 24.6107 27.0325 25.0278 26.938C25.4449 26.8434 25.8312 26.6448 26.1507 26.3605C26.4702 26.0763 26.7125 25.7157 26.8549 25.3125H35.9318ZM24.4688 25.3125C24.3019 25.3125 24.1388 25.263 24.0001 25.1703C23.8613 25.0776 23.7532 24.9458 23.6893 24.7917C23.6254 24.6375 23.6087 24.4678 23.6413 24.3042C23.6738 24.1405 23.7542 23.9902 23.8722 23.8722C23.9902 23.7542 24.1405 23.6738 24.3042 23.6412C24.4679 23.6087 24.6375 23.6254 24.7917 23.6893C24.9459 23.7531 25.0777 23.8613 25.1704 24C25.2631 24.1388 25.3126 24.3019 25.3126 24.4688C25.3123 24.6925 25.2233 24.9069 25.0652 25.0651C24.907 25.2233 24.6925 25.3123 24.4688 25.3125Z" fill="white"/>
<path d="M46.148 31.4846C47.7188 26.6222 47.608 21.3728 45.8334 16.581C44.0588 11.7893 40.7236 7.734 36.3646 5.06778C32.0056 2.40156 26.8762 1.2795 21.8021 1.88219C16.728 2.48488 12.0042 4.77727 8.39101 8.39041C4.77781 12.0035 2.48536 16.7273 1.8826 21.8014C1.27984 26.8755 2.40182 32.0049 5.06798 36.3639C7.73414 40.723 11.7894 44.0583 16.5811 45.8329C21.3728 47.6076 26.6223 47.7185 31.4846 46.1477C32.2499 47.7186 33.3795 49.084 34.7792 50.13C36.179 51.1761 37.8084 51.8725 39.5318 52.1614C41.2552 52.4502 43.0227 52.3231 44.687 51.7905C46.3513 51.258 47.8643 50.3355 49.0999 49.0999C50.3356 47.8643 51.2581 46.3513 51.7906 44.687C52.3232 43.0227 52.4503 41.2552 52.1615 39.5318C51.8727 37.8084 51.1763 36.179 50.1303 34.7792C49.0842 33.3794 47.7189 32.2499 46.148 31.4846ZM24.4687 45.5624C12.8377 45.5624 3.37499 36.0998 3.37499 24.4687C3.37499 12.8376 12.8377 3.37494 24.4687 3.37494C36.0998 3.37494 45.5625 12.8376 45.5625 24.4687C45.5651 26.6376 45.2326 28.794 44.5767 30.8614C44.0356 30.6943 43.4823 30.5698 42.9218 30.4889C43.5556 28.5452 43.8774 26.5132 43.875 24.4687C43.875 13.768 35.1694 5.06244 24.4687 5.06244C13.7681 5.06244 5.0625 13.768 5.0625 24.4687C5.0625 35.1693 13.7681 43.8749 24.4687 43.8749C26.5133 43.8777 28.5453 43.5563 30.4891 42.9226C30.57 43.4826 30.6944 44.0355 30.8613 44.5762C28.794 45.2322 26.6377 45.5649 24.4687 45.5624ZM30.3771 41.1782C28.7467 41.7552 27.0402 42.0887 25.3125 42.1677V41.3437C25.3125 41.1199 25.2236 40.9053 25.0654 40.7471C24.9071 40.5888 24.6925 40.4999 24.4687 40.4999C24.245 40.4999 24.0304 40.5888 23.8721 40.7471C23.7139 40.9053 23.625 41.1199 23.625 41.3437V42.1669C19.5127 41.9737 15.5974 40.3492 12.5563 37.5743L13.133 36.9976C13.2121 36.9195 13.275 36.8264 13.318 36.7238C13.361 36.6213 13.3834 36.5112 13.3837 36.4C13.384 36.2887 13.3624 36.1785 13.3199 36.0757C13.2775 35.9729 13.2152 35.8794 13.1365 35.8008C13.0579 35.7221 12.9645 35.6598 12.8616 35.6174C12.7588 35.575 12.6486 35.5533 12.5374 35.5537C12.4261 35.554 12.316 35.5764 12.2135 35.6194C12.1109 35.6624 12.0179 35.7253 11.9397 35.8045L11.3631 36.3812C8.58827 33.3401 6.96374 29.4247 6.77056 25.3124H7.59375C7.81752 25.3124 8.03213 25.2235 8.19037 25.0653C8.3486 24.9071 8.4375 24.6925 8.4375 24.4687C8.4375 24.2449 8.3486 24.0303 8.19037 23.8721C8.03213 23.7138 7.81752 23.6249 7.59375 23.6249H6.77056C6.96378 19.5127 8.58831 15.5973 11.3631 12.5562L12.0592 13.2523C12.1372 13.3321 12.2303 13.3956 12.333 13.4392C12.4357 13.4828 12.5461 13.5055 12.6577 13.5062C12.7693 13.5068 12.8799 13.4853 12.9831 13.4429C13.0864 13.4005 13.1802 13.338 13.2591 13.2591C13.338 13.1802 13.4005 13.0864 13.4429 12.9832C13.4853 12.88 13.5069 12.7694 13.5062 12.6578C13.5056 12.5462 13.4829 12.4358 13.4393 12.3331C13.3958 12.2303 13.3322 12.1373 13.2525 12.0592L12.5564 11.3631C15.5974 8.58828 19.5128 6.96371 23.625 6.77051V7.59369C23.625 7.81747 23.7139 8.03208 23.8721 8.19031C24.0304 8.34854 24.245 8.43744 24.4687 8.43744C24.6925 8.43744 24.9071 8.34854 25.0654 8.19031C25.2236 8.03208 25.3125 7.81747 25.3125 7.59369V6.77051C29.4247 6.96368 33.3401 8.58821 36.3812 11.363L35.8045 11.9397C35.6479 12.0983 35.5604 12.3124 35.561 12.5353C35.5617 12.7582 35.6506 12.9718 35.8082 13.1293C35.9658 13.2869 36.1794 13.3758 36.4023 13.3764C36.6251 13.3771 36.8392 13.2896 36.9978 13.1329L37.5744 12.5562C40.3492 15.5973 41.9738 19.5127 42.1669 23.6249H41.3437C41.12 23.6249 40.9054 23.7138 40.7471 23.8721C40.5889 24.0303 40.5 24.2449 40.5 24.4687C40.5 24.6925 40.5889 24.9071 40.7471 25.0653C40.9054 25.2235 41.12 25.3124 41.3437 25.3124H42.1677C42.0883 27.0401 41.7547 28.7466 41.1776 30.377C38.3275 30.4234 35.6071 31.5763 33.5916 33.592C31.5761 35.6076 30.4233 38.3281 30.3771 41.1782ZM41.3437 50.6249C39.5081 50.6249 37.7137 50.0806 36.1874 49.0608C34.6611 48.0409 33.4715 46.5914 32.769 44.8955C32.0665 43.1995 31.8827 41.3334 32.2408 39.533C32.599 37.7326 33.4829 36.0789 34.7809 34.7809C36.0789 33.4828 37.7327 32.5989 39.5331 32.2408C41.3335 31.8827 43.1996 32.0665 44.8955 32.7689C46.5915 33.4714 48.041 34.661 49.0608 36.1873C50.0807 37.7136 50.625 39.508 50.625 41.3437C50.6222 43.8044 49.6435 46.1635 47.9035 47.9034C46.1635 49.6434 43.8044 50.6221 41.3437 50.6249Z" fill="white"/>
<path d="M46.0806 37.3028C45.9931 37.2347 45.8931 37.1846 45.7863 37.1551C45.6795 37.1257 45.5679 37.1177 45.458 37.1314C45.348 37.1451 45.2418 37.1803 45.1455 37.2351C45.0491 37.2898 44.9645 37.363 44.8965 37.4504L39.5771 44.2898L37.7217 42.4343C37.5634 42.276 37.3488 42.1871 37.125 42.1871C36.9012 42.1871 36.6866 42.276 36.5284 42.4343C36.3701 42.5925 36.2812 42.8071 36.2812 43.0309C36.2812 43.2547 36.3701 43.4693 36.5284 43.6275L39.0596 46.1588C39.138 46.2372 39.231 46.2994 39.3333 46.3418C39.4357 46.3843 39.5454 46.4062 39.6563 46.4062C39.6737 46.4062 39.6912 46.4062 39.709 46.4045C39.8284 46.3971 39.9449 46.3644 40.0507 46.3085C40.1565 46.2526 40.2492 46.1749 40.3226 46.0804L46.2289 38.4867C46.3662 38.31 46.4277 38.086 46.3999 37.864C46.3721 37.642 46.2572 37.4401 46.0806 37.3028Z" fill="white"/>
</svg>
