<svg width="47" height="47" viewBox="0 0 47 47" fill="none" xmlns="http://www.w3.org/2000/svg">
<g clip-path="url(#clip0_17_37670)">
<path d="M39.1667 29.8074V3.13333C39.1667 1.40284 37.7638 0 36.0333 0H3.13333C1.40284 0 0 1.40284 0 3.13333V43.0833C0 44.8138 1.40284 46.2167 3.13333 46.2167H34.8145C37.931 47.6399 41.5947 47.0802 44.1442 44.7915C46.6937 42.5028 47.6438 38.9204 46.5637 35.669C45.4837 32.4176 42.5789 30.1158 39.1667 29.8074ZM3.13333 1.56667H36.0333C36.8986 1.56667 37.6 2.26809 37.6 3.13333V6.26667H1.56667V3.13333C1.56667 2.26809 2.26809 1.56667 3.13333 1.56667ZM3.13333 44.65C2.26809 44.65 1.56667 43.9486 1.56667 43.0833V7.83333H37.6V29.8074C34.2236 30.1099 31.3398 32.3675 30.2359 35.5727C29.132 38.7779 30.0139 42.3325 32.488 44.65H3.13333ZM38.3833 45.4333C34.4897 45.4333 31.3333 42.2769 31.3333 38.3833C31.3333 34.4897 34.4897 31.3333 38.3833 31.3333C42.2769 31.3333 45.4333 34.4897 45.4333 38.3833C45.429 42.2752 42.2752 45.429 38.3833 45.4333Z" fill="white"/>
<path d="M40.89 34.7799L36.7321 40.3235L35.8038 39.3953C35.4965 39.0984 35.0079 39.1027 34.7058 39.4048C34.4036 39.707 34.3993 40.1956 34.6962 40.5029L36.2629 42.0696C36.4096 42.2168 36.6088 42.2996 36.8167 42.2999H36.8723C37.0991 42.2833 37.3075 42.169 37.4434 41.9866L42.1434 35.7199C42.3113 35.496 42.347 35.1996 42.2371 34.9422C42.1271 34.6848 41.8882 34.5057 41.6104 34.4722C41.3325 34.4387 41.0579 34.556 40.89 34.7799Z" fill="white"/>
<path d="M3.91663 4.70082C4.34926 4.70082 4.69997 4.35011 4.69997 3.91749C4.69997 3.48487 4.34926 3.13416 3.91663 3.13416C3.48401 3.13416 3.1333 3.48487 3.1333 3.91749C3.1333 4.35011 3.48401 4.70082 3.91663 4.70082Z" fill="white"/>
<path d="M7.04993 4.70082C7.48256 4.70082 7.83327 4.35011 7.83327 3.91749C7.83327 3.48487 7.48256 3.13416 7.04993 3.13416C6.61731 3.13416 6.2666 3.48487 6.2666 3.91749C6.2666 4.35011 6.61731 4.70082 7.04993 4.70082Z" fill="white"/>
<path d="M10.1832 4.70082C10.6159 4.70082 10.9666 4.35011 10.9666 3.91749C10.9666 3.48487 10.6159 3.13416 10.1832 3.13416C9.75061 3.13416 9.3999 3.48487 9.3999 3.91749C9.3999 4.35011 9.75061 4.70082 10.1832 4.70082Z" fill="white"/>
<path d="M27.4166 4.69997H35.25C35.6826 4.69997 36.0333 4.34926 36.0333 3.91663C36.0333 3.48401 35.6826 3.1333 35.25 3.1333H27.4166C26.984 3.1333 26.6333 3.48401 26.6333 3.91663C26.6333 4.34926 26.984 4.69997 27.4166 4.69997Z" fill="white"/>
<path d="M9.02321 14.8457L14.1 16.1084V18.0166C14.1 18.8819 14.8014 19.5833 15.6667 19.5833H21.9333C22.7986 19.5833 23.5 18.8819 23.5 18.0166V16.1084L28.2 14.9389V18.0166C28.2 18.4493 28.5507 18.8 28.9833 18.8C29.416 18.8 29.7667 18.4493 29.7667 18.0166V13.3166V13.3041C29.7676 12.5858 29.2775 11.9598 28.5799 11.7884L19.1799 9.44776C18.9321 9.38509 18.6726 9.38509 18.4248 9.44776L9.01616 11.7915C8.31899 11.9718 7.83257 12.6016 7.83423 13.3217C7.83589 14.0419 8.32521 14.6686 9.02321 14.8457ZM21.9333 18.0166H15.6667L15.6573 15.4113C17.6901 14.7095 19.8992 14.7076 21.9333 15.4058V18.0166ZM18.8 10.9666L28.2 13.3237L23.2407 14.5567C23.0599 14.2717 22.7905 14.054 22.4738 13.937C20.0946 13.1088 17.5054 13.1088 15.1262 13.937C14.8109 14.0541 14.5425 14.2708 14.3616 14.5543L9.4 13.3096L18.8 10.9666Z" fill="white"/>
<path d="M8.61673 21.1499C6.88624 21.1499 5.4834 22.5527 5.4834 24.2832C5.4834 26.0137 6.88624 27.4166 8.61673 27.4166C10.3472 27.4166 11.7501 26.0137 11.7501 24.2832C11.7501 22.5527 10.3472 21.1499 8.61673 21.1499ZM8.61673 25.8499C7.75149 25.8499 7.05007 25.1485 7.05007 24.2832C7.05007 23.418 7.75149 22.7166 8.61673 22.7166C9.48198 22.7166 10.1834 23.418 10.1834 24.2832C10.1834 25.1485 9.48198 25.8499 8.61673 25.8499Z" fill="white"/>
<path d="M8.61673 28.9834C6.88624 28.9834 5.4834 30.3862 5.4834 32.1167C5.4834 33.8472 6.88624 35.2501 8.61673 35.2501C10.3472 35.2501 11.7501 33.8472 11.7501 32.1167C11.7501 30.3862 10.3472 28.9834 8.61673 28.9834ZM8.61673 33.6834C7.75149 33.6834 7.05007 32.982 7.05007 32.1167C7.05007 31.2515 7.75149 30.5501 8.61673 30.5501C9.48198 30.5501 10.1834 31.2515 10.1834 32.1167C10.1834 32.982 9.48198 33.6834 8.61673 33.6834Z" fill="white"/>
<path d="M8.61673 36.8167C6.88624 36.8167 5.4834 38.2195 5.4834 39.95C5.4834 41.6805 6.88624 43.0833 8.61673 43.0833C10.3472 43.0833 11.7501 41.6805 11.7501 39.95C11.7501 38.2195 10.3472 36.8167 8.61673 36.8167ZM8.61673 41.5167C7.75149 41.5167 7.05007 40.8152 7.05007 39.95C7.05007 39.0847 7.75149 38.3833 8.61673 38.3833C9.48198 38.3833 10.1834 39.0847 10.1834 39.95C10.1834 40.8152 9.48198 41.5167 8.61673 41.5167Z" fill="white"/>
<path d="M13.3167 22.7167C13.3167 23.1493 13.6674 23.5 14.1 23.5H32.1167C32.5493 23.5 32.9 23.1493 32.9 22.7167C32.9 22.2841 32.5493 21.9333 32.1167 21.9333H14.1C13.6674 21.9333 13.3167 22.2841 13.3167 22.7167Z" fill="white"/>
<path d="M28.9833 26.6333C29.4159 26.6333 29.7666 26.2826 29.7666 25.85C29.7666 25.4174 29.4159 25.0667 28.9833 25.0667H27.4166C26.984 25.0667 26.6333 25.4174 26.6333 25.85C26.6333 26.2826 26.984 26.6333 27.4166 26.6333H28.9833Z" fill="white"/>
<path d="M14.1 26.6333H24.2833C24.7159 26.6333 25.0667 26.2826 25.0667 25.85C25.0667 25.4174 24.7159 25.0667 24.2833 25.0667H14.1C13.6674 25.0667 13.3167 25.4174 13.3167 25.85C13.3167 26.2826 13.6674 26.6333 14.1 26.6333Z" fill="white"/>
<path d="M31.3333 29.7666H14.1C13.6674 29.7666 13.3167 30.1173 13.3167 30.5499C13.3167 30.9826 13.6674 31.3333 14.1 31.3333H31.3333C31.7659 31.3333 32.1167 30.9826 32.1167 30.5499C32.1167 30.1173 31.7659 29.7666 31.3333 29.7666Z" fill="white"/>
<path d="M27.4167 32.8999H25.85C25.4174 32.8999 25.0667 33.2506 25.0667 33.6832C25.0667 34.1159 25.4174 34.4666 25.85 34.4666H27.4167C27.8493 34.4666 28.2 34.1159 28.2 33.6832C28.2 33.2506 27.8493 32.8999 27.4167 32.8999Z" fill="white"/>
<path d="M14.1 32.8999C13.6674 32.8999 13.3167 33.2506 13.3167 33.6832C13.3167 34.1159 13.6674 34.4666 14.1 34.4666H22.7167C23.1493 34.4666 23.5 34.1159 23.5 33.6832C23.5 33.2506 23.1493 32.8999 22.7167 32.8999H14.1Z" fill="white"/>
<path d="M26.6333 37.6001H14.1C13.6674 37.6001 13.3167 37.9508 13.3167 38.3834C13.3167 38.8161 13.6674 39.1668 14.1 39.1668H26.6333C27.0659 39.1668 27.4167 38.8161 27.4167 38.3834C27.4167 37.9508 27.0659 37.6001 26.6333 37.6001Z" fill="white"/>
<path d="M25.0666 40.7334H23.4999C23.0673 40.7334 22.7166 41.0841 22.7166 41.5167C22.7166 41.9494 23.0673 42.3001 23.4999 42.3001H25.0666C25.4992 42.3001 25.8499 41.9494 25.8499 41.5167C25.8499 41.0841 25.4992 40.7334 25.0666 40.7334Z" fill="white"/>
<path d="M20.3667 40.7334H14.1C13.6674 40.7334 13.3167 41.0841 13.3167 41.5167C13.3167 41.9494 13.6674 42.3001 14.1 42.3001H20.3667C20.7993 42.3001 21.15 41.9494 21.15 41.5167C21.15 41.0841 20.7993 40.7334 20.3667 40.7334Z" fill="white"/>
</g>
<defs>
<clipPath id="clip0_17_37670">
<rect width="47" height="47" fill="white"/>
</clipPath>
</defs>
</svg>
