<svg width="47" height="47" viewBox="0 0 47 47" fill="none" xmlns="http://www.w3.org/2000/svg">
<g clip-path="url(#clip0_17_37645)">
<path d="M35.8651 47H25.9243C25.2775 47 24.753 46.4756 24.753 45.8287V33.8997C24.753 33.2528 25.2775 32.7284 25.9243 32.7284H26.8138C27.4606 32.7284 27.9851 33.2528 27.9851 33.8997C27.9851 34.4494 27.6065 34.9106 27.0956 35.0368V44.6574H34.7798C34.954 44.2293 35.3744 43.9276 35.8651 43.9276C36.512 43.9276 37.0364 44.452 37.0364 45.0989V45.8287C37.0364 46.4756 36.512 47 35.8651 47ZM40.6061 42.5191H30.6653C30.0185 42.5191 29.494 41.9946 29.494 41.3478V29.4187C29.494 28.7719 30.0185 28.2474 30.6653 28.2474H40.6061C41.2529 28.2474 41.7774 28.7719 41.7774 29.4187V41.3478C41.7774 41.9946 41.2529 42.5191 40.6061 42.5191ZM31.8366 40.1765H39.4348V30.59H31.8366V40.1765ZM6.39357 40.3876C6.24701 40.3876 6.09781 40.36 5.9536 40.3014C5.35419 40.0582 5.06546 39.375 5.30865 38.7756L9.34596 28.8258C10.5932 25.7526 11.9098 23.5765 13.4893 21.9775C15.5812 19.8596 18.1674 18.7859 21.1761 18.7859H26.5312C30.6409 18.7859 33.8319 20.7011 36.2869 24.6412C36.6291 25.1902 36.4613 25.9126 35.9123 26.2548C35.3631 26.5971 34.6407 26.429 34.2987 25.88C32.9222 23.671 31.3378 22.2664 29.4303 21.5954L24.7996 27.941C24.5791 28.243 24.2276 28.4218 23.8535 28.4218C23.4794 28.4218 23.1279 28.243 22.9074 27.941L18.2734 21.591C15.4746 22.5707 13.3667 25.1479 11.5165 29.7067L7.47921 39.6564C7.29473 40.1116 6.85637 40.3876 6.39357 40.3876ZM20.8399 21.1337L23.8538 25.2636L26.8675 21.1339C26.7563 21.1302 26.6445 21.1284 26.5314 21.1284H21.1763C21.0633 21.1284 20.9512 21.1301 20.8399 21.1337ZM36.1029 38.5679H35.1685C34.5216 38.5679 33.9972 38.0434 33.9972 37.3966C33.9972 36.7497 34.5216 36.2253 35.1685 36.2253H36.1029C36.7497 36.2253 37.2742 36.7497 37.2742 37.3966C37.2742 38.0434 36.7497 38.5679 36.1029 38.5679ZM36.5702 34.5412H34.701C34.0542 34.5412 33.5297 34.0168 33.5297 33.37C33.5297 32.7231 34.0542 32.1987 34.701 32.1987H36.5702C37.2171 32.1987 37.7415 32.7231 37.7415 33.37C37.7415 34.0168 37.2171 34.5412 36.5702 34.5412ZM23.9406 15.5204C19.6617 15.5204 16.1806 12.0393 16.1806 7.7603C16.1806 4.23528 18.5427 1.2517 21.7674 0.309686C21.7826 0.304708 21.798 0.300022 21.8137 0.295484C22.3343 0.147315 22.8697 0.0544896 23.4118 0.0178866C23.4141 0.0170081 23.4169 0.0174474 23.4195 0.017301C23.4222 0.0171545 23.4251 0.0171545 23.4276 0.0167153C23.4301 0.0164225 23.4324 0.0162761 23.4349 0.0162761C23.5267 0.0104196 23.6194 0.00602723 23.7121 0.00324541C23.7162 0.00368464 23.7235 0.00295258 23.729 0.00280617C23.7321 0.00265976 23.7347 0.00236693 23.7383 0.00251335C23.7409 0.00251335 23.7435 0.00236693 23.7462 0.00236693C23.7495 0.00222052 23.7528 0.00207411 23.756 0.00207411C23.7586 0.00207411 23.7615 0.0019277 23.7642 0.0019277C23.7677 0.0019277 23.7712 0.00178129 23.7749 0.00163487C23.7774 0.00148846 23.78 0.00134205 23.7826 0.00148846C23.7851 0.00134205 23.7873 0.00134205 23.7898 0.00134205C23.794 0.00134205 23.7983 0.00119564 23.8025 0.00104923H23.8028C23.8052 0.000902814 23.8068 0.000756402 23.8094 0.00104923C23.8175 0.000902814 23.8257 0.000756402 23.8339 0.00060999H23.8342C23.8425 0.000463578 23.8507 0.000463578 23.8589 0.000317166C23.8651 0.000317166 23.8712 0.000170754 23.8774 0.000170754H23.8776C23.8798 0.000170754 23.8813 -0.000268482 23.8842 2.43417e-05C23.8907 2.43417e-05 23.8973 0.000170754 23.9033 2.43417e-05C23.9058 2.43417e-05 23.9082 2.43417e-05 23.9106 -0.00012207C23.914 -0.00012207 23.9182 0.000170754 23.9216 -0.00012207C23.9242 2.43417e-05 23.9268 2.43417e-05 23.9295 -0.00012207C23.9324 -0.00012207 23.9359 -0.00012207 23.9393 -0.00012207C23.9397 -0.00012207 23.94 -0.00012207 23.94 -0.00012207C23.9422 -0.00012207 23.9438 -0.00012207 23.9457 -0.00012207C23.9479 2.43417e-05 23.9501 2.43417e-05 23.9517 -0.00012207C23.9541 -0.00012207 23.9555 -0.00012207 23.9579 -0.00012207C23.9599 -0.00012207 23.962 -0.00012207 23.964 -0.00012207C23.9661 -0.00012207 23.9684 -0.00012207 23.9705 -0.00012207C23.9728 -0.00012207 23.9752 2.43417e-05 23.9774 2.43417e-05C27.9435 0.0190579 31.2266 2.9779 31.6545 6.91067C31.6849 7.18973 31.7006 7.47333 31.7006 7.7603C31.7006 12.0393 28.2195 15.5204 23.9406 15.5204ZM21.269 3.04832C19.6307 3.98111 18.5232 5.74377 18.5232 7.7603C18.5232 10.7475 20.9535 13.1778 23.9406 13.1778C26.6762 13.1778 28.9447 11.1395 29.3075 8.50188C29.1026 8.51798 28.8968 8.52618 28.6904 8.52618C25.2072 8.52618 22.2441 6.25723 21.269 3.04832ZM23.509 2.3596C24.1891 4.5997 26.258 6.18359 28.6905 6.18359C28.8338 6.18359 28.9769 6.17802 29.119 6.1669C28.4407 3.96632 26.3953 2.35945 23.9791 2.34276C23.9771 2.34276 23.9744 2.34291 23.9722 2.34276C23.9694 2.34276 23.9677 2.34247 23.9645 2.34262C23.9617 2.34262 23.9596 2.34247 23.9566 2.34262C23.9538 2.34262 23.9514 2.34247 23.9485 2.34262C23.9456 2.34262 23.9475 2.34306 23.9399 2.34262C23.9375 2.34262 23.9355 2.34276 23.933 2.34262C23.9323 2.34262 23.9315 2.34262 23.9308 2.34262C23.7888 2.34291 23.6482 2.34862 23.509 2.3596Z" fill="white"/>
</g>
<defs>
<clipPath id="clip0_17_37645">
<rect width="47" height="47" fill="white"/>
</clipPath>
</defs>
</svg>
