<svg width="50" height="50" viewBox="0 0 50 50" fill="none" xmlns="http://www.w3.org/2000/svg">
<path d="M31.25 7.8125C32.1129 7.8125 32.8125 7.11294 32.8125 6.25C32.8125 5.38706 32.1129 4.6875 31.25 4.6875H24.9058C21.0796 4.68748 18.0804 4.68748 15.701 4.94527C13.2728 5.20835 11.3053 5.75483 9.6255 6.97531C8.60852 7.71419 7.71419 8.60852 6.97531 9.62548C5.75483 11.3053 5.20835 13.2728 4.94527 15.701C4.68748 18.0804 4.68748 21.0796 4.6875 24.9058V25.0942C4.68748 28.9204 4.68748 31.9196 4.94527 34.299C5.20835 36.7273 5.75483 38.6946 6.97531 40.3746C7.71419 41.3915 8.60852 42.2858 9.62548 43.0246C11.3053 44.2452 13.2728 44.7917 15.701 45.0548C18.0804 45.3125 21.0796 45.3125 24.9056 45.3125H25.0944C28.9204 45.3125 31.9196 45.3125 34.299 45.0548C36.7273 44.7917 38.6946 44.2452 40.3746 43.0246C41.3915 42.2858 42.2858 41.3915 43.0246 40.3746C44.2452 38.6946 44.7917 36.7273 45.0548 34.299C45.3125 31.9196 45.3125 28.9204 45.3125 25.0944V18.75C45.3125 17.8871 44.6129 17.1875 43.75 17.1875C42.8871 17.1875 42.1875 17.8871 42.1875 18.75V25C42.1875 28.9408 42.1854 31.7708 41.9479 33.9625C41.7135 36.1248 41.2654 37.4794 40.4965 38.5377C39.9504 39.2894 39.2894 39.9504 38.5377 40.4965C37.4794 41.2654 36.1248 41.7135 33.9625 41.9479C31.7708 42.1854 28.9408 42.1875 25 42.1875C21.0592 42.1875 18.2291 42.1854 16.0376 41.9479C13.8753 41.7135 12.5207 41.2654 11.4623 40.4965C10.7106 39.9504 10.0496 39.2894 9.5035 38.5377C8.73456 37.4794 8.28635 36.1248 8.05208 33.9625C7.81465 31.7708 7.8125 28.9408 7.8125 25C7.8125 21.0592 7.81465 18.2291 8.05208 16.0376C8.28635 13.8753 8.73456 12.5207 9.5035 11.4623C10.0496 10.7106 10.7106 10.0496 11.4623 9.5035C12.5207 8.73456 13.8753 8.28635 16.0376 8.05208C18.2291 7.81465 21.0592 7.8125 25 7.8125H31.25Z" fill="white"/>
<path d="M13.1805 30.2641C12.8005 31.0389 13.1205 31.9752 13.8952 32.3552C14.67 32.7352 15.6061 32.4152 15.9862 31.6404L19.0285 25.4383C19.9715 23.5158 22.7431 23.6098 23.5538 25.5916C25.3854 30.0687 31.6467 30.2808 33.7771 25.9379L36.8196 19.7357C37.1996 18.9609 36.8796 18.0248 36.1048 17.6448C35.33 17.2647 34.394 17.5847 34.0138 18.3595L30.9715 24.5616C30.0286 26.4841 27.2569 26.3902 26.4463 24.4083C24.6146 19.9312 18.3533 19.7191 16.2229 24.062L13.1805 30.2641Z" fill="white"/>
<path fill-rule="evenodd" clip-rule="evenodd" d="M36.4583 8.33333C36.4583 11.2098 38.7901 13.5417 41.6666 13.5417C44.543 13.5417 46.8749 11.2098 46.8749 8.33333C46.8749 5.45685 44.543 3.125 41.6666 3.125C38.7901 3.125 36.4583 5.45685 36.4583 8.33333ZM39.5833 8.33333C39.5833 9.48392 40.516 10.4167 41.6666 10.4167C42.8172 10.4167 43.7499 9.48392 43.7499 8.33333C43.7499 7.18275 42.8172 6.25 41.6666 6.25C40.516 6.25 39.5833 7.18275 39.5833 8.33333Z" fill="white"/>
</svg>
