<svg width="181" height="214" viewBox="0 0 181 214" fill="none" xmlns="http://www.w3.org/2000/svg">
<g clip-path="url(#clip0_17_35794)">
<path d="M7.7999 53.9999C7.7999 53.9999 2.8999 34.5999 4.2999 32.9999C5.6999 31.3999 7.7999 39.8999 7.7999 39.8999C7.7999 39.8999 6.5999 30.4999 8.1999 29.9999C9.7999 29.4999 10.9999 38.6999 10.9999 38.6999C10.9999 38.6999 11.7999 29.0999 13.9999 28.5999C16.1999 28.0999 14.3999 40.6999 14.3999 40.6999C14.3999 40.6999 16.4999 31.4999 18.4999 31.8999C20.4999 32.1999 17.6999 45.5999 17.6999 45.5999C17.6999 45.5999 21.8999 40.9999 23.2999 41.6999C24.5999 42.3999 14.9999 54.9999 14.9999 54.9999C14.9999 54.9999 9.8999 57.6999 7.7999 53.9999Z" fill="white"/>
<path opacity="0.5" d="M11.1999 36.2999C10.9999 37.6999 10.8999 38.6999 10.8999 38.6999C10.8999 38.6999 9.7999 29.4999 8.1999 29.9999C6.5999 30.4999 7.7999 39.8999 7.7999 39.8999C7.7999 39.8999 5.6999 31.2999 4.2999 32.9999C2.8999 34.5999 7.7999 53.9999 7.7999 53.9999C9.8999 57.6999 14.9999 54.9999 14.9999 54.9999C14.9999 54.9999 17.3999 51.7999 19.6999 48.5999C14.4999 46.5999 12.1999 41.1999 11.1999 36.2999Z" fill="url(#paint0_linear_17_35794)"/>
<path d="M18.7998 91.3999C18.7998 91.3999 19.5998 52.2999 11.6998 51.7999C3.79981 51.2999 1.29982 88.5999 2.39982 93.1999C3.49982 97.6999 18.7998 99.2999 18.7998 91.3999Z" fill="white"/>
<path opacity="0.5" d="M18.7999 91.3999C18.7999 91.3999 18.7999 89.2999 18.7999 85.9999C5.5999 83.0999 13.9999 61.0999 11.1999 59.2999C9.5999 58.2999 8.0999 57.5999 6.7999 57.0999C2.6999 67.4999 1.4999 89.6999 2.2999 93.0999C3.4999 97.6999 18.7999 99.2999 18.7999 91.3999Z" fill="url(#paint1_linear_17_35794)"/>
<path d="M58.0998 117.3C56.4998 122.3 53.9998 126.3 53.9998 126.3C53.9998 126.3 2.29981 109.2 8.69981 99.1999C11.2998 95.1999 18.5998 94.3999 26.3998 94.9999C38.0998 95.6999 50.9998 99.3999 50.9998 99.3999C60.5998 102.3 60.1998 110.6 58.0998 117.3Z" fill="white"/>
<path opacity="0.5" d="M58.0998 117.3C56.4998 122.3 53.9998 126.3 53.9998 126.3C53.9998 126.3 2.29981 109.2 8.69981 99.1999C11.2998 95.1999 18.5998 94.3999 26.3998 94.9999C28.1998 99.8999 33.3998 108.9 46.8998 110.6C52.3998 111.2 55.8998 113.9 58.0998 117.3Z" fill="url(#paint2_linear_17_35794)"/>
<path d="M75.3 113.8C75.3 116.3 74.8 118.7 73.8 120.8C71.1 126.6 65.3 130.7 58.4 130.7C49.1 130.7 41.5 123.1 41.5 113.8C41.5 104.9 48.4 97.5999 57.1 96.9999C57.5 96.9999 57.9 96.8999 58.3 96.8999C67.7 96.8999 75.3 104.5 75.3 113.8Z" fill="#DAD9FF"/>
<path d="M73.8 120.8C71.1 126.6 65.3 130.7 58.4 130.7C49.1 130.7 41.5 123.1 41.5 113.8C41.5 104.9 48.4 97.5999 57.1 96.9999C56.4 104 57.6 114.8 70 119C71.6 119.5 72.8 120.1 73.8 120.8Z" fill="url(#paint3_linear_17_35794)"/>
<path d="M21.2999 98.7999C20.7999 101.4 19.3999 103.9 17.0999 105.6C12.2999 109.2 5.59989 108.2 2.09989 103.4C-1.40011 98.5999 -0.500109 91.8999 4.29989 88.3999C5.49989 87.4999 6.79989 86.8999 8.19989 86.5999C12.2999 85.5999 16.6999 87.0999 19.3999 90.5999C21.1999 92.9999 21.7999 95.9999 21.2999 98.7999Z" fill="#DAD9FF"/>
<path d="M21.2999 98.7999C20.7999 101.4 19.3999 103.9 17.0999 105.6C12.2999 109.2 5.59989 108.2 2.09989 103.4C-1.40011 98.5999 -0.500109 91.8999 4.29989 88.3999C5.49989 87.4999 6.79989 86.8999 8.19989 86.5999C8.39989 88.3999 9.89989 97.7999 21.2999 98.7999Z" fill="url(#paint4_linear_17_35794)"/>
<path d="M16.8999 55.8999C16.8999 56.6999 16.6999 57.4999 16.3999 58.1999C15.4999 60.1999 13.4999 61.4999 11.1999 61.4999C8.09985 61.4999 5.59985 58.9999 5.59985 55.8999C5.59985 52.8999 7.89985 50.4999 10.7999 50.2999C10.8999 50.2999 11.0999 50.2999 11.1999 50.2999C14.3999 50.2999 16.8999 52.7999 16.8999 55.8999Z" fill="#DAD9FF"/>
<path d="M16.3999 58.1999C15.4999 60.1999 13.4999 61.4999 11.1999 61.4999C8.09985 61.4999 5.59985 58.9999 5.59985 55.8999C5.59985 52.8999 7.89985 50.4999 10.7999 50.2999C11.2999 52.5999 12.6999 56.3999 16.3999 58.1999Z" fill="url(#paint5_linear_17_35794)"/>
<path d="M98.8999 194.1C111.602 194.1 121.9 183.803 121.9 171.1C121.9 158.397 111.602 148.1 98.8999 148.1C86.1974 148.1 75.8999 158.397 75.8999 171.1C75.8999 183.803 86.1974 194.1 98.8999 194.1Z" fill="url(#paint6_linear_17_35794)"/>
<path d="M117.8 184.1C100.9 179.6 93.2999 161.3 93.2999 161.3L82.7999 154.7C78.4999 158.9 75.8999 164.7 75.8999 171.1C75.8999 183.8 86.1999 194.1 98.8999 194.1C106.7 194.1 113.7 190.2 117.8 184.1Z" fill="url(#paint7_linear_17_35794)"/>
<path d="M131.9 153.4C130.3 157.5 128.6 160.7 127.3 162.7C120.3 172.9 96.5999 172.5 79.0999 171.1C61.5999 169.7 55.1999 133.9 56.9999 117.1C58.0999 107.4 66.5999 102.4 73.5999 99.9C78.6999 98.1 104.1 86.6 127.3 95.3C146.3 102.2 139 135.6 131.9 153.4Z" fill="white"/>
<path opacity="0.5" d="M131.9 153.4C130.3 157.5 128.6 160.7 127.3 162.7C120.3 172.9 96.5999 172.5 79.0999 171.1C61.5999 169.7 55.1999 133.9 56.9999 117.1C58.0999 107.4 66.5999 102.4 73.5999 99.9C76.0999 106.6 93.2999 148.9 131.9 153.4Z" fill="url(#paint8_linear_17_35794)"/>
<path d="M104.4 99.7L88.1998 101.3C85.7998 101.5 83.7998 99.7 83.7998 97.3V79.6H110.6V92.8C110.7 96.4 108 99.4 104.4 99.7Z" fill="url(#paint9_linear_17_35794)"/>
<path d="M66.9999 75.4C72.4675 75.4 76.8999 67.744 76.8999 58.2999C76.8999 48.8559 72.4675 41.2 66.9999 41.2C61.5322 41.2 57.0999 48.8559 57.0999 58.2999C57.0999 67.744 61.5322 75.4 66.9999 75.4Z" fill="#DAD9FF"/>
<path d="M122.2 62.4001C120.3 72.0001 115.1 80.1001 108.2 85.3001C101.7 90.3001 93.6999 92.6001 85.5999 91.3001C73.5999 89.3001 64.6999 79.5001 62.2999 67.1001C61.3999 62.5001 61.2999 57.5001 62.2999 52.5001C62.4999 51.5001 62.6999 50.6001 62.9999 49.7001C64.4999 44.1001 67.2999 39.1001 70.7999 35.0001C77.9999 26.6001 88.3999 22.0001 98.9999 23.7001C115.5 26.4001 125.9 43.8001 122.2 62.4001Z" fill="white"/>
<path opacity="0.5" d="M108.2 85.3C101.7 90.3 93.6999 92.6 85.5999 91.3C73.5999 89.3 64.6999 79.5 62.2999 67.1C61.3999 62.5 61.2999 57.5 62.2999 52.5C62.4999 51.5 62.6999 50.6 62.9999 49.7C64.4999 44.1 67.2999 39.1 70.7999 35C77.5999 50.6 91.4999 77.5 108.2 85.3Z" fill="url(#paint10_linear_17_35794)"/>
<path d="M117.8 74.5C123.268 74.5 127.7 66.8441 127.7 57.4001C127.7 47.956 123.268 40.3 117.8 40.3C112.332 40.3 107.9 47.956 107.9 57.4001C107.9 66.8441 112.332 74.5 117.8 74.5Z" fill="#DAD9FF"/>
<path d="M117.9 74.5C123.368 74.5 127.8 66.8441 127.8 57.4001C127.8 47.956 123.368 40.3 117.9 40.3C112.432 40.3 108 47.956 108 57.4001C108 66.8441 112.432 74.5 117.9 74.5Z" fill="#DAD9FF"/>
<path d="M118.1 74.5C123.567 74.5 128 66.8441 128 57.4001C128 47.956 123.567 40.3 118.1 40.3C112.632 40.3 108.2 47.956 108.2 57.4001C108.2 66.8441 112.632 74.5 118.1 74.5Z" fill="#DAD9FF"/>
<path d="M118.3 74.5C123.768 74.5 128.2 66.8441 128.2 57.4001C128.2 47.956 123.768 40.3 118.3 40.3C112.832 40.3 108.4 47.956 108.4 57.4001C108.4 66.8441 112.832 74.5 118.3 74.5Z" fill="#DAD9FF"/>
<path d="M118.4 74.5C123.868 74.5 128.3 66.8441 128.3 57.4001C128.3 47.956 123.868 40.3 118.4 40.3C112.932 40.3 108.5 47.956 108.5 57.4001C108.5 66.8441 112.932 74.5 118.4 74.5Z" fill="#DAD9FF"/>
<path d="M118.6 74.5C124.067 74.5 128.5 66.8441 128.5 57.4001C128.5 47.956 124.067 40.3 118.6 40.3C113.132 40.3 108.7 47.956 108.7 57.4001C108.7 66.8441 113.132 74.5 118.6 74.5Z" fill="#DAD9FF"/>
<path d="M118.8 74.5C124.268 74.5 128.7 66.8441 128.7 57.4001C128.7 47.956 124.268 40.3 118.8 40.3C113.332 40.3 108.9 47.956 108.9 57.4001C108.9 66.8441 113.332 74.5 118.8 74.5Z" fill="#DAD9FF"/>
<path d="M118.9 74.5C124.368 74.5 128.8 66.8441 128.8 57.4001C128.8 47.956 124.368 40.3 118.9 40.3C113.432 40.3 109 47.956 109 57.4001C109 66.8441 113.432 74.5 118.9 74.5Z" fill="#DAD9FF"/>
<path d="M119.1 74.5C124.567 74.5 129 66.8441 129 57.4001C129 47.956 124.567 40.3 119.1 40.3C113.632 40.3 109.2 47.956 109.2 57.4001C109.2 66.8441 113.632 74.5 119.1 74.5Z" fill="#DAD9FF"/>
<path d="M119.3 74.5C124.768 74.5 129.2 66.8441 129.2 57.4001C129.2 47.956 124.768 40.3 119.3 40.3C113.832 40.3 109.4 47.956 109.4 57.4001C109.4 66.8441 113.832 74.5 119.3 74.5Z" fill="#DAD9FF"/>
<path d="M119.4 74.5C124.868 74.5 129.3 66.8441 129.3 57.4001C129.3 47.956 124.868 40.3 119.4 40.3C113.932 40.3 109.5 47.956 109.5 57.4001C109.5 66.8441 113.932 74.5 119.4 74.5Z" fill="#DAD9FF"/>
<path d="M119.6 74.5C125.067 74.5 129.5 66.8441 129.5 57.4001C129.5 47.956 125.067 40.3 119.6 40.3C114.132 40.3 109.7 47.956 109.7 57.4001C109.7 66.8441 114.132 74.5 119.6 74.5Z" fill="#DAD9FF"/>
<path d="M119.8 74.5C125.268 74.5 129.7 66.8441 129.7 57.4001C129.7 47.956 125.268 40.3 119.8 40.3C114.332 40.3 109.9 47.956 109.9 57.4001C109.9 66.8441 114.332 74.5 119.8 74.5Z" fill="#DAD9FF"/>
<path d="M119.9 74.5C125.368 74.5 129.8 66.8441 129.8 57.4001C129.8 47.956 125.368 40.3 119.9 40.3C114.432 40.3 110 47.956 110 57.4001C110 66.8441 114.432 74.5 119.9 74.5Z" fill="#DAD9FF"/>
<path d="M120.1 74.5C125.567 74.5 130 66.8441 130 57.4001C130 47.956 125.567 40.3 120.1 40.3C114.632 40.3 110.2 47.956 110.2 57.4001C110.2 66.8441 114.632 74.5 120.1 74.5Z" fill="#DAD9FF"/>
<path d="M120.3 74.5C125.768 74.5 130.2 66.8441 130.2 57.4001C130.2 47.956 125.768 40.3 120.3 40.3C114.832 40.3 110.4 47.956 110.4 57.4001C110.4 66.8441 114.832 74.5 120.3 74.5Z" fill="#DAD9FF"/>
<path d="M120.4 74.5C125.868 74.5 130.3 66.8441 130.3 57.4001C130.3 47.956 125.868 40.3 120.4 40.3C114.932 40.3 110.5 47.956 110.5 57.4001C110.5 66.8441 114.932 74.5 120.4 74.5Z" fill="#DAD9FF"/>
<path d="M120.6 74.5C126.067 74.5 130.5 66.8441 130.5 57.4001C130.5 47.956 126.067 40.3 120.6 40.3C115.132 40.3 110.7 47.956 110.7 57.4001C110.7 66.8441 115.132 74.5 120.6 74.5Z" fill="#DAD9FF"/>
<path d="M120.8 74.5C126.268 74.5 130.7 66.8441 130.7 57.4001C130.7 47.956 126.268 40.3 120.8 40.3C115.332 40.3 110.9 47.956 110.9 57.4001C110.9 66.8441 115.332 74.5 120.8 74.5Z" fill="#DAD9FF"/>
<path d="M120.9 74.5C126.368 74.5 130.8 66.8441 130.8 57.4001C130.8 47.956 126.368 40.3 120.9 40.3C115.432 40.3 111 47.956 111 57.4001C111 66.8441 115.432 74.5 120.9 74.5Z" fill="#DAD9FF"/>
<path d="M121.1 74.5C126.567 74.5 131 66.8441 131 57.4001C131 47.956 126.567 40.3 121.1 40.3C115.632 40.3 111.2 47.956 111.2 57.4001C111.2 66.8441 115.632 74.5 121.1 74.5Z" fill="#DAD9FF"/>
<path d="M121.3 74.5C126.768 74.5 131.2 66.8441 131.2 57.4001C131.2 47.956 126.768 40.3 121.3 40.3C115.832 40.3 111.4 47.956 111.4 57.4001C111.4 66.8441 115.832 74.5 121.3 74.5Z" fill="#DAD9FF"/>
<path d="M121.4 74.5C126.868 74.5 131.3 66.8441 131.3 57.4001C131.3 47.956 126.868 40.3 121.4 40.3C115.932 40.3 111.5 47.956 111.5 57.4001C111.5 66.8441 115.932 74.5 121.4 74.5Z" fill="#DAD9FF"/>
<path d="M121.6 74.5C127.067 74.5 131.5 66.8441 131.5 57.4001C131.5 47.956 127.067 40.3 121.6 40.3C116.132 40.3 111.7 47.956 111.7 57.4001C111.7 66.8441 116.132 74.5 121.6 74.5Z" fill="#DAD9FF"/>
<path d="M121.8 74.5C127.268 74.5 131.7 66.8441 131.7 57.4001C131.7 47.956 127.268 40.3 121.8 40.3C116.332 40.3 111.9 47.956 111.9 57.4001C111.9 66.8441 116.332 74.5 121.8 74.5Z" fill="#DAD9FF"/>
<path d="M121.9 74.5C127.368 74.5 131.8 66.8441 131.8 57.4001C131.8 47.956 127.368 40.3 121.9 40.3C116.432 40.3 112 47.956 112 57.4001C112 66.8441 116.432 74.5 121.9 74.5Z" fill="#DAD9FF"/>
<path d="M122.1 74.5C127.567 74.5 132 66.8441 132 57.4001C132 47.956 127.567 40.3 122.1 40.3C116.632 40.3 112.2 47.956 112.2 57.4001C112.2 66.8441 116.632 74.5 122.1 74.5Z" fill="#DAD9FF"/>
<path d="M122.3 74.5C127.768 74.5 132.2 66.8441 132.2 57.4001C132.2 47.956 127.768 40.3 122.3 40.3C116.832 40.3 112.4 47.956 112.4 57.4001C112.4 66.8441 116.832 74.5 122.3 74.5Z" fill="#DAD9FF"/>
<path d="M122.4 74.5C127.868 74.5 132.3 66.8441 132.3 57.4001C132.3 47.956 127.868 40.3 122.4 40.3C116.932 40.3 112.5 47.956 112.5 57.4001C112.5 66.8441 116.932 74.5 122.4 74.5Z" fill="#DAD9FF"/>
<path d="M122.6 74.5C128.067 74.5 132.5 66.8441 132.5 57.4001C132.5 47.956 128.067 40.3 122.6 40.3C117.132 40.3 112.7 47.956 112.7 57.4001C112.7 66.8441 117.132 74.5 122.6 74.5Z" fill="#DAD9FF"/>
<path d="M122.8 74.5C128.268 74.5 132.7 66.8441 132.7 57.4001C132.7 47.956 128.268 40.3 122.8 40.3C117.332 40.3 112.9 47.956 112.9 57.4001C112.9 66.8441 117.332 74.5 122.8 74.5Z" fill="#DAD9FF"/>
<path d="M122.9 74.5C128.368 74.5 132.8 66.8441 132.8 57.4001C132.8 47.956 128.368 40.3 122.9 40.3C117.432 40.3 113 47.956 113 57.4001C113 66.8441 117.432 74.5 122.9 74.5Z" fill="#DAD9FF"/>
<path d="M122.9 74.5C128.368 74.5 132.8 66.8441 132.8 57.4001C132.8 47.956 128.368 40.3 122.9 40.3C117.432 40.3 113 47.956 113 57.4001C113 66.8441 117.432 74.5 122.9 74.5Z" fill="white"/>
<path d="M79.2998 71.4C70.9998 71 65.4998 69.6 62.1998 67.1C61.3998 62.5 61.2998 57.5 62.1998 52.5C62.3998 51.5 62.5998 50.6 62.7998 49.7C62.7998 49.7 64.2998 48.4 69.4998 49.7C74.6998 51 74.2998 54.4 81.1998 53.4C88.0998 52.4 93.1998 44.2 101.2 47.1C109.3 49.9 110.6 72.7 79.2998 71.4Z" fill="url(#paint11_linear_17_35794)"/>
<path d="M85.8999 62.2001C85.8999 60.1001 87.5999 58.3 89.7999 58.3C91.8999 58.3 93.6999 60.0001 93.6999 62.2001" stroke="white" stroke-width="2" stroke-miterlimit="10" stroke-linecap="round"/>
<path d="M67 61.3C67 59.2 68.7 57.4 70.9 57.4C73.1 57.4 74.8 59.1 74.8 61.3" stroke="white" stroke-width="2" stroke-miterlimit="10" stroke-linecap="round"/>
<path d="M78.7 3.99998C80.4 5.29998 82.1 6.69998 83.6 8.09998C85.2 9.59998 86.7 11.1 88.1 12.8C90.9 16.2 93.6 20 95 24.9C95.6 26.9 94.4 28.9 92.5 29.5C90.5 30.1 88.5 28.9 87.9 27C87.8 26.7 87.8 26.4 87.8 26.1C87.8 24.4 87.4 22.6 86.9 20.7C86.3 18.9 85.6 17 84.7 15.2C83.8 13.4 82.7 11.6 81.6 9.89998C80.5 8.19998 79.2 6.49998 77.9 4.89998C77.7 4.49998 77.8 4.19998 78 3.99998C78.2 3.79998 78.5 3.79998 78.7 3.99998Z" fill="white"/>
<path d="M76.9 8.8C79.3301 8.8 81.3 6.83005 81.3 4.4C81.3 1.96995 79.3301 0 76.9 0C74.4699 0 72.5 1.96995 72.5 4.4C72.5 6.83005 74.4699 8.8 76.9 8.8Z" fill="white"/>
<path d="M147.9 195.1C147.9 195.1 144.6 203.1 141.7 208.7C140.2 211.6 138.8 213.9 138.1 214C136.3 214.4 138.5 208.5 139.2 206.8C138.5 208.4 135.8 214.1 133.6 213.5C131.2 212.9 135.7 206.1 136.1 205.4C135.5 206.1 129.6 212.5 127.7 211.6C125.7 210.7 134.1 202.1 134.5 201.7C134.1 202 127.3 207.8 126 206.3C124.6 204.8 134.8 195.8 134.8 195.8C134.8 195.8 128.7 197 128 195.6C127.6 194.7 133.5 192.7 138 191.3C140.6 190.5 142.6 189.9 142.6 189.9C142.6 189.9 148.5 190.8 147.9 195.1Z" fill="white"/>
<path opacity="0.5" d="M141.7 208.7C140.2 211.6 138.8 213.9 138.1 214C136.3 214.4 138.5 208.5 139.2 206.8C138.5 208.4 135.8 214.1 133.6 213.5C131.2 212.9 135.7 206.1 136.1 205.4C135.5 206.1 129.6 212.5 127.7 211.6C125.7 210.7 134.1 202.1 134.5 201.7C134.1 202 127.3 207.8 126 206.3C124.6 204.8 134.8 195.8 134.8 195.8C134.8 195.8 128.7 197 128 195.6C127.6 194.7 133.5 192.7 138 191.3L139.8 196.2C139.9 196.3 136.3 203.9 141.7 208.7Z" fill="url(#paint12_linear_17_35794)"/>
<path d="M159.2 158.5C159.2 158.5 137.5 189.4 143.5 194.5C149.6 199.6 171.6 171.2 173.4 166.9C175.3 162.6 163.9 152.1 159.2 158.5Z" fill="white"/>
<path opacity="0.5" d="M159.2 158.5C159.2 158.5 137.5 189.4 143.5 194.5C145.5 196.2 149.2 194.3 153.3 190.8C153.7 183.8 156.7 174.7 158.7 171.8C160.1 169.8 166.1 170.8 170.3 171.8C171.9 169.5 173.1 167.8 173.4 166.9C174.4 164.6 171.7 160.7 168.2 158.3L160.2 157.4C159.9 157.7 159.5 158 159.2 158.5Z" fill="url(#paint13_linear_17_35794)"/>
<path d="M135.599 129.2C135.599 129.2 158.199 158.9 169.399 154.7C180.599 150.5 149.299 105.9 149.299 105.9C149.299 105.9 125.199 115.2 135.599 129.2Z" fill="white"/>
<path opacity="0.5" d="M149.199 105.8C149.199 105.8 125.2 115.2 135.6 129.1C135.6 129.1 157.299 157.6 168.699 154.8C167.799 154 166.399 153 164.299 151.9C149.899 144.8 154.299 124.7 156.699 116.9C152.499 110.5 149.199 105.8 149.199 105.8Z" fill="url(#paint14_linear_17_35794)"/>
<path d="M152.8 109.6C152.8 111.1 152.6 112.5 152.2 113.9C150.3 121.1 143.8 126.4 136 126.4C126.7 126.4 119.2 118.9 119.2 109.6C119.2 101.2 125.3 94.3 133.3 93C134.2 92.9 135 92.8 135.9 92.8C145.3 92.8 152.8 100.3 152.8 109.6Z" fill="#DAD9FF"/>
<path d="M152.3 113.9C150.4 121.1 143.9 126.4 136.1 126.4C126.8 126.4 119.3 118.9 119.3 109.6C119.3 101.2 125.4 94.3 133.4 93C134.6 99 138.9 112.6 152.3 113.9Z" fill="url(#paint15_linear_17_35794)"/>
<path d="M180.2 156.5C180.2 159.3 179.2 161.9 177.5 163.8C175.4 166.3 172.3 167.9 168.8 167.9C162.5 167.9 157.4 162.8 157.4 156.5C157.4 150.2 162.5 145.1 168.8 145.1C169.2 145.1 169.5 145.1 169.8 145.2C175.6 145.6 180.2 150.5 180.2 156.5Z" fill="#DAD9FF"/>
<path d="M177.5 163.8C175.4 166.3 172.3 167.9 168.8 167.9C162.5 167.9 157.4 162.8 157.4 156.5C157.4 150.2 162.5 145.1 168.8 145.1C169.2 145.1 169.5 145.1 169.8 145.2C170.4 150.1 172.2 158.7 177.5 163.8Z" fill="url(#paint16_linear_17_35794)"/>
<path d="M150 192.9C150 193.4 149.9 193.8 149.8 194.2C149.2 196.7 147 198.5 144.3 198.5C141.2 198.5 138.7 196 138.7 192.9C138.7 189.8 141.2 187.3 144.3 187.3C147.5 187.2 150 189.8 150 192.9Z" fill="#DAD9FF"/>
<path d="M149.9 194.2C149.3 196.7 147.1 198.5 144.4 198.5C141.3 198.5 138.8 196 138.8 192.9C138.8 189.8 141.3 187.3 144.4 187.3C144.6 188.8 145.4 192.4 149.9 194.2Z" fill="url(#paint17_linear_17_35794)"/>
</g>
<defs>
<linearGradient id="paint0_linear_17_35794" x1="4.0239" y1="42.95" x2="19.666" y2="42.95" gradientUnits="userSpaceOnUse">
<stop offset="0.0861855" stop-color="#BEBDFF"/>
<stop offset="1" stop-color="#BEBDFF" stop-opacity="0"/>
</linearGradient>
<linearGradient id="paint1_linear_17_35794" x1="-1.3624" y1="90.1821" x2="20.0431" y2="67.7003" gradientUnits="userSpaceOnUse">
<stop offset="0.0861855" stop-color="#BEBDFF"/>
<stop offset="1" stop-color="#BEBDFF" stop-opacity="0"/>
</linearGradient>
<linearGradient id="paint2_linear_17_35794" x1="25.084" y1="119.278" x2="42.0778" y2="101.429" gradientUnits="userSpaceOnUse">
<stop offset="0.0861855" stop-color="#BEBDFF"/>
<stop offset="1" stop-color="#BEBDFF" stop-opacity="0"/>
</linearGradient>
<linearGradient id="paint3_linear_17_35794" x1="46.7843" y1="126.03" x2="66.2304" y2="105.606" gradientUnits="userSpaceOnUse">
<stop offset="0.1193" stop-color="#2732A8"/>
<stop offset="0.1987" stop-color="#2A2B9F"/>
<stop offset="0.4315" stop-color="#321B8B"/>
<stop offset="0.5882" stop-color="#351584"/>
</linearGradient>
<linearGradient id="paint4_linear_17_35794" x1="-0.000108914" y1="97.0936" x2="21.3482" y2="97.0936" gradientUnits="userSpaceOnUse">
<stop offset="0.1193" stop-color="#2732A8"/>
<stop offset="0.1987" stop-color="#2A2B9F"/>
<stop offset="0.4315" stop-color="#321B8B"/>
<stop offset="0.5882" stop-color="#351584"/>
</linearGradient>
<linearGradient id="paint5_linear_17_35794" x1="5.59765" y1="55.9524" x2="16.3907" y2="55.9524" gradientUnits="userSpaceOnUse">
<stop offset="0.1193" stop-color="#2732A8"/>
<stop offset="0.1987" stop-color="#2A2B9F"/>
<stop offset="0.4315" stop-color="#321B8B"/>
<stop offset="0.5882" stop-color="#351584"/>
</linearGradient>
<linearGradient id="paint6_linear_17_35794" x1="98.0351" y1="210.528" x2="100.201" y2="106.565" gradientUnits="userSpaceOnUse">
<stop offset="0.1193" stop-color="#2A56B5"/>
<stop offset="0.1418" stop-color="#2B52B2"/>
<stop offset="0.3283" stop-color="#303199"/>
<stop offset="0.4838" stop-color="#341C8A"/>
<stop offset="0.5882" stop-color="#351584"/>
</linearGradient>
<linearGradient id="paint7_linear_17_35794" x1="82.9946" y1="187.794" x2="101.377" y2="168.487" gradientUnits="userSpaceOnUse">
<stop offset="0.0861855" stop-color="#BEBDFF"/>
<stop offset="1" stop-color="#BEBDFF" stop-opacity="0"/>
</linearGradient>
<linearGradient id="paint8_linear_17_35794" x1="111.303" y1="193.731" x2="79.1758" y2="103.125" gradientUnits="userSpaceOnUse">
<stop offset="0.0861855" stop-color="#BEBDFF"/>
<stop offset="1" stop-color="#BEBDFF" stop-opacity="0"/>
</linearGradient>
<linearGradient id="paint9_linear_17_35794" x1="85.1891" y1="100.274" x2="107.619" y2="76.7163" gradientUnits="userSpaceOnUse">
<stop offset="0.1193" stop-color="#2732A8"/>
<stop offset="0.1987" stop-color="#2A2B9F"/>
<stop offset="0.4315" stop-color="#321B8B"/>
<stop offset="0.5882" stop-color="#351584"/>
</linearGradient>
<linearGradient id="paint10_linear_17_35794" x1="90.6186" y1="90.0941" x2="59.3783" y2="14.8707" gradientUnits="userSpaceOnUse">
<stop offset="0.0861855" stop-color="#BEBDFF"/>
<stop offset="1" stop-color="#BEBDFF" stop-opacity="0"/>
</linearGradient>
<linearGradient id="paint11_linear_17_35794" x1="61.5795" y1="58.8931" x2="106.136" y2="58.8931" gradientUnits="userSpaceOnUse">
<stop offset="0.1193" stop-color="#2732A8"/>
<stop offset="0.1987" stop-color="#2A2B9F"/>
<stop offset="0.4315" stop-color="#321B8B"/>
<stop offset="0.5882" stop-color="#351584"/>
</linearGradient>
<linearGradient id="paint12_linear_17_35794" x1="127.156" y1="211.119" x2="142.228" y2="195.288" gradientUnits="userSpaceOnUse">
<stop offset="0.0861855" stop-color="#BEBDFF"/>
<stop offset="1" stop-color="#BEBDFF" stop-opacity="0"/>
</linearGradient>
<linearGradient id="paint13_linear_17_35794" x1="142.448" y1="176.231" x2="173.616" y2="176.231" gradientUnits="userSpaceOnUse">
<stop offset="0.0861855" stop-color="#BEBDFF"/>
<stop offset="1" stop-color="#BEBDFF" stop-opacity="0"/>
</linearGradient>
<linearGradient id="paint14_linear_17_35794" x1="132.984" y1="130.44" x2="168.644" y2="130.44" gradientUnits="userSpaceOnUse">
<stop offset="0.0861855" stop-color="#BEBDFF"/>
<stop offset="1" stop-color="#BEBDFF" stop-opacity="0"/>
</linearGradient>
<linearGradient id="paint15_linear_17_35794" x1="124.515" y1="121.707" x2="143.09" y2="102.198" gradientUnits="userSpaceOnUse">
<stop offset="0.1193" stop-color="#2732A8"/>
<stop offset="0.1987" stop-color="#2A2B9F"/>
<stop offset="0.4315" stop-color="#321B8B"/>
<stop offset="0.5882" stop-color="#351584"/>
</linearGradient>
<linearGradient id="paint16_linear_17_35794" x1="160.883" y1="164.725" x2="174.913" y2="149.989" gradientUnits="userSpaceOnUse">
<stop offset="0.1193" stop-color="#2732A8"/>
<stop offset="0.1987" stop-color="#2A2B9F"/>
<stop offset="0.4315" stop-color="#321B8B"/>
<stop offset="0.5882" stop-color="#351584"/>
</linearGradient>
<linearGradient id="paint17_linear_17_35794" x1="140.501" y1="196.948" x2="147.215" y2="189.896" gradientUnits="userSpaceOnUse">
<stop offset="0.1193" stop-color="#2732A8"/>
<stop offset="0.1987" stop-color="#2A2B9F"/>
<stop offset="0.4315" stop-color="#321B8B"/>
<stop offset="0.5882" stop-color="#351584"/>
</linearGradient>
<clipPath id="clip0_17_35794">
<rect width="180.2" height="214" fill="white"/>
</clipPath>
</defs>
</svg>
